<svg width="1522" height="203" viewBox="0 0 1522 203" fill="none" xmlns="http://www.w3.org/2000/svg">
<g clip-path="url(#clip0_117_56)">
<path d="M199.768 12.18H159.24C157.584 12.18 156.24 10.8369 156.24 9.18V3C156.24 1.34315 154.897 0 153.24 0H152.368C150.711 0 149.368 1.34315 149.368 3V9.18C149.368 10.8369 148.025 12.18 146.368 12.18H119.149C117.493 12.18 116.149 10.8369 116.149 9.18V1.06842C116.149 0.478349 115.671 0 115.081 0H110.345C109.755 0 109.277 0.478349 109.277 1.06842V9.77453C109.277 11.103 108.2 12.18 106.871 12.18C105.543 12.18 104.466 11.103 104.466 9.77454V3C104.466 1.34315 103.123 0 101.466 0H100.593C98.9361 0 97.593 1.34315 97.593 3V9.18C97.593 10.8369 96.2498 12.18 94.593 12.18H3C1.34315 12.18 0 13.5231 0 15.18V15.5905C0 17.2474 1.34315 18.5905 3 18.5905H94.593C96.2498 18.5905 97.593 19.9337 97.593 21.5905V52.9853C97.593 54.6421 96.2498 55.9853 94.593 55.9853H32.6047C31.823 55.9853 31.0721 55.6801 30.512 55.1348L5.09275 30.3867C3.19158 28.5357 0 29.8828 0 32.5362V33.3488C0 34.1595 0.328048 34.9356 0.909442 35.5005L27.491 61.3274C28.1783 61.9684 29.0946 62.3958 30.011 62.3958H94.593C96.2498 62.3958 97.593 63.7389 97.593 65.3958V127.142C97.593 128.852 99.1966 130.347 101.029 130.347H129.415C131.072 130.347 132.415 131.691 132.415 133.347V137.177C132.415 138.834 131.072 140.177 129.415 140.177H3C1.34314 140.177 0 141.52 0 143.177V143.587C0 145.244 1.34315 146.587 3 146.587H135.622C137.455 146.587 139.059 145.092 139.059 143.382V133.347C139.059 131.691 140.402 130.347 142.059 130.347H146.139C147.795 130.347 149.139 131.691 149.139 133.347V200C149.139 201.657 150.482 203 152.139 203H153.011C154.668 203 156.011 201.657 156.011 200V133.211C156.011 131.629 157.293 130.347 158.875 130.347C160.457 130.347 161.739 131.629 161.739 133.211V200C161.739 201.657 163.082 203 164.739 203H165.611C167.268 203 168.611 201.657 168.611 200V133.347C168.611 131.691 169.954 130.347 171.611 130.347H187.855C189.688 130.347 191.291 128.852 191.291 127.142V25.8558C191.291 24.1463 189.688 22.6505 187.855 22.6505H157.812C156.691 22.6505 155.782 21.7417 155.782 20.6205C155.782 19.4994 156.691 18.5905 157.812 18.5905H193.102C194.759 18.5905 196.102 19.9337 196.102 21.5905V200C196.102 201.657 197.445 203 199.102 203H199.975C201.632 203 202.975 201.657 202.975 200V15.3853C203.204 13.6758 201.83 12.18 199.768 12.18ZM104.466 20.6205C104.466 19.4994 105.375 18.5905 106.496 18.5905H107.247C108.368 18.5905 109.277 19.4994 109.277 20.6205C109.277 21.7417 108.368 22.6505 107.247 22.6505H106.496C105.375 22.6505 104.466 21.7417 104.466 20.6205ZM104.466 31.4665C104.466 30.138 105.543 29.0611 106.871 29.0611C108.2 29.0611 109.277 30.138 109.277 31.4665V53.5798C109.277 54.9083 108.2 55.9853 106.871 55.9853C105.543 55.9853 104.466 54.9083 104.466 53.5798V31.4665ZM132.186 123.937H107.466C105.809 123.937 104.466 122.594 104.466 120.937V64.8013C104.466 63.4728 105.543 62.3958 106.871 62.3958C108.2 62.3958 109.277 63.4728 109.277 64.8013V115.817C109.277 117.526 110.88 119.022 112.713 119.022H129.958C131.315 119.022 132.415 120.122 132.415 121.479V123.708C132.415 123.834 132.312 123.937 132.186 123.937ZM132.186 110.047C132.186 111.464 131.038 112.612 129.622 112.612H118.92C117.263 112.612 115.92 111.268 115.92 109.612V64.8013C115.92 63.4728 116.997 62.3958 118.326 62.3958C119.654 62.3958 120.731 63.4728 120.731 64.8013V104.278C120.731 105.987 122.335 107.483 124.168 107.483H129.622C131.038 107.483 132.186 108.631 132.186 110.047ZM132.186 98.7817C132.186 100.047 131.16 101.073 129.895 101.073C128.63 101.073 127.604 100.047 127.604 98.7817V64.6867C127.604 63.4215 128.63 62.3958 129.895 62.3958C131.16 62.3958 132.186 63.4215 132.186 64.6867V98.7817ZM149.368 121.479C149.368 122.837 148.267 123.937 146.91 123.937H141.745C140.388 123.937 139.288 122.837 139.288 121.479C139.288 120.122 140.388 119.022 141.745 119.022H146.91C148.267 119.022 149.368 120.122 149.368 121.479ZM149.368 110.047C149.368 111.464 148.22 112.612 146.803 112.612H141.852C140.436 112.612 139.288 111.464 139.288 110.047C139.288 108.631 140.436 107.483 141.852 107.483H146.803C148.22 107.483 149.368 108.631 149.368 110.047ZM149.368 98.0726C149.368 99.7295 148.025 101.073 146.368 101.073H142.288C140.631 101.073 139.288 99.7295 139.288 98.0726V59.1905C139.288 57.4811 137.684 55.9853 135.851 55.9853H130.29C128.933 55.9853 127.833 54.8851 127.833 53.5279C127.833 52.1707 128.933 51.0705 130.29 51.0705H146.368C148.025 51.0705 149.368 52.4137 149.368 54.0705V98.0726ZM149.368 44.66H124.168C122.335 44.66 120.731 46.1558 120.731 47.8653V53.5798C120.731 54.9083 119.654 55.9853 118.326 55.9853C116.997 55.9853 115.92 54.9083 115.92 53.5798V42.9589C115.92 41.3021 117.263 39.9589 118.92 39.9589H146.788C148.086 39.9589 149.139 41.0113 149.139 42.3095V44.4309C149.139 44.5574 149.241 44.66 149.368 44.66ZM149.368 31.3047C149.368 32.5439 148.363 33.5484 147.124 33.5484H118.393C117.154 33.5484 116.149 32.5439 116.149 31.3047C116.149 30.0656 117.154 29.0611 118.393 29.0611H147.124C148.363 29.0611 149.368 30.0656 149.368 31.3047ZM149.368 20.6205C149.368 21.7417 148.459 22.6505 147.338 22.6505H118.179C117.058 22.6505 116.149 21.7417 116.149 20.6205C116.149 19.4994 117.058 18.5905 118.179 18.5905H147.338C148.459 18.5905 149.368 19.4994 149.368 20.6205ZM161.968 121.479C161.968 122.837 160.868 123.937 159.51 123.937H158.698C157.341 123.937 156.24 122.837 156.24 121.479C156.24 120.122 157.341 119.022 158.698 119.022H159.51C160.868 119.022 161.968 120.122 161.968 121.479ZM161.968 110.047C161.968 111.464 160.82 112.612 159.404 112.612H158.805C157.388 112.612 156.24 111.464 156.24 110.047C156.24 108.631 157.388 107.483 158.805 107.483H159.404C160.82 107.483 161.968 108.631 161.968 110.047ZM161.968 98.209C161.968 99.7905 160.686 101.073 159.104 101.073C157.523 101.073 156.24 99.7905 156.24 98.209V53.9342C156.24 52.3526 157.523 51.0705 159.104 51.0705C160.686 51.0705 161.968 52.3526 161.968 53.9342V98.209ZM165.404 44.66H158.591C157.293 44.66 156.24 43.6076 156.24 42.3095C156.24 41.0113 157.293 39.9589 158.591 39.9589H170.422C172.079 39.9589 173.422 41.3021 173.422 42.9589V110.321C173.422 111.586 172.397 112.612 171.131 112.612C169.866 112.612 168.84 111.586 168.84 110.321V47.8653C168.84 45.9421 167.237 44.66 165.404 44.66ZM181.648 29.0611C183.305 29.0611 184.648 30.4042 184.648 32.0611V120.937C184.648 122.594 183.305 123.937 181.648 123.937H171.298C169.941 123.937 168.84 122.837 168.84 121.479C168.84 120.122 169.941 119.022 171.298 119.022H176.859C178.691 119.022 180.295 117.526 180.295 115.817V36.7537C180.295 35.0442 178.691 33.5484 176.859 33.5484H158.484C157.245 33.5484 156.24 32.5439 156.24 31.3047C156.24 30.0656 157.245 29.0611 158.484 29.0611H181.648Z" fill="#B45309"/>
<path d="M279.11 142.375C271.319 142.375 264.407 140.618 258.373 137.105C252.339 133.515 247.603 128.626 244.166 122.439C240.729 116.176 239.01 108.996 239.01 100.9C239.01 92.8033 240.729 85.6617 244.166 79.4748C247.603 73.2115 252.3 68.3231 258.258 64.8095C264.292 61.2196 271.205 59.4247 278.996 59.4247C284.495 59.4247 289.613 60.4176 294.348 62.4035C299.084 64.3131 303.209 67.0246 306.722 70.5381C310.312 73.9753 313.062 77.9471 314.971 82.4536L300.421 87.8385C299.122 85.0124 297.404 82.5682 295.265 80.5059C293.126 78.3672 290.682 76.725 287.932 75.5793C285.183 74.3572 282.204 73.7462 278.996 73.7462C274.336 73.7462 270.174 74.9301 266.507 77.2979C262.917 79.5893 260.091 82.7592 258.029 86.8074C256.043 90.8556 255.05 95.5531 255.05 100.9C255.05 106.246 256.081 110.982 258.144 115.107C260.206 119.155 263.07 122.363 266.736 124.731C270.403 127.022 274.604 128.168 279.339 128.168C282.624 128.168 285.603 127.557 288.276 126.335C291.026 125.036 293.432 123.28 295.494 121.064C297.633 118.849 299.351 116.291 300.65 113.388L315.2 118.658C313.291 123.318 310.541 127.442 306.951 131.032C303.438 134.622 299.313 137.41 294.578 139.396C289.842 141.382 284.686 142.375 279.11 142.375ZM324.665 141V60.7995H339.789V141H324.665ZM362.703 141V111.67H377.827V141H362.703ZM362.703 111.67C362.703 107.774 362.245 104.757 361.328 102.618C360.412 100.48 359.151 98.952 357.547 98.0355C355.943 97.0425 354.072 96.546 351.933 96.546C348.038 96.4696 345.021 97.6535 342.882 100.098C340.82 102.542 339.789 106.17 339.789 110.982H334.748C334.748 104.872 335.626 99.7158 337.383 95.5149C339.216 91.2375 341.736 87.9913 344.944 85.7762C348.229 83.4848 352.048 82.3391 356.402 82.3391C360.985 82.3391 364.842 83.2557 367.973 85.0888C371.181 86.922 373.626 89.7863 375.306 93.6817C376.986 97.5008 377.827 102.466 377.827 108.576V111.67H362.703ZM390.809 141V83.7139H405.933V141H390.809ZM398.371 74.4336C396.079 74.4336 394.055 73.5934 392.299 71.913C390.542 70.1562 389.663 68.0939 389.663 65.7261C389.663 63.3583 390.542 61.3342 392.299 59.6538C394.055 57.897 396.079 57.0186 398.371 57.0186C400.739 57.0186 402.763 57.897 404.443 59.6538C406.2 61.3342 407.078 63.3583 407.078 65.7261C407.078 68.0939 406.2 70.1562 404.443 71.913C402.763 73.5934 400.739 74.4336 398.371 74.4336ZM447.49 142.375C441.532 142.375 436.224 141.115 431.565 138.594C426.905 135.997 423.277 132.445 420.68 127.939C418.083 123.356 416.785 118.162 416.785 112.357C416.785 106.476 418.083 101.282 420.68 96.7752C423.277 92.2687 426.867 88.7551 431.45 86.2345C436.033 83.6376 441.303 82.3391 447.261 82.3391C452.99 82.3391 458.222 83.7521 462.957 86.5782C467.693 89.4044 471.13 93.4908 473.269 98.8375L459.062 103.879C457.993 101.664 456.312 99.9068 454.021 98.6083C451.806 97.2335 449.323 96.546 446.574 96.546C443.747 96.546 441.265 97.2335 439.126 98.6083C436.988 99.9068 435.307 101.74 434.085 104.108C432.863 106.476 432.252 109.225 432.252 112.357C432.252 115.489 432.863 118.238 434.085 120.606C435.307 122.898 437.026 124.731 439.241 126.106C441.456 127.48 443.977 128.168 446.803 128.168C449.552 128.168 452.035 127.442 454.25 125.991C456.541 124.54 458.222 122.63 459.291 120.262L473.613 125.304C471.397 130.727 467.922 134.928 463.186 137.907C458.527 140.885 453.295 142.375 447.49 142.375ZM517.024 141L516.565 129.428V112.013C516.565 108.576 516.184 105.635 515.42 103.191C514.732 100.747 513.587 98.8757 511.983 97.5772C510.455 96.2023 508.354 95.5149 505.681 95.5149C503.237 95.5149 501.022 96.0495 499.036 97.1189C497.05 98.1882 495.37 99.8304 493.995 102.045L480.704 97.4626C481.774 95.0184 483.34 92.6506 485.402 90.3591C487.464 87.9913 490.137 86.0818 493.422 84.6305C496.783 83.1029 500.869 82.3391 505.681 82.3391C511.486 82.3391 516.298 83.4466 520.117 85.6617C524.013 87.8767 526.877 91.0084 528.71 95.0566C530.62 99.0284 531.536 103.764 531.46 109.264L531.116 141H517.024ZM500.984 142.375C494.109 142.375 488.763 140.847 484.944 137.792C481.201 134.737 479.33 130.421 479.33 124.845C479.33 118.735 481.354 114.152 485.402 111.097C489.526 107.965 495.293 106.399 502.702 106.399H517.253V117.627H507.973C503.008 117.627 499.571 118.238 497.661 119.46C495.752 120.606 494.797 122.248 494.797 124.387C494.797 126.067 495.561 127.404 497.088 128.397C498.616 129.314 500.754 129.772 503.504 129.772C506.025 129.772 508.24 129.199 510.149 128.053C512.135 126.831 513.701 125.304 514.847 123.47C515.993 121.561 516.565 119.613 516.565 117.627H520.232C520.232 125.418 518.742 131.491 515.763 135.844C512.861 140.198 507.934 142.375 500.984 142.375ZM569.292 165.404C564.938 165.404 561.081 165.098 557.72 164.487C554.359 163.876 551.533 163.074 549.242 162.081C546.95 161.088 545.079 160.095 543.628 159.102L549.585 146.958C550.655 147.569 552.068 148.256 553.825 149.02C555.581 149.86 557.682 150.548 560.126 151.082C562.57 151.693 565.396 151.999 568.604 151.999C571.66 151.999 574.333 151.388 576.624 150.166C578.992 149.02 580.825 147.187 582.124 144.666C583.499 142.222 584.186 139.09 584.186 135.271V83.7139H599.31V134.813C599.31 141.229 598.088 146.729 595.643 151.311C593.199 155.971 589.724 159.484 585.217 161.852C580.787 164.22 575.479 165.404 569.292 165.404ZM566.313 139.396C561.043 139.396 556.46 138.25 552.564 135.959C548.745 133.667 545.766 130.459 543.628 126.335C541.489 122.21 540.42 117.322 540.42 111.67C540.42 105.712 541.489 100.556 543.628 96.2023C545.766 91.7722 548.745 88.3732 552.564 86.0054C556.46 83.5612 561.043 82.3391 566.313 82.3391C570.896 82.3391 574.868 83.5612 578.229 86.0054C581.589 88.3732 584.186 91.7722 586.019 96.2023C587.853 100.632 588.769 105.903 588.769 112.013C588.769 117.513 587.853 122.325 586.019 126.449C584.186 130.574 581.589 133.782 578.229 136.073C574.868 138.288 570.896 139.396 566.313 139.396ZM570.667 126.678C573.264 126.678 575.517 126.029 577.427 124.731C579.412 123.356 580.94 121.523 582.009 119.231C583.079 116.863 583.613 114.19 583.613 111.211C583.613 108.156 583.041 105.483 581.895 103.191C580.825 100.9 579.298 99.1048 577.312 97.8063C575.402 96.5078 573.149 95.8586 570.552 95.8586C567.879 95.8586 565.511 96.5078 563.449 97.8063C561.386 99.1048 559.782 100.9 558.637 103.191C557.491 105.483 556.88 108.156 556.804 111.211C556.88 114.19 557.491 116.863 558.637 119.231C559.782 121.523 561.386 123.356 563.449 124.731C565.587 126.029 567.993 126.678 570.667 126.678ZM639.248 142.375C633.443 142.375 628.249 141.115 623.666 138.594C619.16 135.997 615.608 132.445 613.011 127.939C610.49 123.432 609.23 118.238 609.23 112.357C609.23 106.476 610.49 101.282 613.011 96.7752C615.532 92.2687 619.045 88.7551 623.552 86.2345C628.058 83.6376 633.214 82.3391 639.019 82.3391C644.9 82.3391 650.094 83.6376 654.601 86.2345C659.107 88.7551 662.621 92.2687 665.141 96.7752C667.662 101.282 668.922 106.476 668.922 112.357C668.922 118.238 667.662 123.432 665.141 127.939C662.621 132.445 659.107 135.997 654.601 138.594C650.171 141.115 645.053 142.375 639.248 142.375ZM639.248 128.397C642.074 128.397 644.557 127.71 646.695 126.335C648.834 124.96 650.476 123.089 651.622 120.721C652.844 118.277 653.455 115.489 653.455 112.357C653.455 109.225 652.844 106.476 651.622 104.108C650.4 101.664 648.681 99.754 646.466 98.3792C644.327 97.0043 641.845 96.3169 639.019 96.3169C636.269 96.3169 633.787 97.0043 631.572 98.3792C629.433 99.754 627.753 101.664 626.531 104.108C625.308 106.476 624.697 109.225 624.697 112.357C624.697 115.489 625.308 118.277 626.531 120.721C627.753 123.089 629.471 124.96 631.686 126.335C633.901 127.71 636.422 128.397 639.248 128.397ZM708.373 141V60.7995H735.527C741.027 60.7995 745.839 61.6397 749.963 63.3201C754.088 65.0005 757.296 67.5593 759.587 70.9964C761.879 74.3572 763.024 78.5582 763.024 83.5994C763.024 86.731 762.222 89.6335 760.618 92.3069C759.091 94.9038 756.914 97.1571 754.088 99.0666C757.83 100.976 760.695 103.535 762.681 106.743C764.743 109.875 765.774 113.655 765.774 118.086C765.774 122.974 764.667 127.137 762.452 130.574C760.236 134.011 757.143 136.608 753.171 138.365C749.199 140.122 744.54 141 739.193 141H708.373ZM723.726 127.137H737.704C741.447 127.137 744.387 126.22 746.526 124.387C748.665 122.478 749.734 119.957 749.734 116.825C749.734 113.541 748.55 110.982 746.182 109.149C743.814 107.239 740.568 106.285 736.444 106.285H723.726V127.137ZM723.726 93.4526H735.871C739.308 93.4526 742.02 92.5742 744.005 90.8174C745.991 89.0606 746.984 86.5782 746.984 83.3702C746.984 80.1622 745.877 77.6798 743.662 75.923C741.447 74.1663 738.43 73.2879 734.611 73.2879H723.726V93.4526ZM776.35 141V60.7995H791.473V141H776.35ZM842.354 141L841.437 130.459V83.7139H856.561V141H842.354ZM803.514 113.044V83.7139H818.638V113.044H803.514ZM818.638 113.044C818.638 116.863 819.058 119.881 819.898 122.096C820.814 124.234 822.075 125.8 823.679 126.793C825.359 127.71 827.23 128.168 829.293 128.168C833.265 128.244 836.282 127.06 838.344 124.616C840.406 122.096 841.437 118.467 841.437 113.732H846.593C846.593 119.842 845.677 125.036 843.843 129.314C842.01 133.515 839.49 136.761 836.282 139.052C833.074 141.267 829.293 142.375 824.939 142.375C820.356 142.375 816.461 141.458 813.253 139.625C810.045 137.792 807.6 134.966 805.92 131.147C804.316 127.251 803.514 122.248 803.514 116.138V113.044H818.638ZM895.557 142.375C889.904 142.375 884.901 141.115 880.548 138.594C876.194 135.997 872.757 132.445 870.236 127.939C867.792 123.432 866.57 118.238 866.57 112.357C866.57 106.476 867.83 101.282 870.351 96.7752C872.948 92.2687 876.461 88.7551 880.891 86.2345C885.398 83.6376 890.554 82.3391 896.359 82.3391C901.4 82.3391 906.021 83.6757 910.222 86.3491C914.499 88.9461 917.898 92.8033 920.419 97.9209C923.016 102.962 924.314 109.111 924.314 116.367H880.891L882.266 114.992C882.266 117.818 882.954 120.301 884.329 122.439C885.78 124.502 887.613 126.106 889.828 127.251C892.119 128.321 894.564 128.855 897.161 128.855C900.292 128.855 902.851 128.206 904.837 126.908C906.823 125.533 908.35 123.776 909.42 121.637L922.939 126.908C921.335 130.116 919.235 132.904 916.638 135.271C914.117 137.563 911.1 139.32 907.587 140.542C904.073 141.764 900.063 142.375 895.557 142.375ZM883.068 106.514L881.693 105.139H909.305L908.045 106.514C908.045 103.764 907.396 101.587 906.097 99.9832C904.799 98.3028 903.195 97.0807 901.285 96.3169C899.452 95.5531 897.657 95.1712 895.9 95.1712C894.144 95.1712 892.272 95.5531 890.286 96.3169C888.3 97.0807 886.582 98.3028 885.131 99.9832C883.756 101.587 883.068 103.764 883.068 106.514ZM954.528 142.375C950.862 142.375 947.425 141.84 944.217 140.771C941.009 139.625 938.182 138.021 935.738 135.959C933.294 133.82 931.385 131.223 930.01 128.168L942.956 122.21C944.102 124.043 945.668 125.647 947.654 127.022C949.64 128.321 951.931 128.97 954.528 128.97C957.049 128.97 958.996 128.626 960.371 127.939C961.746 127.175 962.434 126.106 962.434 124.731C962.434 123.356 961.861 122.363 960.715 121.752C959.646 121.064 958.156 120.492 956.247 120.033L950.976 118.658C945.477 117.207 941.123 114.916 937.915 111.784C934.784 108.576 933.218 104.91 933.218 100.785C933.218 94.9038 935.089 90.3591 938.832 87.1511C942.651 83.9431 948.036 82.3391 954.986 82.3391C958.576 82.3391 961.899 82.8737 964.954 83.9431C968.086 85.0124 970.759 86.5019 972.974 88.4114C975.189 90.3209 976.717 92.536 977.557 95.0566L965.069 100.785C964.534 99.2576 963.236 98.0355 961.173 97.1189C959.111 96.1259 957.049 95.6294 954.986 95.6294C952.924 95.6294 951.32 96.0877 950.174 97.0043C949.105 97.8445 948.57 99.0284 948.57 100.556C948.57 101.549 949.105 102.389 950.174 103.077C951.244 103.688 952.771 104.222 954.757 104.681L962.204 106.514C965.947 107.43 968.926 108.92 971.141 110.982C973.433 112.968 975.075 115.221 976.068 117.742C977.137 120.186 977.672 122.592 977.672 124.96C977.672 128.397 976.641 131.452 974.578 134.126C972.592 136.723 969.843 138.747 966.329 140.198C962.892 141.649 958.958 142.375 954.528 142.375ZM1071.52 141L1040.81 60.7995H1056.51L1088.13 141H1071.52ZM1008.16 141L1039.78 60.7995H1055.48L1024.77 141H1008.16ZM1023.05 123.356V109.493H1073.35V123.356H1023.05ZM1116.99 142.375C1113.32 142.375 1109.88 141.84 1106.68 140.771C1103.47 139.625 1100.64 138.021 1098.2 135.959C1095.75 133.82 1093.84 131.223 1092.47 128.168L1105.42 122.21C1106.56 124.043 1108.13 125.647 1110.11 127.022C1112.1 128.321 1114.39 128.97 1116.99 128.97C1119.51 128.97 1121.46 128.626 1122.83 127.939C1124.21 127.175 1124.89 126.106 1124.89 124.731C1124.89 123.356 1124.32 122.363 1123.17 121.752C1122.11 121.064 1120.62 120.492 1118.71 120.033L1113.44 118.658C1107.94 117.207 1103.58 114.916 1100.37 111.784C1097.24 108.576 1095.68 104.91 1095.68 100.785C1095.68 94.9038 1097.55 90.3591 1101.29 87.1511C1105.11 83.9431 1110.5 82.3391 1117.45 82.3391C1121.04 82.3391 1124.36 82.8737 1127.41 83.9431C1130.55 85.0124 1133.22 86.5019 1135.43 88.4114C1137.65 90.3209 1139.18 92.536 1140.02 95.0566L1127.53 100.785C1126.99 99.2576 1125.7 98.0355 1123.63 97.1189C1121.57 96.1259 1119.51 95.6294 1117.45 95.6294C1115.38 95.6294 1113.78 96.0877 1112.63 97.0043C1111.56 97.8445 1111.03 99.0284 1111.03 100.556C1111.03 101.549 1111.56 102.389 1112.63 103.077C1113.7 103.688 1115.23 104.222 1117.22 104.681L1124.66 106.514C1128.41 107.43 1131.39 108.92 1133.6 110.982C1135.89 112.968 1137.53 115.221 1138.53 117.742C1139.6 120.186 1140.13 122.592 1140.13 124.96C1140.13 128.397 1139.1 131.452 1137.04 134.126C1135.05 136.723 1132.3 138.747 1128.79 140.198C1125.35 141.649 1121.42 142.375 1116.99 142.375ZM1170.25 142.375C1166.58 142.375 1163.14 141.84 1159.93 140.771C1156.73 139.625 1153.9 138.021 1151.46 135.959C1149.01 133.82 1147.1 131.223 1145.73 128.168L1158.67 122.21C1159.82 124.043 1161.39 125.647 1163.37 127.022C1165.36 128.321 1167.65 128.97 1170.25 128.97C1172.77 128.97 1174.71 128.626 1176.09 127.939C1177.46 127.175 1178.15 126.106 1178.15 124.731C1178.15 123.356 1177.58 122.363 1176.43 121.752C1175.36 121.064 1173.87 120.492 1171.96 120.033L1166.69 118.658C1161.19 117.207 1156.84 114.916 1153.63 111.784C1150.5 108.576 1148.94 104.91 1148.94 100.785C1148.94 94.9038 1150.81 90.3591 1154.55 87.1511C1158.37 83.9431 1163.75 82.3391 1170.7 82.3391C1174.29 82.3391 1177.62 82.8737 1180.67 83.9431C1183.8 85.0124 1186.48 86.5019 1188.69 88.4114C1190.91 90.3209 1192.43 92.536 1193.27 95.0566L1180.79 100.785C1180.25 99.2576 1178.95 98.0355 1176.89 97.1189C1174.83 96.1259 1172.77 95.6294 1170.7 95.6294C1168.64 95.6294 1167.04 96.0877 1165.89 97.0043C1164.82 97.8445 1164.29 99.0284 1164.29 100.556C1164.29 101.549 1164.82 102.389 1165.89 103.077C1166.96 103.688 1168.49 104.222 1170.48 104.681L1177.92 106.514C1181.66 107.43 1184.64 108.92 1186.86 110.982C1189.15 112.968 1190.79 115.221 1191.79 117.742C1192.85 120.186 1193.39 122.592 1193.39 124.96C1193.39 128.397 1192.36 131.452 1190.3 134.126C1188.31 136.723 1185.56 138.747 1182.05 140.198C1178.61 141.649 1174.68 142.375 1170.25 142.375ZM1228.08 142.375C1222.43 142.375 1217.43 141.115 1213.08 138.594C1208.72 135.997 1205.28 132.445 1202.76 127.939C1200.32 123.432 1199.1 118.238 1199.1 112.357C1199.1 106.476 1200.36 101.282 1202.88 96.7752C1205.48 92.2687 1208.99 88.7551 1213.42 86.2345C1217.93 83.6376 1223.08 82.3391 1228.89 82.3391C1233.93 82.3391 1238.55 83.6757 1242.75 86.3491C1247.03 88.9461 1250.43 92.8033 1252.95 97.9209C1255.54 102.962 1256.84 109.111 1256.84 116.367H1213.42L1214.79 114.992C1214.79 117.818 1215.48 120.301 1216.86 122.439C1218.31 124.502 1220.14 126.106 1222.36 127.251C1224.65 128.321 1227.09 128.855 1229.69 128.855C1232.82 128.855 1235.38 128.206 1237.36 126.908C1239.35 125.533 1240.88 123.776 1241.95 121.637L1255.47 126.908C1253.86 130.116 1251.76 132.904 1249.17 135.271C1246.64 137.563 1243.63 139.32 1240.11 140.542C1236.6 141.764 1232.59 142.375 1228.08 142.375ZM1215.6 106.514L1214.22 105.139H1241.83L1240.57 106.514C1240.57 103.764 1239.92 101.587 1238.62 99.9832C1237.33 98.3028 1235.72 97.0807 1233.81 96.3169C1231.98 95.5531 1230.18 95.1712 1228.43 95.1712C1226.67 95.1712 1224.8 95.5531 1222.81 96.3169C1220.83 97.0807 1219.11 98.3028 1217.66 99.9832C1216.28 101.587 1215.6 103.764 1215.6 106.514ZM1265.63 141V83.7139H1279.84L1280.53 91.1611C1282.28 88.2586 1284.54 86.0818 1287.28 84.6305C1290.03 83.1029 1293.09 82.3391 1296.45 82.3391C1301.11 82.3391 1305.01 83.332 1308.14 85.3179C1311.34 87.3039 1313.67 90.3591 1315.13 94.4837C1316.81 90.5883 1319.17 87.6094 1322.23 85.5471C1325.28 83.4084 1328.84 82.3391 1332.88 82.3391C1339.61 82.3391 1344.72 84.4778 1348.24 88.7551C1351.75 92.9561 1353.51 99.4485 1353.51 108.232V141H1338.38V111.67C1338.38 107.774 1337.96 104.757 1337.12 102.618C1336.28 100.48 1335.14 98.952 1333.69 98.0355C1332.24 97.0425 1330.52 96.546 1328.53 96.546C1324.86 96.4696 1322.04 97.6535 1320.05 100.098C1318.07 102.542 1317.07 106.17 1317.07 110.982V141H1301.95V111.67C1301.95 107.774 1301.53 104.757 1300.69 102.618C1299.93 100.48 1298.78 98.952 1297.25 98.0355C1295.8 97.0425 1294.08 96.546 1292.1 96.546C1288.43 96.4696 1285.6 97.6535 1283.62 100.098C1281.71 102.542 1280.75 106.17 1280.75 110.982V141H1265.63ZM1365.55 141V60.7995H1380.67V130.345L1379.87 141H1365.55ZM1397.97 142.375C1393.16 142.375 1389.07 141.153 1385.71 138.709C1382.43 136.264 1379.91 132.789 1378.15 128.282C1376.39 123.776 1375.51 118.467 1375.51 112.357C1375.51 106.17 1376.39 100.862 1378.15 96.4314C1379.91 91.9249 1382.43 88.4496 1385.71 86.0054C1389.07 83.5612 1393.16 82.3391 1397.97 82.3391C1403.24 82.3391 1407.78 83.5612 1411.6 86.0054C1415.5 88.4496 1418.52 91.9249 1420.65 96.4314C1422.79 100.862 1423.86 106.17 1423.86 112.357C1423.86 118.467 1422.79 123.776 1420.65 128.282C1418.52 132.789 1415.5 136.264 1411.6 138.709C1407.78 141.153 1403.24 142.375 1397.97 142.375ZM1394.07 128.512C1396.82 128.512 1399.23 127.824 1401.29 126.449C1403.43 125.074 1405.11 123.165 1406.33 120.721C1407.56 118.277 1408.17 115.489 1408.17 112.357C1408.17 109.225 1407.56 106.437 1406.33 103.993C1405.19 101.549 1403.55 99.6777 1401.41 98.3792C1399.34 97.0043 1396.94 96.3169 1394.19 96.3169C1391.59 96.3169 1389.26 97.0043 1387.2 98.3792C1385.14 99.754 1383.53 101.664 1382.39 104.108C1381.24 106.476 1380.67 109.225 1380.67 112.357C1380.67 115.489 1381.24 118.277 1382.39 120.721C1383.53 123.165 1385.1 125.074 1387.09 126.449C1389.15 127.824 1391.48 128.512 1394.07 128.512ZM1433.8 141V60.7995H1448.92V141H1433.8ZM1473.45 165.289C1471.39 165.289 1469.1 164.869 1466.58 164.029C1464.13 163.265 1461.95 162.349 1460.04 161.279L1465.66 149.02C1466.96 149.707 1468.14 150.242 1469.21 150.624C1470.36 151.082 1471.35 151.311 1472.19 151.311C1473.79 151.311 1475.21 150.853 1476.43 149.937C1477.65 149.096 1478.64 147.836 1479.41 146.156L1486.17 130.23L1504.38 83.7139H1521L1494.99 145.927C1493.38 149.746 1491.7 153.106 1489.95 156.009C1488.19 158.988 1486.01 161.279 1483.42 162.883C1480.9 164.487 1477.57 165.289 1473.45 165.289ZM1482.16 141L1455.92 83.7139H1472.53L1491.67 130.23L1496.59 141H1482.16Z" fill="black"/>
</g>
<defs>
<clipPath id="clip0_117_56">
<rect width="1522" height="203" fill="white"/>
</clipPath>
</defs>
</svg>
