<svg width="524" height="205" viewBox="0 0 524 205" fill="none" xmlns="http://www.w3.org/2000/svg">
<g clip-path="url(#clip0_117_51)">
<path d="M199.768 12.18H159.24C157.584 12.18 156.24 10.8369 156.24 9.18V3C156.24 1.34315 154.897 0 153.24 0H152.368C150.711 0 149.368 1.34315 149.368 3V9.18C149.368 10.8369 148.025 12.18 146.368 12.18H119.149C117.493 12.18 116.149 10.8369 116.149 9.18V1.06842C116.149 0.478349 115.671 0 115.081 0H110.345C109.755 0 109.277 0.478349 109.277 1.06842V9.77453C109.277 11.103 108.2 12.18 106.871 12.18C105.543 12.18 104.466 11.103 104.466 9.77454V3C104.466 1.34315 103.123 0 101.466 0H100.593C98.9361 0 97.593 1.34315 97.593 3V9.18C97.593 10.8369 96.2498 12.18 94.593 12.18H3C1.34315 12.18 0 13.5231 0 15.18V15.5905C0 17.2474 1.34315 18.5905 3 18.5905H94.593C96.2499 18.5905 97.593 19.9337 97.593 21.5905V52.9853C97.593 54.6421 96.2498 55.9853 94.593 55.9853H32.6047C31.823 55.9853 31.0721 55.6801 30.512 55.1348L5.09275 30.3867C3.19158 28.5357 0 29.8828 0 32.5362V33.3488C0 34.1595 0.328048 34.9356 0.909442 35.5005L27.491 61.3274C28.1783 61.9684 29.0946 62.3958 30.011 62.3958H94.593C96.2499 62.3958 97.593 63.7389 97.593 65.3958V127.142C97.593 128.852 99.1966 130.347 101.029 130.347H129.415C131.072 130.347 132.415 131.691 132.415 133.347V137.177C132.415 138.834 131.072 140.177 129.415 140.177H3C1.34314 140.177 0 141.52 0 143.177V143.587C0 145.244 1.34315 146.587 3 146.587H135.622C137.455 146.587 139.059 145.092 139.059 143.382V133.347C139.059 131.691 140.402 130.347 142.059 130.347H146.139C147.795 130.347 149.139 131.691 149.139 133.347V200C149.139 201.657 150.482 203 152.139 203H153.011C154.668 203 156.011 201.657 156.011 200V133.211C156.011 131.629 157.293 130.347 158.875 130.347C160.457 130.347 161.739 131.629 161.739 133.211V200C161.739 201.657 163.082 203 164.739 203H165.611C167.268 203 168.611 201.657 168.611 200V133.347C168.611 131.691 169.955 130.347 171.611 130.347H187.855C189.688 130.347 191.291 128.852 191.291 127.142V25.8558C191.291 24.1463 189.688 22.6505 187.855 22.6505H157.812C156.691 22.6505 155.782 21.7417 155.782 20.6205C155.782 19.4994 156.691 18.5905 157.812 18.5905H193.102C194.759 18.5905 196.102 19.9337 196.102 21.5905V200C196.102 201.657 197.445 203 199.102 203H199.975C201.632 203 202.975 201.657 202.975 200V15.3853C203.204 13.6758 201.83 12.18 199.768 12.18ZM104.466 20.6205C104.466 19.4994 105.375 18.5905 106.496 18.5905H107.247C108.368 18.5905 109.277 19.4994 109.277 20.6205C109.277 21.7417 108.368 22.6505 107.247 22.6505H106.496C105.375 22.6505 104.466 21.7417 104.466 20.6205ZM104.466 31.4665C104.466 30.138 105.543 29.0611 106.871 29.0611C108.2 29.0611 109.277 30.138 109.277 31.4665V53.5798C109.277 54.9083 108.2 55.9853 106.871 55.9853C105.543 55.9853 104.466 54.9083 104.466 53.5798V31.4665ZM132.186 123.937H107.466C105.809 123.937 104.466 122.594 104.466 120.937V64.8013C104.466 63.4728 105.543 62.3958 106.871 62.3958C108.2 62.3958 109.277 63.4728 109.277 64.8013V115.817C109.277 117.526 110.88 119.022 112.713 119.022H129.958C131.315 119.022 132.415 120.122 132.415 121.479V123.708C132.415 123.834 132.312 123.937 132.186 123.937ZM132.186 110.047C132.186 111.464 131.038 112.612 129.622 112.612H118.92C117.263 112.612 115.92 111.268 115.92 109.612V64.8013C115.92 63.4728 116.997 62.3958 118.326 62.3958C119.654 62.3958 120.731 63.4728 120.731 64.8013V104.278C120.731 105.987 122.335 107.483 124.168 107.483H129.622C131.038 107.483 132.186 108.631 132.186 110.047ZM132.186 98.7817C132.186 100.047 131.16 101.073 129.895 101.073C128.63 101.073 127.604 100.047 127.604 98.7817V64.6867C127.604 63.4215 128.63 62.3958 129.895 62.3958C131.16 62.3958 132.186 63.4215 132.186 64.6867V98.7817ZM149.368 121.479C149.368 122.837 148.267 123.937 146.91 123.937H141.745C140.388 123.937 139.288 122.837 139.288 121.479C139.288 120.122 140.388 119.022 141.745 119.022H146.91C148.267 119.022 149.368 120.122 149.368 121.479ZM149.368 110.047C149.368 111.464 148.22 112.612 146.803 112.612H141.852C140.436 112.612 139.288 111.464 139.288 110.047C139.288 108.631 140.436 107.483 141.852 107.483H146.803C148.22 107.483 149.368 108.631 149.368 110.047ZM149.368 98.0726C149.368 99.7295 148.025 101.073 146.368 101.073H142.288C140.631 101.073 139.288 99.7295 139.288 98.0726V59.1905C139.288 57.4811 137.684 55.9853 135.851 55.9853H130.29C128.933 55.9853 127.833 54.8851 127.833 53.5279C127.833 52.1707 128.933 51.0705 130.29 51.0705H146.368C148.025 51.0705 149.368 52.4137 149.368 54.0705V98.0726ZM149.368 44.66H124.168C122.335 44.66 120.731 46.1558 120.731 47.8653V53.5798C120.731 54.9083 119.654 55.9853 118.326 55.9853C116.997 55.9853 115.92 54.9083 115.92 53.5798V42.959C115.92 41.3021 117.263 39.9589 118.92 39.9589H146.788C148.086 39.9589 149.139 41.0113 149.139 42.3095V44.4309C149.139 44.5574 149.241 44.66 149.368 44.66ZM149.368 31.3047C149.368 32.5439 148.363 33.5484 147.124 33.5484H118.393C117.154 33.5484 116.149 32.5439 116.149 31.3047C116.149 30.0656 117.154 29.0611 118.393 29.0611H147.124C148.363 29.0611 149.368 30.0656 149.368 31.3047ZM149.368 20.6205C149.368 21.7417 148.459 22.6505 147.338 22.6505H118.179C117.058 22.6505 116.149 21.7417 116.149 20.6205C116.149 19.4994 117.058 18.5905 118.179 18.5905H147.338C148.459 18.5905 149.368 19.4994 149.368 20.6205ZM161.968 121.479C161.968 122.837 160.868 123.937 159.51 123.937H158.698C157.341 123.937 156.24 122.837 156.24 121.479C156.24 120.122 157.341 119.022 158.698 119.022H159.51C160.868 119.022 161.968 120.122 161.968 121.479ZM161.968 110.047C161.968 111.464 160.82 112.612 159.403 112.612H158.805C157.388 112.612 156.24 111.464 156.24 110.047C156.24 108.631 157.388 107.483 158.805 107.483H159.403C160.82 107.483 161.968 108.631 161.968 110.047ZM161.968 98.209C161.968 99.7905 160.686 101.073 159.104 101.073C157.523 101.073 156.24 99.7905 156.24 98.209V53.9342C156.24 52.3526 157.523 51.0705 159.104 51.0705C160.686 51.0705 161.968 52.3526 161.968 53.9342V98.209ZM165.404 44.66H158.591C157.293 44.66 156.24 43.6076 156.24 42.3095C156.24 41.0113 157.293 39.9589 158.591 39.9589H170.422C172.079 39.9589 173.422 41.3021 173.422 42.9589V110.321C173.422 111.586 172.397 112.612 171.131 112.612C169.866 112.612 168.84 111.586 168.84 110.321V47.8653C168.84 45.9421 167.237 44.66 165.404 44.66ZM181.648 29.0611C183.305 29.0611 184.648 30.4042 184.648 32.0611V120.937C184.648 122.594 183.305 123.937 181.648 123.937H171.298C169.941 123.937 168.84 122.837 168.84 121.479C168.84 120.122 169.941 119.022 171.298 119.022H176.859C178.691 119.022 180.295 117.526 180.295 115.817V36.7537C180.295 35.0442 178.691 33.5484 176.859 33.5484H158.484C157.245 33.5484 156.24 32.5439 156.24 31.3047C156.24 30.0656 157.245 29.0611 158.484 29.0611H181.648Z" fill="#B45309"/>
<path d="M259.723 59.7706C255.356 59.7706 251.482 58.7859 248.1 56.8167C244.718 54.8046 242.064 52.0647 240.137 48.597C238.211 45.0866 237.248 41.0624 237.248 36.5245C237.248 31.9865 238.211 27.9838 240.137 24.5161C242.064 21.0056 244.697 18.2658 248.036 16.2965C251.418 14.2844 255.292 13.2783 259.659 13.2783C262.741 13.2783 265.61 13.8349 268.264 14.9479C270.918 16.0182 273.23 17.538 275.199 19.5073C277.211 21.4337 278.752 23.6599 279.823 26.1857L271.667 29.2039C270.939 27.6199 269.976 26.2499 268.778 25.094C267.579 23.8953 266.209 22.9749 264.668 22.3328C263.127 21.6478 261.457 21.3053 259.659 21.3053C257.047 21.3053 254.714 21.9689 252.659 23.296C250.647 24.5803 249.063 26.357 247.907 28.6259C246.794 30.8949 246.238 33.5277 246.238 36.5245C246.238 39.5212 246.816 42.1755 247.972 44.4872C249.127 46.7562 250.733 48.5542 252.788 49.8814C254.843 51.1657 257.197 51.8078 259.852 51.8078C261.692 51.8078 263.362 51.4653 264.86 50.7804C266.402 50.0526 267.75 49.068 268.906 47.8264C270.105 46.5849 271.068 45.1508 271.796 43.524L279.951 46.4779C278.881 49.0894 277.34 51.4011 275.328 53.4132C273.358 55.4253 271.046 56.9879 268.392 58.101C265.738 59.2141 262.848 59.7706 259.723 59.7706ZM285.256 59V14.0489H293.732V59H285.256ZM306.576 59V42.5607H315.052V59H306.576ZM306.576 42.5607C306.576 40.3774 306.319 38.6864 305.805 37.4877C305.291 36.289 304.585 35.4328 303.686 34.9191C302.787 34.3625 301.738 34.0843 300.539 34.0843C298.356 34.0414 296.665 34.705 295.466 36.075C294.31 37.4449 293.732 39.4784 293.732 42.1755H290.907C290.907 38.7506 291.399 35.8609 292.384 33.5063C293.411 31.1089 294.824 29.2895 296.622 28.048C298.463 26.7637 300.603 26.1215 303.044 26.1215C305.612 26.1215 307.774 26.6352 309.529 27.6627C311.328 28.6901 312.697 30.2955 313.639 32.4789C314.581 34.6194 315.052 37.4021 315.052 40.8269V42.5607H306.576ZM322.329 59V26.8921H330.805V59H322.329ZM326.567 21.6906C325.282 21.6906 324.148 21.2197 323.163 20.2779C322.179 19.2932 321.686 18.1373 321.686 16.8102C321.686 15.4831 322.179 14.3486 323.163 13.4068C324.148 12.4221 325.282 11.9298 326.567 11.9298C327.894 11.9298 329.028 12.4221 329.97 13.4068C330.955 14.3486 331.447 15.4831 331.447 16.8102C331.447 18.1373 330.955 19.2932 329.97 20.2779C329.028 21.2197 327.894 21.6906 326.567 21.6906ZM354.097 59.7706C350.758 59.7706 347.783 59.0642 345.171 57.6515C342.56 56.1959 340.526 54.2052 339.071 51.6794C337.615 49.1108 336.887 46.1996 336.887 42.946C336.887 39.6496 337.615 36.7385 339.071 34.2127C340.526 31.6869 342.538 29.7176 345.107 28.3048C347.676 26.8493 350.63 26.1215 353.969 26.1215C357.18 26.1215 360.112 26.9135 362.766 28.4975C365.421 30.0815 367.347 32.3718 368.546 35.3686L360.583 38.1941C359.984 36.9526 359.042 35.9679 357.758 35.2401C356.516 34.4696 355.125 34.0843 353.584 34.0843C352 34.0843 350.608 34.4696 349.41 35.2401C348.211 35.9679 347.269 36.9954 346.584 38.3225C345.899 39.6496 345.557 41.1908 345.557 42.946C345.557 44.7013 345.899 46.2425 346.584 47.5696C347.269 48.8539 348.232 49.8814 349.474 50.6519C350.715 51.4225 352.128 51.8078 353.712 51.8078C355.253 51.8078 356.644 51.4011 357.886 50.5877C359.17 49.7743 360.112 48.7041 360.711 47.3769L368.738 50.2024C367.497 53.242 365.549 55.5966 362.895 57.2662C360.283 58.9358 357.351 59.7706 354.097 59.7706ZM393.07 59L392.813 52.5142V42.7534C392.813 40.8269 392.599 39.1787 392.171 37.8088C391.785 36.4388 391.143 35.39 390.244 34.6622C389.388 33.8916 388.211 33.5063 386.712 33.5063C385.342 33.5063 384.101 33.806 382.988 34.4053C381.875 35.0047 380.933 35.9251 380.162 37.1666L372.713 34.598C373.313 33.228 374.19 31.9009 375.346 30.6166C376.502 29.2895 378 28.2192 379.841 27.4058C381.725 26.5496 384.015 26.1215 386.712 26.1215C389.966 26.1215 392.663 26.7423 394.804 27.9838C396.987 29.2253 398.592 30.9805 399.62 33.2495C400.69 35.4756 401.204 38.1299 401.161 41.2122L400.968 59H393.07ZM384.08 59.7706C380.227 59.7706 377.23 58.9144 375.089 57.202C372.992 55.4895 371.943 53.0707 371.943 49.9456C371.943 46.5207 373.077 43.9521 375.346 42.2397C377.658 40.4844 380.89 39.6068 385.043 39.6068H393.198V45.9H387.997C385.214 45.9 383.288 46.2425 382.217 46.9274C381.147 47.5696 380.612 48.49 380.612 49.6887C380.612 50.6305 381.04 51.3797 381.896 51.9363C382.752 52.45 383.951 52.7068 385.492 52.7068C386.905 52.7068 388.147 52.3858 389.217 51.7436C390.33 51.0586 391.207 50.2024 391.85 49.175C392.492 48.1047 392.813 47.013 392.813 45.9H394.868C394.868 50.2666 394.033 53.6701 392.363 56.1103C390.737 58.5505 387.975 59.7706 384.08 59.7706ZM422.365 72.678C419.925 72.678 417.763 72.5067 415.879 72.1642C413.996 71.8218 412.412 71.3722 411.127 70.8157C409.843 70.2592 408.794 69.7026 407.981 69.1461L411.32 62.3392C411.919 62.6817 412.711 63.067 413.696 63.4951C414.681 63.966 415.858 64.3513 417.228 64.651C418.598 64.9935 420.182 65.1647 421.98 65.1647C423.692 65.1647 425.191 64.8222 426.475 64.1373C427.802 63.4951 428.83 62.4677 429.557 61.0549C430.328 59.685 430.713 57.9297 430.713 55.7892V26.8921H439.19V55.5323C439.19 59.1284 438.505 62.2108 437.135 64.7794C435.765 67.3909 433.817 69.3602 431.291 70.6873C428.808 72.0144 425.833 72.678 422.365 72.678ZM420.696 58.101C417.742 58.101 415.173 57.4588 412.99 56.1745C410.849 54.8902 409.18 53.0921 407.981 50.7804C406.782 48.4686 406.183 45.7287 406.183 42.5607C406.183 39.2215 406.782 36.3318 407.981 33.8916C409.18 31.4086 410.849 29.5035 412.99 28.1764C415.173 26.8065 417.742 26.1215 420.696 26.1215C423.264 26.1215 425.49 26.8065 427.374 28.1764C429.258 29.5035 430.713 31.4086 431.741 33.8916C432.768 36.3746 433.282 39.3286 433.282 42.7534C433.282 45.8358 432.768 48.5328 431.741 50.8446C430.713 53.1564 429.258 54.9544 427.374 56.2387C425.49 57.4802 423.264 58.101 420.696 58.101ZM423.136 50.973C424.591 50.973 425.854 50.6091 426.925 49.8814C428.038 49.1108 428.894 48.0833 429.493 46.799C430.093 45.4719 430.392 43.9735 430.392 42.3039C430.392 40.5915 430.071 39.0931 429.429 37.8088C428.83 36.5245 427.973 35.5184 426.86 34.7906C425.79 34.0629 424.527 33.699 423.072 33.699C421.573 33.699 420.246 34.0629 419.09 34.7906C417.934 35.5184 417.035 36.5245 416.393 37.8088C415.751 39.0931 415.408 40.5915 415.366 42.3039C415.408 43.9735 415.751 45.4719 416.393 46.799C417.035 48.0833 417.934 49.1108 419.09 49.8814C420.289 50.6091 421.637 50.973 423.136 50.973ZM461.574 59.7706C458.321 59.7706 455.41 59.0642 452.841 57.6515C450.315 56.1959 448.325 54.2052 446.869 51.6794C445.456 49.1536 444.75 46.2425 444.75 42.946C444.75 39.6496 445.456 36.7385 446.869 34.2127C448.282 31.6869 450.251 29.7176 452.777 28.3048C455.303 26.8493 458.192 26.1215 461.446 26.1215C464.742 26.1215 467.654 26.8493 470.179 28.3048C472.705 29.7176 474.675 31.6869 476.087 34.2127C477.5 36.7385 478.206 39.6496 478.206 42.946C478.206 46.2425 477.5 49.1536 476.087 51.6794C474.675 54.2052 472.705 56.1959 470.179 57.6515C467.696 59.0642 464.828 59.7706 461.574 59.7706ZM461.574 51.9363C463.158 51.9363 464.55 51.551 465.749 50.7804C466.947 50.0098 467.868 48.9609 468.51 47.6338C469.195 46.2639 469.537 44.7013 469.537 42.946C469.537 41.1908 469.195 39.6496 468.51 38.3225C467.825 36.9526 466.862 35.8823 465.62 35.1117C464.421 34.3411 463.03 33.9558 461.446 33.9558C459.905 33.9558 458.514 34.3411 457.272 35.1117C456.073 35.8823 455.132 36.9526 454.447 38.3225C453.762 39.6496 453.419 41.1908 453.419 42.946C453.419 44.7013 453.762 46.2639 454.447 47.6338C455.132 48.9609 456.095 50.0098 457.336 50.7804C458.578 51.551 459.991 51.9363 461.574 51.9363ZM239.88 125V80.0489H255.1C258.182 80.0489 260.879 80.5198 263.191 81.4617C265.503 82.4035 267.301 83.8377 268.585 85.7641C269.869 87.6478 270.511 90.0024 270.511 92.8279C270.511 94.5831 270.062 96.2099 269.163 97.7083C268.307 99.1638 267.087 100.427 265.503 101.497C267.6 102.567 269.206 104.001 270.319 105.799C271.475 107.555 272.053 109.674 272.053 112.157C272.053 114.897 271.432 117.23 270.19 119.156C268.949 121.083 267.215 122.538 264.989 123.523C262.763 124.508 260.151 125 257.154 125H239.88ZM248.485 117.23H256.32C258.417 117.23 260.066 116.716 261.264 115.689C262.463 114.618 263.062 113.206 263.062 111.45C263.062 109.61 262.399 108.175 261.072 107.148C259.744 106.078 257.925 105.543 255.613 105.543H248.485V117.23ZM248.485 98.3504H255.292C257.219 98.3504 258.738 97.8581 259.852 96.8735C260.965 95.8888 261.521 94.4975 261.521 92.6994C261.521 90.9014 260.9 89.5101 259.659 88.5254C258.417 87.5408 256.726 87.0484 254.586 87.0484H248.485V98.3504ZM277.98 125V80.0489H286.456V125H277.98ZM314.974 125L314.461 119.092V92.8921H322.937V125H314.974ZM293.205 109.331V92.8921H301.682V109.331H293.205ZM301.682 109.331C301.682 111.472 301.917 113.163 302.388 114.404C302.902 115.603 303.608 116.481 304.507 117.037C305.449 117.551 306.498 117.808 307.654 117.808C309.88 117.851 311.571 117.187 312.727 115.817C313.883 114.404 314.461 112.371 314.461 109.717H317.35C317.35 113.141 316.837 116.053 315.809 118.45C314.782 120.805 313.369 122.624 311.571 123.908C309.773 125.15 307.654 125.771 305.213 125.771C302.645 125.771 300.462 125.257 298.663 124.229C296.865 123.202 295.495 121.618 294.554 119.477C293.655 117.294 293.205 114.49 293.205 111.065V109.331H301.682ZM344.794 125.771C341.626 125.771 338.821 125.064 336.381 123.651C333.941 122.196 332.015 120.205 330.602 117.679C329.232 115.154 328.547 112.242 328.547 108.946C328.547 105.65 329.253 102.739 330.666 100.213C332.122 97.6869 334.091 95.7176 336.574 94.3048C339.1 92.8493 341.989 92.1215 345.243 92.1215C348.069 92.1215 350.659 92.8707 353.013 94.3691C355.411 95.8246 357.316 97.9865 358.728 100.855C360.184 103.68 360.912 107.127 360.912 111.194H336.574L337.344 110.423C337.344 112.007 337.73 113.398 338.5 114.597C339.314 115.753 340.341 116.652 341.583 117.294C342.867 117.893 344.237 118.193 345.693 118.193C347.448 118.193 348.882 117.829 349.995 117.101C351.108 116.331 351.964 115.346 352.564 114.148L360.141 117.101C359.242 118.899 358.065 120.462 356.609 121.789C355.196 123.074 353.505 124.058 351.536 124.743C349.567 125.428 347.319 125.771 344.794 125.771ZM337.794 105.671L337.023 104.9H352.499L351.793 105.671C351.793 104.13 351.429 102.91 350.701 102.011C349.974 101.069 349.075 100.384 348.004 99.9558C346.977 99.5277 345.971 99.3137 344.986 99.3137C344.002 99.3137 342.953 99.5277 341.84 99.9558C340.726 100.384 339.763 101.069 338.95 102.011C338.179 102.91 337.794 104.13 337.794 105.671ZM377.846 125.771C375.791 125.771 373.865 125.471 372.067 124.872C370.269 124.229 368.685 123.33 367.315 122.175C365.945 120.976 364.874 119.52 364.104 117.808L371.36 114.469C372.002 115.496 372.88 116.395 373.993 117.166C375.106 117.893 376.391 118.257 377.846 118.257C379.259 118.257 380.351 118.065 381.121 117.679C381.892 117.251 382.277 116.652 382.277 115.881C382.277 115.111 381.956 114.554 381.314 114.212C380.714 113.826 379.88 113.505 378.809 113.249L375.855 112.478C372.773 111.665 370.333 110.38 368.535 108.625C366.78 106.827 365.902 104.772 365.902 102.46C365.902 99.1638 366.951 96.6166 369.049 94.8186C371.189 93.0205 374.207 92.1215 378.103 92.1215C380.115 92.1215 381.977 92.4212 383.69 93.0205C385.445 93.6199 386.943 94.4547 388.185 95.5249C389.426 96.5952 390.283 97.8367 390.753 99.2495L383.754 102.46C383.454 101.604 382.726 100.919 381.571 100.405C380.415 99.8488 379.259 99.5705 378.103 99.5705C376.947 99.5705 376.048 99.8274 375.406 100.341C374.807 100.812 374.507 101.476 374.507 102.332C374.507 102.888 374.807 103.359 375.406 103.745C376.005 104.087 376.861 104.387 377.975 104.644L382.149 105.671C384.246 106.185 385.916 107.02 387.157 108.175C388.442 109.289 389.362 110.551 389.919 111.964C390.518 113.334 390.818 114.683 390.818 116.01C390.818 117.936 390.24 119.649 389.084 121.147C387.971 122.603 386.43 123.737 384.46 124.55C382.534 125.364 380.329 125.771 377.846 125.771ZM271.025 192L253.815 147.049H262.613L280.336 192H271.025ZM235.514 192L253.237 147.049H262.035L244.825 192H235.514ZM243.862 182.111V174.341H272.053V182.111H243.862ZM296.51 192.771C294.455 192.771 292.529 192.471 290.731 191.872C288.933 191.229 287.349 190.33 285.979 189.175C284.609 187.976 283.539 186.52 282.768 184.808L290.024 181.469C290.667 182.496 291.544 183.395 292.657 184.166C293.77 184.893 295.055 185.257 296.51 185.257C297.923 185.257 299.015 185.065 299.785 184.679C300.556 184.251 300.941 183.652 300.941 182.881C300.941 182.111 300.62 181.554 299.978 181.212C299.379 180.826 298.544 180.505 297.473 180.249L294.52 179.478C291.437 178.665 288.997 177.38 287.199 175.625C285.444 173.827 284.566 171.772 284.566 169.46C284.566 166.164 285.615 163.617 287.713 161.819C289.853 160.021 292.871 159.121 296.767 159.121C298.779 159.121 300.641 159.421 302.354 160.021C304.109 160.62 305.607 161.455 306.849 162.525C308.09 163.595 308.947 164.837 309.418 166.249L302.418 169.46C302.118 168.604 301.391 167.919 300.235 167.405C299.079 166.849 297.923 166.571 296.767 166.571C295.611 166.571 294.712 166.827 294.07 167.341C293.471 167.812 293.171 168.476 293.171 169.332C293.171 169.888 293.471 170.359 294.07 170.745C294.669 171.087 295.526 171.387 296.639 171.644L300.813 172.671C302.91 173.185 304.58 174.02 305.822 175.175C307.106 176.289 308.026 177.551 308.583 178.964C309.182 180.334 309.482 181.683 309.482 183.01C309.482 184.936 308.904 186.649 307.748 188.147C306.635 189.603 305.094 190.737 303.124 191.55C301.198 192.364 298.993 192.771 296.51 192.771ZM326.361 192.771C324.306 192.771 322.379 192.471 320.581 191.872C318.783 191.229 317.199 190.33 315.829 189.175C314.459 187.976 313.389 186.52 312.618 184.808L319.875 181.469C320.517 182.496 321.395 183.395 322.508 184.166C323.621 184.893 324.905 185.257 326.361 185.257C327.773 185.257 328.865 185.065 329.636 184.679C330.406 184.251 330.791 183.652 330.791 182.881C330.791 182.111 330.47 181.554 329.828 181.212C329.229 180.826 328.394 180.505 327.324 180.249L324.37 179.478C321.288 178.665 318.847 177.38 317.049 175.625C315.294 173.827 314.416 171.772 314.416 169.46C314.416 166.164 315.465 163.617 317.563 161.819C319.704 160.021 322.722 159.121 326.617 159.121C328.63 159.121 330.492 159.421 332.204 160.021C333.959 160.62 335.458 161.455 336.699 162.525C337.941 163.595 338.797 164.837 339.268 166.249L332.268 169.46C331.969 168.604 331.241 167.919 330.085 167.405C328.929 166.849 327.773 166.571 326.617 166.571C325.462 166.571 324.563 166.827 323.92 167.341C323.321 167.812 323.021 168.476 323.021 169.332C323.021 169.888 323.321 170.359 323.92 170.745C324.52 171.087 325.376 171.387 326.489 171.644L330.663 172.671C332.761 173.185 334.43 174.02 335.672 175.175C336.956 176.289 337.877 177.551 338.433 178.964C339.032 180.334 339.332 181.683 339.332 183.01C339.332 184.936 338.754 186.649 337.598 188.147C336.485 189.603 334.944 190.737 332.975 191.55C331.048 192.364 328.844 192.771 326.361 192.771ZM358.778 192.771C355.61 192.771 352.806 192.064 350.366 190.651C347.926 189.196 345.999 187.205 344.586 184.679C343.216 182.154 342.531 179.242 342.531 175.946C342.531 172.65 343.238 169.739 344.651 167.213C346.106 164.687 348.075 162.718 350.558 161.305C353.084 159.849 355.974 159.121 359.228 159.121C362.053 159.121 364.643 159.871 366.998 161.369C369.395 162.825 371.3 164.987 372.713 167.855C374.168 170.68 374.896 174.127 374.896 178.194H350.558L351.329 177.423C351.329 179.007 351.714 180.398 352.485 181.597C353.298 182.753 354.326 183.652 355.567 184.294C356.852 184.893 358.221 185.193 359.677 185.193C361.432 185.193 362.866 184.829 363.979 184.101C365.093 183.331 365.949 182.346 366.548 181.148L374.126 184.101C373.227 185.899 372.049 187.462 370.594 188.789C369.181 190.074 367.49 191.058 365.521 191.743C363.551 192.428 361.304 192.771 358.778 192.771ZM351.778 172.671L351.008 171.9H366.484L365.778 172.671C365.778 171.13 365.414 169.91 364.686 169.011C363.958 168.069 363.059 167.384 361.989 166.956C360.961 166.528 359.955 166.314 358.971 166.314C357.986 166.314 356.937 166.528 355.824 166.956C354.711 167.384 353.748 168.069 352.934 169.011C352.164 169.91 351.778 171.13 351.778 172.671ZM379.822 192V159.892H387.785L388.17 164.066C389.155 162.439 390.418 161.219 391.959 160.406C393.5 159.55 395.213 159.121 397.096 159.121C399.708 159.121 401.891 159.678 403.646 160.791C405.444 161.904 406.75 163.617 407.563 165.928C408.505 163.745 409.832 162.075 411.545 160.92C413.257 159.721 415.248 159.121 417.517 159.121C421.284 159.121 424.153 160.32 426.122 162.718C428.091 165.072 429.076 168.711 429.076 173.634V192H420.599V175.561C420.599 173.377 420.364 171.686 419.893 170.488C419.422 169.289 418.78 168.433 417.966 167.919C417.153 167.363 416.19 167.084 415.077 167.084C413.022 167.041 411.438 167.705 410.325 169.075C409.212 170.445 408.655 172.478 408.655 175.175V192H400.179V175.561C400.179 173.377 399.943 171.686 399.472 170.488C399.044 169.289 398.402 168.433 397.546 167.919C396.732 167.363 395.769 167.084 394.656 167.084C392.601 167.041 391.017 167.705 389.904 169.075C388.834 170.445 388.299 172.478 388.299 175.175V192H379.822ZM435.823 192V147.049H444.299V186.028L443.85 192H435.823ZM453.996 192.771C451.299 192.771 449.009 192.086 447.125 190.716C445.284 189.346 443.871 187.398 442.887 184.872C441.902 182.346 441.41 179.371 441.41 175.946C441.41 172.478 441.902 169.503 442.887 167.02C443.871 164.494 445.284 162.546 447.125 161.176C449.009 159.806 451.299 159.121 453.996 159.121C456.95 159.121 459.497 159.806 461.638 161.176C463.821 162.546 465.512 164.494 466.711 167.02C467.909 169.503 468.509 172.478 468.509 175.946C468.509 179.371 467.909 182.346 466.711 184.872C465.512 187.398 463.821 189.346 461.638 190.716C459.497 192.086 456.95 192.771 453.996 192.771ZM451.813 185C453.354 185 454.702 184.615 455.858 183.845C457.057 183.074 457.999 182.004 458.684 180.634C459.369 179.264 459.711 177.701 459.711 175.946C459.711 174.191 459.369 172.628 458.684 171.258C458.042 169.888 457.121 168.839 455.922 168.112C454.767 167.341 453.418 166.956 451.877 166.956C450.421 166.956 449.116 167.341 447.96 168.112C446.804 168.882 445.905 169.953 445.263 171.323C444.62 172.65 444.299 174.191 444.299 175.946C444.299 177.701 444.62 179.264 445.263 180.634C445.905 182.004 446.782 183.074 447.896 183.845C449.051 184.615 450.357 185 451.813 185ZM474.077 192V147.049H482.553V192H474.077ZM496.301 205.614C495.145 205.614 493.861 205.378 492.448 204.907C491.078 204.479 489.858 203.966 488.788 203.366L491.935 196.495C492.662 196.88 493.326 197.18 493.925 197.394C494.567 197.651 495.124 197.779 495.595 197.779C496.494 197.779 497.286 197.523 497.971 197.009C498.656 196.538 499.212 195.832 499.64 194.89L503.429 185.964L513.639 159.892H522.951L508.374 194.761C507.475 196.902 506.533 198.785 505.548 200.412C504.564 202.082 503.344 203.366 501.888 204.265C500.475 205.164 498.613 205.614 496.301 205.614ZM501.182 192L486.476 159.892H495.787L506.512 185.964L509.273 192H501.182Z" fill="black"/>
</g>
<defs>
<clipPath id="clip0_117_51">
<rect width="524" height="205" fill="white"/>
</clipPath>
</defs>
</svg>
