<svg width="1204" height="168" viewBox="0 0 1204 168" fill="none" xmlns="http://www.w3.org/2000/svg">
<g clip-path="url(#clip0_161_100)">
<g clip-path="url(#clip1_161_100)">
<mask id="mask0_161_100" style="mask-type:alpha" maskUnits="userSpaceOnUse" x="89" y="-9" width="87" height="186">
<rect x="89.3027" y="-8.8418" width="86.6526" height="185.684" fill="#D9D9D9"/>
</mask>
<g mask="url(#mask0_161_100)">
<path d="M89.5959 153.985L75.9879 100.807L22.9883 115.489L62.2008 76.9926L22.9883 38.4963L75.9879 53.1786L89.5959 0L103.383 53.1786L156.383 38.4963L117.17 76.9926L156.383 115.489L103.383 100.807L89.5959 153.985Z" fill="#41B6E6"/>
</g>
<mask id="mask1_161_100" style="mask-type:alpha" maskUnits="userSpaceOnUse" x="-8" y="5" width="87" height="186">
<rect width="86.6526" height="185.684" transform="matrix(-1 0 0 1 78.6934 5.30566)" fill="#D9D9D9"/>
</mask>
<g mask="url(#mask1_161_100)">
<path d="M78.4002 168.133L92.0082 114.954L145.008 129.636L105.795 91.1401L145.008 52.6438L92.0082 67.3261L78.4002 14.1475L64.6132 67.3261L11.6136 52.6438L50.8261 91.1401L11.6136 129.636L64.6132 114.954L78.4002 168.133Z" fill="#E4002B"/>
</g>
</g>
<path d="M212.11 124.875C204.319 124.875 197.407 123.118 191.373 119.605C185.339 116.015 180.603 111.126 177.166 104.939C173.729 98.676 172.01 91.4962 172.01 83.3998C172.01 75.3033 173.729 68.1617 177.166 61.9748C180.603 55.7115 185.3 50.8231 191.258 47.3095C197.292 43.7196 204.205 41.9247 211.996 41.9247C217.495 41.9247 222.613 42.9176 227.348 44.9035C232.084 46.8131 236.209 49.5246 239.722 53.0381C243.312 56.4753 246.062 60.4471 247.971 64.9536L233.421 70.3385C232.122 67.5124 230.404 65.0682 228.265 63.0059C226.126 60.8672 223.682 59.225 220.932 58.0793C218.183 56.8572 215.204 56.2462 211.996 56.2462C207.336 56.2462 203.174 57.4301 199.507 59.7979C195.917 62.0893 193.091 65.2592 191.029 69.3074C189.043 73.3556 188.05 78.0531 188.05 83.3998C188.05 88.7465 189.081 93.4821 191.144 97.6067C193.206 101.655 196.07 104.863 199.736 107.231C203.403 109.522 207.604 110.668 212.339 110.668C215.624 110.668 218.603 110.057 221.276 108.835C224.026 107.536 226.432 105.78 228.494 103.564C230.633 101.349 232.351 98.7906 233.65 95.8881L248.2 101.158C246.291 105.818 243.541 109.942 239.951 113.532C236.438 117.122 232.313 119.91 227.578 121.896C222.842 123.882 217.686 124.875 212.11 124.875ZM257.665 123.5V43.2995H272.789V73.5466C274.698 70.7204 277.066 68.5818 279.892 67.1305C282.718 65.6029 285.888 64.8391 289.402 64.8391C293.985 64.8391 297.842 65.7557 300.973 67.5888C304.181 69.422 306.626 72.2863 308.306 76.1817C309.986 80.0008 310.827 84.9656 310.827 91.0761V123.5H295.703V94.1695C295.703 90.2741 295.245 87.257 294.328 85.1183C293.412 82.9797 292.151 81.452 290.547 80.5355C288.943 79.5425 287.072 79.046 284.933 79.046C281.038 78.9696 278.021 80.1535 275.882 82.5978C273.82 85.042 272.789 88.6701 272.789 93.4821V123.5H257.665ZM323.809 123.5V66.2139H338.933V123.5H323.809ZM331.371 56.9336C329.079 56.9336 327.055 56.0934 325.299 54.413C323.542 52.6562 322.663 50.5939 322.663 48.2261C322.663 45.8583 323.542 43.8342 325.299 42.1538C327.055 40.397 329.079 39.5186 331.371 39.5186C333.739 39.5186 335.763 40.397 337.443 42.1538C339.2 43.8342 340.078 45.8583 340.078 48.2261C340.078 50.5939 339.2 52.6562 337.443 54.413C335.763 56.0934 333.739 56.9336 331.371 56.9336ZM380.49 124.875C374.532 124.875 369.224 123.615 364.565 121.094C359.905 118.497 356.277 114.945 353.68 110.439C351.083 105.856 349.785 100.662 349.785 94.857C349.785 88.9756 351.083 83.7817 353.68 79.2752C356.277 74.7687 359.867 71.2551 364.45 68.7345C369.033 66.1376 374.303 64.8391 380.261 64.8391C385.99 64.8391 391.222 66.2521 395.957 69.0782C400.693 71.9044 404.13 75.9908 406.269 81.3375L392.062 86.3786C390.993 84.1636 389.312 82.4068 387.021 81.1083C384.806 79.7335 382.323 79.046 379.574 79.046C376.747 79.046 374.265 79.7335 372.126 81.1083C369.988 82.4068 368.307 84.24 367.085 86.6078C365.863 88.9756 365.252 91.7253 365.252 94.857C365.252 97.9886 365.863 100.738 367.085 103.106C368.307 105.398 370.026 107.231 372.241 108.606C374.456 109.98 376.977 110.668 379.803 110.668C382.552 110.668 385.035 109.942 387.25 108.491C389.541 107.04 391.222 105.13 392.291 102.762L406.613 107.804C404.397 113.227 400.922 117.428 396.186 120.407C391.527 123.385 386.295 124.875 380.49 124.875ZM433.984 124.875C427.109 124.875 421.763 123.347 417.944 120.292C414.201 117.237 412.33 112.921 412.33 107.345C412.33 101.235 414.354 96.6519 418.402 93.5967C422.526 90.465 428.293 88.8992 435.702 88.8992H449.222C448.687 85.3857 447.58 82.7123 445.899 80.8792C444.219 78.9696 441.813 78.0149 438.681 78.0149C436.237 78.0149 434.022 78.5495 432.036 79.6189C430.05 80.6882 428.37 82.3304 426.995 84.5455L413.704 79.9626C414.774 77.5184 416.34 75.1506 418.402 72.8591C420.464 70.4913 423.137 68.5818 426.422 67.1305C429.783 65.6029 433.869 64.8391 438.681 64.8391C444.486 64.8391 449.298 65.9466 453.117 68.1617C457.013 70.3767 459.877 73.5084 461.71 77.5566C463.62 81.5284 464.536 86.2641 464.46 91.7635L464.116 123.5H450.024L449.795 116.855C448.343 119.452 446.281 121.438 443.608 122.813C441.011 124.187 437.803 124.875 433.984 124.875ZM436.504 112.272C438.948 112.272 441.163 111.699 443.149 110.553C445.135 109.408 446.701 107.918 447.847 106.085C448.993 104.252 449.565 102.342 449.565 100.356V100.127H440.973C436.008 100.127 432.571 100.738 430.661 101.96C428.752 103.106 427.797 104.748 427.797 106.887C427.797 108.567 428.561 109.904 430.088 110.897C431.616 111.814 433.754 112.272 436.504 112.272ZM502.292 147.904C497.938 147.904 494.081 147.598 490.72 146.987C487.359 146.376 484.533 145.574 482.242 144.581C479.95 143.588 478.079 142.595 476.628 141.602L482.585 129.458C483.655 130.069 485.068 130.756 486.825 131.52C488.581 132.36 490.682 133.048 493.126 133.582C495.57 134.193 498.396 134.499 501.604 134.499C504.66 134.499 507.333 133.888 509.624 132.666C511.992 131.52 513.825 129.687 515.124 127.166C516.499 124.722 517.186 121.59 517.186 117.771V112.272C515.277 115.251 512.794 117.619 509.739 119.375C506.684 121.056 503.208 121.896 499.313 121.896C494.043 121.896 489.46 120.75 485.564 118.459C481.745 116.167 478.766 112.959 476.628 108.835C474.489 104.71 473.42 99.8218 473.42 94.1695C473.42 88.2118 474.489 83.056 476.628 78.7023C478.766 74.2722 481.745 70.8732 485.564 68.5054C489.46 66.0612 494.043 64.8391 499.313 64.8391C503.208 64.8391 506.684 65.7557 509.739 67.5888C512.794 69.3456 515.277 71.8662 517.186 75.1506V66.2139H532.31V117.313C532.31 123.729 531.088 129.229 528.643 133.811C526.199 138.471 522.724 141.984 518.217 144.352C513.787 146.72 508.479 147.904 502.292 147.904ZM503.667 109.178C506.264 109.178 508.517 108.529 510.427 107.231C512.412 105.856 513.94 104.023 515.009 101.731C516.079 99.3635 516.613 96.6901 516.613 93.7112C516.613 90.656 516.041 87.9826 514.895 85.6912C513.825 83.3998 512.298 81.6048 510.312 80.3063C508.402 79.0078 506.149 78.3586 503.552 78.3586C500.879 78.3586 498.511 79.0078 496.449 80.3063C494.386 81.6048 492.782 83.3998 491.637 85.6912C490.491 87.9826 489.88 90.656 489.804 93.7112C489.88 96.6901 490.491 99.3635 491.637 101.731C492.782 104.023 494.386 105.856 496.449 107.231C498.587 108.529 500.993 109.178 503.667 109.178ZM572.248 124.875C566.443 124.875 561.249 123.615 556.666 121.094C552.16 118.497 548.608 114.945 546.011 110.439C543.49 105.932 542.23 100.738 542.23 94.857C542.23 88.9756 543.49 83.7817 546.011 79.2752C548.532 74.7687 552.045 71.2551 556.552 68.7345C561.058 66.1376 566.214 64.8391 572.019 64.8391C577.9 64.8391 583.094 66.1376 587.601 68.7345C592.107 71.2551 595.621 74.7687 598.141 79.2752C600.662 83.7817 601.922 88.9756 601.922 94.857C601.922 100.738 600.662 105.932 598.141 110.439C595.621 114.945 592.107 118.497 587.601 121.094C583.171 123.615 578.053 124.875 572.248 124.875ZM572.248 110.897C575.074 110.897 577.557 110.21 579.695 108.835C581.834 107.46 583.476 105.589 584.622 103.221C585.844 100.777 586.455 97.9886 586.455 94.857C586.455 91.7253 585.844 88.9756 584.622 86.6078C583.4 84.1636 581.681 82.254 579.466 80.8792C577.327 79.5043 574.845 78.8169 572.019 78.8169C569.269 78.8169 566.787 79.5043 564.572 80.8792C562.433 82.254 560.753 84.1636 559.531 86.6078C558.308 88.9756 557.697 91.7253 557.697 94.857C557.697 97.9886 558.308 100.777 559.531 103.221C560.753 105.589 562.471 107.46 564.686 108.835C566.901 110.21 569.422 110.897 572.248 110.897ZM614.073 123.5V43.2995H641.227C646.726 43.2995 651.538 44.1397 655.663 45.8201C659.787 47.5005 662.995 50.0593 665.287 53.4964C667.578 56.8572 668.724 61.0582 668.724 66.0994C668.724 69.231 667.922 72.1335 666.318 74.8069C664.79 77.4038 662.613 79.6571 659.787 81.5666C663.53 83.4761 666.394 86.0349 668.38 89.2429C670.443 92.3746 671.474 96.1555 671.474 100.586C671.474 105.474 670.366 109.637 668.151 113.074C665.936 116.511 662.843 119.108 658.871 120.865C654.899 122.622 650.24 123.5 644.893 123.5H614.073ZM629.426 109.637H643.404C647.146 109.637 650.087 108.72 652.226 106.887C654.364 104.978 655.434 102.457 655.434 99.3253C655.434 96.0409 654.25 93.4821 651.882 91.6489C649.514 89.7394 646.268 88.7846 642.143 88.7846H629.426V109.637ZM629.426 75.9526H641.57C645.008 75.9526 647.719 75.0742 649.705 73.3174C651.691 71.5606 652.684 69.0782 652.684 65.8702C652.684 62.6622 651.576 60.1798 649.361 58.423C647.146 56.6663 644.129 55.7879 640.31 55.7879H629.426V75.9526ZM682.049 123.5V43.2995H697.173V123.5H682.049ZM730.639 124.875C726.056 124.875 722.16 123.958 718.952 122.125C715.821 120.292 713.415 117.466 711.734 113.647C710.054 109.751 709.214 104.748 709.214 98.6379V66.2139H724.337V95.5444C724.337 99.3635 724.757 102.381 725.597 104.596C726.514 106.734 727.774 108.3 729.378 109.293C731.059 110.21 732.93 110.668 734.992 110.668C738.964 110.744 741.981 109.56 744.044 107.116C746.106 104.596 747.137 100.967 747.137 96.2318V66.2139H762.261V123.5H748.054L747.481 115.709C745.571 118.612 743.165 120.865 740.263 122.469C737.437 124.073 734.229 124.875 730.639 124.875ZM801.256 124.875C795.604 124.875 790.601 123.615 786.247 121.094C781.893 118.497 778.456 114.945 775.936 110.439C773.492 105.932 772.269 100.738 772.269 94.857C772.269 88.9756 773.53 83.7817 776.05 79.2752C778.647 74.7687 782.161 71.2551 786.591 68.7345C791.097 66.1376 796.253 64.8391 802.058 64.8391C807.099 64.8391 811.72 66.1757 815.921 68.8491C820.199 71.4461 823.598 75.3033 826.118 80.4209C828.715 85.4621 830.014 91.6108 830.014 98.867H788.08C788.462 102.686 790.104 105.741 793.007 108.033C795.909 110.248 799.194 111.355 802.86 111.355C805.992 111.355 808.551 110.706 810.537 109.408C812.522 108.033 814.05 106.276 815.119 104.137L828.639 109.408C827.035 112.616 824.934 115.404 822.337 117.771C819.817 120.063 816.8 121.82 813.286 123.042C809.773 124.264 805.763 124.875 801.256 124.875ZM788.882 87.6389H813.63C813.401 85.2711 812.637 83.3616 811.339 81.9103C810.04 80.4591 808.512 79.3897 806.756 78.7023C804.999 78.0149 803.28 77.6712 801.6 77.6712C799.996 77.6712 798.239 78.0149 796.33 78.7023C794.496 79.3134 792.854 80.3445 791.403 81.7957C790.028 83.247 789.188 85.1947 788.882 87.6389ZM860.228 124.875C856.561 124.875 853.124 124.34 849.916 123.271C846.708 122.125 843.882 120.521 841.438 118.459C838.994 116.32 837.084 113.723 835.709 110.668L848.656 104.71C849.802 106.543 851.367 108.147 853.353 109.522C855.339 110.821 857.631 111.47 860.228 111.47C862.748 111.47 864.696 111.126 866.071 110.439C867.446 109.675 868.133 108.606 868.133 107.231C868.133 105.856 867.56 104.863 866.415 104.252C865.345 103.564 863.856 102.992 861.946 102.533L856.676 101.158C851.176 99.7072 846.823 97.4157 843.615 94.2841C840.483 91.0761 838.917 87.4098 838.917 83.2852C838.917 77.4038 840.789 72.8591 844.531 69.6511C848.35 66.4431 853.735 64.8391 860.686 64.8391C864.276 64.8391 867.598 65.3737 870.654 66.4431C873.785 67.5124 876.459 69.0019 878.674 70.9114C880.889 72.8209 882.416 75.036 883.257 77.5566L870.768 83.2852C870.234 81.7576 868.935 80.5355 866.873 79.6189C864.811 78.6259 862.748 78.1294 860.686 78.1294C858.624 78.1294 857.02 78.5877 855.874 79.5043C854.805 80.3445 854.27 81.5284 854.27 83.056C854.27 84.049 854.805 84.8892 855.874 85.5766C856.943 86.1877 858.471 86.7224 860.457 87.1806L867.904 89.0138C871.647 89.9304 874.626 91.4198 876.841 93.4821C879.132 95.468 880.774 97.7213 881.767 100.242C882.837 102.686 883.371 105.092 883.371 107.46C883.371 110.897 882.34 113.952 880.278 116.626C878.292 119.223 875.542 121.247 872.029 122.698C868.591 124.149 864.658 124.875 860.228 124.875ZM894.35 123.5V43.2995H921.503C927.003 43.2995 931.815 44.1397 935.939 45.8201C940.064 47.5005 943.272 50.0593 945.563 53.4964C947.855 56.8572 949.001 61.0582 949.001 66.0994C949.001 69.231 948.199 72.1335 946.595 74.8069C945.067 77.4038 942.89 79.6571 940.064 81.5666C943.807 83.4761 946.671 86.0349 948.657 89.2429C950.719 92.3746 951.75 96.1555 951.75 100.586C951.75 105.474 950.643 109.637 948.428 113.074C946.213 116.511 943.119 119.108 939.147 120.865C935.175 122.622 930.516 123.5 925.17 123.5H894.35ZM909.702 109.637H923.68C927.423 109.637 930.363 108.72 932.502 106.887C934.641 104.978 935.71 102.457 935.71 99.3253C935.71 96.0409 934.526 93.4821 932.158 91.6489C929.791 89.7394 926.544 88.7846 922.42 88.7846H909.702V109.637ZM909.702 75.9526H921.847C925.284 75.9526 927.996 75.0742 929.982 73.3174C931.967 71.5606 932.96 69.0782 932.96 65.8702C932.96 62.6622 931.853 60.1798 929.638 58.423C927.423 56.6663 924.406 55.7879 920.587 55.7879H909.702V75.9526ZM980.886 124.875C974.012 124.875 968.665 123.347 964.846 120.292C961.104 117.237 959.232 112.921 959.232 107.345C959.232 101.235 961.256 96.6519 965.305 93.5967C969.429 90.465 975.196 88.8992 982.605 88.8992H996.125C995.59 85.3857 994.482 82.7123 992.802 80.8792C991.122 78.9696 988.716 78.0149 985.584 78.0149C983.14 78.0149 980.925 78.5495 978.939 79.6189C976.953 80.6882 975.272 82.3304 973.898 84.5455L960.607 79.9626C961.677 77.5184 963.242 75.1506 965.305 72.8591C967.367 70.4913 970.04 68.5818 973.325 67.1305C976.685 65.6029 980.772 64.8391 985.584 64.8391C991.389 64.8391 996.201 65.9466 1000.02 68.1617C1003.92 70.3767 1006.78 73.5084 1008.61 77.5566C1010.52 81.5284 1011.44 86.2641 1011.36 91.7635L1011.02 123.5H996.927L996.697 116.855C995.246 119.452 993.184 121.438 990.511 122.813C987.914 124.187 984.706 124.875 980.886 124.875ZM983.407 112.272C985.851 112.272 988.066 111.699 990.052 110.553C992.038 109.408 993.604 107.918 994.75 106.085C995.895 104.252 996.468 102.342 996.468 100.356V100.127H987.875C982.911 100.127 979.473 100.738 977.564 101.96C975.654 103.106 974.7 104.748 974.7 106.887C974.7 108.567 975.463 109.904 976.991 110.897C978.519 111.814 980.657 112.272 983.407 112.272ZM1023.42 123.5V66.2139H1037.62L1038.31 74.0048C1040.14 71.026 1042.47 68.7727 1045.3 67.2451C1048.2 65.6411 1051.49 64.8391 1055.15 64.8391C1059.66 64.8391 1063.52 65.7557 1066.72 67.5888C1069.93 69.422 1072.38 72.2863 1074.06 76.1817C1075.74 80.0008 1076.54 84.9656 1076.46 91.0761V123.5H1061.34V94.1695C1061.34 90.2741 1060.88 87.257 1059.96 85.1183C1059.12 82.9797 1057.9 81.452 1056.3 80.5355C1054.69 79.5425 1052.82 79.046 1050.68 79.046C1046.79 78.9696 1043.77 80.1535 1041.63 82.5978C1039.57 85.042 1038.54 88.6701 1038.54 93.4821V123.5H1023.42ZM1111.33 124.875C1106.06 124.875 1101.48 123.653 1097.59 121.209C1093.77 118.764 1090.79 115.289 1088.65 110.782C1086.51 106.276 1085.44 100.967 1085.44 94.857C1085.44 88.6701 1086.51 83.3616 1088.65 78.9314C1090.79 74.4249 1093.77 70.9496 1097.59 68.5054C1101.48 66.0612 1106.06 64.8391 1111.33 64.8391C1115.08 64.8391 1118.4 65.6411 1121.3 67.2451C1124.28 68.7727 1126.69 70.9878 1128.52 73.8903V43.2995H1143.64V123.5H1129.32L1128.86 115.48C1126.95 118.459 1124.51 120.788 1121.53 122.469C1118.55 124.073 1115.15 124.875 1111.33 124.875ZM1115.23 111.012C1117.75 111.012 1119.97 110.401 1121.87 109.178C1123.86 107.88 1125.43 106.085 1126.57 103.794C1127.72 101.502 1128.37 98.9052 1128.52 96.0027V93.7112C1128.37 90.8088 1127.72 88.25 1126.57 86.0349C1125.43 83.7435 1123.86 81.9867 1121.87 80.7646C1119.89 79.4661 1117.64 78.8169 1115.11 78.8169C1112.37 78.8169 1109.92 79.5043 1107.78 80.8792C1105.72 82.1777 1104.08 84.049 1102.86 86.4932C1101.71 88.9374 1101.14 91.7253 1101.14 94.857C1101.14 97.9886 1101.75 100.777 1102.97 103.221C1104.19 105.665 1105.83 107.574 1107.9 108.949C1110.04 110.324 1112.48 111.012 1115.23 111.012ZM1178.1 124.875C1174.43 124.875 1170.99 124.34 1167.79 123.271C1164.58 122.125 1161.75 120.521 1159.31 118.459C1156.86 116.32 1154.95 113.723 1153.58 110.668L1166.53 104.71C1167.67 106.543 1169.24 108.147 1171.22 109.522C1173.21 110.821 1175.5 111.47 1178.1 111.47C1180.62 111.47 1182.57 111.126 1183.94 110.439C1185.32 109.675 1186 108.606 1186 107.231C1186 105.856 1185.43 104.863 1184.29 104.252C1183.22 103.564 1181.73 102.992 1179.82 102.533L1174.55 101.158C1169.05 99.7072 1164.69 97.4157 1161.49 94.2841C1158.35 91.0761 1156.79 87.4098 1156.79 83.2852C1156.79 77.4038 1158.66 72.8591 1162.4 69.6511C1166.22 66.4431 1171.61 64.8391 1178.56 64.8391C1182.15 64.8391 1185.47 65.3737 1188.52 66.4431C1191.66 67.5124 1194.33 69.0019 1196.54 70.9114C1198.76 72.8209 1200.29 75.036 1201.13 77.5566L1188.64 83.2852C1188.1 81.7576 1186.81 80.5355 1184.74 79.6189C1182.68 78.6259 1180.62 78.1294 1178.56 78.1294C1176.49 78.1294 1174.89 78.5877 1173.74 79.5043C1172.68 80.3445 1172.14 81.5284 1172.14 83.056C1172.14 84.049 1172.68 84.8892 1173.74 85.5766C1174.81 86.1877 1176.34 86.7224 1178.33 87.1806L1185.77 89.0138C1189.52 89.9304 1192.5 91.4198 1194.71 93.4821C1197 95.468 1198.64 97.7213 1199.64 100.242C1200.71 102.686 1201.24 105.092 1201.24 107.46C1201.24 110.897 1200.21 113.952 1198.15 116.626C1196.16 119.223 1193.41 121.247 1189.9 122.698C1186.46 124.149 1182.53 124.875 1178.1 124.875Z" fill="black"/>
</g>
<defs>
<clipPath id="clip0_161_100">
<rect width="1204" height="168" fill="white"/>
</clipPath>
<clipPath id="clip1_161_100">
<rect width="168" height="168" fill="white"/>
</clipPath>
</defs>
</svg>
