<svg width="429" height="200" viewBox="0 0 429 200" fill="none" xmlns="http://www.w3.org/2000/svg">
<g clip-path="url(#clip0_161_95)">
<g clip-path="url(#clip1_161_95)">
<mask id="mask0_161_95" style="mask-type:alpha" maskUnits="userSpaceOnUse" x="89" y="7" width="87" height="186">
<rect x="89.3047" y="7.1582" width="86.6526" height="185.684" fill="#D9D9D9"/>
</mask>
<g mask="url(#mask0_161_95)">
<path d="M89.5978 169.985L75.9898 116.807L22.9902 131.489L62.2028 92.9926L22.9902 54.4963L75.9898 69.1786L89.5978 16L103.385 69.1786L156.384 54.4963L117.172 92.9926L156.384 131.489L103.385 116.807L89.5978 169.985Z" fill="#41B6E6"/>
</g>
<mask id="mask1_161_95" style="mask-type:alpha" maskUnits="userSpaceOnUse" x="-8" y="21" width="87" height="186">
<rect width="86.6526" height="185.684" transform="matrix(-1 0 0 1 78.6934 21.3057)" fill="#D9D9D9"/>
</mask>
<g mask="url(#mask1_161_95)">
<path d="M78.4002 184.133L92.0082 130.954L145.008 145.636L105.795 107.14L145.008 68.6438L92.0082 83.3261L78.4002 30.1475L64.6132 83.3261L11.6136 68.6438L50.8261 107.14L11.6136 145.636L64.6132 130.954L78.4002 184.133Z" fill="#E4002B"/>
</g>
</g>
<path d="M192.723 56.7706C188.356 56.7706 184.482 55.7859 181.1 53.8167C177.718 51.8046 175.064 49.0647 173.137 45.597C171.211 42.0866 170.248 38.0624 170.248 33.5245C170.248 28.9865 171.211 24.9838 173.137 21.5161C175.064 18.0056 177.697 15.2658 181.036 13.2965C184.418 11.2844 188.292 10.2783 192.659 10.2783C195.741 10.2783 198.61 10.8349 201.264 11.9479C203.918 13.0182 206.23 14.538 208.199 16.5073C210.211 18.4337 211.752 20.6599 212.823 23.1857L204.667 26.2039C203.939 24.6199 202.976 23.2499 201.778 22.094C200.579 20.8953 199.209 19.9749 197.668 19.3328C196.127 18.6478 194.457 18.3053 192.659 18.3053C190.047 18.3053 187.714 18.9689 185.659 20.296C183.647 21.5803 182.063 23.357 180.907 25.6259C179.794 27.8949 179.238 30.5277 179.238 33.5245C179.238 36.5212 179.816 39.1755 180.972 41.4872C182.127 43.7562 183.733 45.5542 185.788 46.8814C187.843 48.1657 190.197 48.8078 192.852 48.8078C194.692 48.8078 196.362 48.4653 197.86 47.7804C199.402 47.0526 200.75 46.068 201.906 44.8264C203.105 43.5849 204.068 42.1508 204.796 40.524L212.951 43.4779C211.881 46.0894 210.34 48.4011 208.328 50.4132C206.358 52.4253 204.046 53.9879 201.392 55.101C198.738 56.2141 195.848 56.7706 192.723 56.7706ZM218.256 56V11.0489H226.732V28.0019C227.803 26.4179 229.13 25.2192 230.714 24.4058C232.298 23.5496 234.074 23.1215 236.044 23.1215C238.612 23.1215 240.774 23.6352 242.529 24.6627C244.328 25.6901 245.697 27.2955 246.639 29.4789C247.581 31.6194 248.052 34.4021 248.052 37.8269V56H239.576V39.5607C239.576 37.3774 239.319 35.6864 238.805 34.4877C238.291 33.289 237.585 32.4328 236.686 31.9191C235.787 31.3625 234.738 31.0843 233.539 31.0843C231.356 31.0414 229.665 31.705 228.466 33.075C227.31 34.4449 226.732 36.4784 226.732 39.1755V56H218.256ZM255.329 56V23.8921H263.805V56H255.329ZM259.567 18.6906C258.282 18.6906 257.148 18.2197 256.163 17.2779C255.179 16.2932 254.686 15.1373 254.686 13.8102C254.686 12.4831 255.179 11.3486 256.163 10.4068C257.148 9.42212 258.282 8.9298 259.567 8.9298C260.894 8.9298 262.028 9.42212 262.97 10.4068C263.955 11.3486 264.447 12.4831 264.447 13.8102C264.447 15.1373 263.955 16.2932 262.97 17.2779C262.028 18.2197 260.894 18.6906 259.567 18.6906ZM287.097 56.7706C283.758 56.7706 280.783 56.0642 278.171 54.6515C275.56 53.1959 273.526 51.2052 272.071 48.6794C270.615 46.1108 269.887 43.1996 269.887 39.946C269.887 36.6496 270.615 33.7385 272.071 31.2127C273.526 28.6869 275.538 26.7176 278.107 25.3048C280.676 23.8493 283.63 23.1215 286.969 23.1215C290.18 23.1215 293.112 23.9135 295.766 25.4975C298.421 27.0815 300.347 29.3718 301.546 32.3686L293.583 35.1941C292.984 33.9526 292.042 32.9679 290.758 32.2401C289.516 31.4696 288.125 31.0843 286.584 31.0843C285 31.0843 283.608 31.4696 282.41 32.2401C281.211 32.9679 280.269 33.9954 279.584 35.3225C278.899 36.6496 278.557 38.1908 278.557 39.946C278.557 41.7013 278.899 43.2425 279.584 44.5696C280.269 45.8539 281.232 46.8814 282.474 47.6519C283.715 48.4225 285.128 48.8078 286.712 48.8078C288.253 48.8078 289.644 48.4011 290.886 47.5877C292.17 46.7743 293.112 45.7041 293.711 44.3769L301.738 47.2024C300.497 50.242 298.549 52.5966 295.895 54.2662C293.283 55.9358 290.351 56.7706 287.097 56.7706ZM317.08 56.7706C313.227 56.7706 310.23 55.9144 308.089 54.202C305.992 52.4895 304.943 50.0707 304.943 46.9456C304.943 43.5207 306.077 40.9521 308.346 39.2397C310.658 37.4844 313.89 36.6068 318.043 36.6068H325.62C325.321 34.6375 324.7 33.1392 323.758 32.1117C322.816 31.0415 321.468 30.5063 319.712 30.5063C318.342 30.5063 317.101 30.806 315.988 31.4053C314.875 32.0047 313.933 32.9251 313.162 34.1666L305.713 31.598C306.313 30.228 307.19 28.9009 308.346 27.6166C309.502 26.2895 311 25.2192 312.841 24.4058C314.725 23.5496 317.015 23.1215 319.712 23.1215C322.966 23.1215 325.663 23.7423 327.804 24.9838C329.987 26.2253 331.592 27.9805 332.62 30.2495C333.69 32.4756 334.204 35.1299 334.161 38.2122L333.968 56H326.07L325.941 52.2755C325.128 53.731 323.972 54.8441 322.474 55.6147C321.018 56.3853 319.22 56.7706 317.08 56.7706ZM318.492 49.7068C319.862 49.7068 321.104 49.3858 322.217 48.7436C323.33 48.1015 324.207 47.2666 324.85 46.2392C325.492 45.2117 325.813 44.1415 325.813 43.0284V42.9H320.997C318.214 42.9 316.288 43.2425 315.217 43.9274C314.147 44.5696 313.612 45.49 313.612 46.6887C313.612 47.6305 314.04 48.3797 314.896 48.9363C315.752 49.45 316.951 49.7068 318.492 49.7068ZM355.365 69.678C352.925 69.678 350.763 69.5067 348.879 69.1642C346.996 68.8218 345.412 68.3722 344.127 67.8157C342.843 67.2592 341.794 66.7026 340.981 66.1461L344.32 59.3392C344.919 59.6817 345.711 60.067 346.696 60.4951C347.681 60.966 348.858 61.3513 350.228 61.651C351.598 61.9935 353.182 62.1647 354.98 62.1647C356.692 62.1647 358.191 61.8222 359.475 61.1373C360.802 60.4951 361.83 59.4677 362.557 58.0549C363.328 56.685 363.713 54.9297 363.713 52.7892V49.7068C362.643 51.3765 361.252 52.7036 359.539 53.6882C357.827 54.6301 355.879 55.101 353.696 55.101C350.742 55.101 348.173 54.4588 345.99 53.1745C343.849 51.8902 342.18 50.0921 340.981 47.7804C339.782 45.4686 339.183 42.7287 339.183 39.5607C339.183 36.2215 339.782 33.3318 340.981 30.8916C342.18 28.4086 343.849 26.5035 345.99 25.1764C348.173 23.8065 350.742 23.1215 353.696 23.1215C355.879 23.1215 357.827 23.6352 359.539 24.6627C361.252 25.6473 362.643 27.0601 363.713 28.9009V23.8921H372.19V52.5323C372.19 56.1284 371.505 59.2108 370.135 61.7794C368.765 64.3909 366.817 66.3602 364.291 67.6873C361.808 69.0144 358.833 69.678 355.365 69.678ZM356.136 47.973C357.591 47.973 358.854 47.6091 359.925 46.8814C361.038 46.1108 361.894 45.0833 362.493 43.799C363.093 42.4719 363.392 40.9735 363.392 39.3039C363.392 37.5915 363.071 36.0931 362.429 34.8088C361.83 33.5245 360.973 32.5184 359.86 31.7906C358.79 31.0629 357.527 30.699 356.072 30.699C354.573 30.699 353.246 31.0629 352.09 31.7906C350.934 32.5184 350.035 33.5245 349.393 34.8088C348.751 36.0931 348.408 37.5915 348.366 39.3039C348.408 40.9735 348.751 42.4719 349.393 43.799C350.035 45.0833 350.934 46.1108 352.09 46.8814C353.289 47.6091 354.637 47.973 356.136 47.973ZM394.574 56.7706C391.321 56.7706 388.41 56.0642 385.841 54.6515C383.315 53.1959 381.325 51.2052 379.869 48.6794C378.456 46.1536 377.75 43.2425 377.75 39.946C377.75 36.6496 378.456 33.7385 379.869 31.2127C381.282 28.6869 383.251 26.7176 385.777 25.3048C388.303 23.8493 391.192 23.1215 394.446 23.1215C397.742 23.1215 400.654 23.8493 403.179 25.3048C405.705 26.7176 407.675 28.6869 409.087 31.2127C410.5 33.7385 411.206 36.6496 411.206 39.946C411.206 43.2425 410.5 46.1536 409.087 48.6794C407.675 51.2052 405.705 53.1959 403.179 54.6515C400.696 56.0642 397.828 56.7706 394.574 56.7706ZM394.574 48.9363C396.158 48.9363 397.55 48.551 398.749 47.7804C399.947 47.0098 400.868 45.9609 401.51 44.6338C402.195 43.2639 402.537 41.7013 402.537 39.946C402.537 38.1908 402.195 36.6496 401.51 35.3225C400.825 33.9526 399.862 32.8823 398.62 32.1117C397.421 31.3411 396.03 30.9558 394.446 30.9558C392.905 30.9558 391.514 31.3411 390.272 32.1117C389.073 32.8823 388.132 33.9526 387.447 35.3225C386.762 36.6496 386.419 38.1908 386.419 39.946C386.419 41.7013 386.762 43.2639 387.447 44.6338C388.132 45.9609 389.095 47.0098 390.336 47.7804C391.578 48.551 392.991 48.9363 394.574 48.9363ZM172.88 122V77.0489H188.1C191.182 77.0489 193.879 77.5198 196.191 78.4617C198.503 79.4035 200.301 80.8377 201.585 82.7641C202.869 84.6478 203.511 87.0024 203.511 89.8279C203.511 91.5831 203.062 93.2099 202.163 94.7083C201.307 96.1638 200.087 97.4267 198.503 98.497C200.6 99.5673 202.206 101.001 203.319 102.799C204.475 104.555 205.053 106.674 205.053 109.157C205.053 111.897 204.432 114.23 203.19 116.156C201.949 118.083 200.215 119.538 197.989 120.523C195.763 121.508 193.151 122 190.154 122H172.88ZM181.485 114.23H189.32C191.417 114.23 193.066 113.716 194.264 112.689C195.463 111.618 196.062 110.206 196.062 108.45C196.062 106.61 195.399 105.175 194.072 104.148C192.744 103.078 190.925 102.543 188.613 102.543H181.485V114.23ZM181.485 95.3504H188.292C190.219 95.3504 191.738 94.8581 192.852 93.8735C193.965 92.8888 194.521 91.4975 194.521 89.6994C194.521 87.9014 193.9 86.5101 192.659 85.5254C191.417 84.5408 189.726 84.0484 187.586 84.0484H181.485V95.3504ZM210.98 122V77.0489H219.456V122H210.98ZM238.213 122.771C235.645 122.771 233.462 122.257 231.663 121.229C229.908 120.202 228.56 118.618 227.618 116.477C226.676 114.294 226.205 111.49 226.205 108.065V89.8921H234.682V106.331C234.682 108.472 234.917 110.163 235.388 111.404C235.902 112.603 236.608 113.481 237.507 114.037C238.449 114.551 239.498 114.808 240.654 114.808C242.88 114.851 244.571 114.187 245.727 112.817C246.883 111.404 247.461 109.371 247.461 106.717V89.8921H255.937V122H247.974L247.653 117.633C246.583 119.26 245.234 120.523 243.608 121.422C242.024 122.321 240.226 122.771 238.213 122.771ZM277.794 122.771C274.626 122.771 271.821 122.064 269.381 120.651C266.941 119.196 265.015 117.205 263.602 114.679C262.232 112.154 261.547 109.242 261.547 105.946C261.547 102.65 262.253 99.7385 263.666 97.2127C265.122 94.6869 267.091 92.7176 269.574 91.3048C272.1 89.8493 274.989 89.1215 278.243 89.1215C281.069 89.1215 283.659 89.8707 286.013 91.3691C288.411 92.8246 290.316 94.9865 291.728 97.8549C293.184 100.68 293.912 104.127 293.912 108.194H270.409C270.623 110.334 271.543 112.047 273.17 113.331C274.797 114.572 276.638 115.193 278.693 115.193C280.448 115.193 281.882 114.829 282.995 114.101C284.108 113.331 284.964 112.346 285.564 111.148L293.141 114.101C292.242 115.899 291.065 117.462 289.609 118.789C288.196 120.074 286.505 121.058 284.536 121.743C282.567 122.428 280.319 122.771 277.794 122.771ZM270.858 101.9H284.729C284.6 100.573 284.172 99.5031 283.444 98.6897C282.717 97.8763 281.861 97.2769 280.876 96.8916C279.891 96.5063 278.928 96.3137 277.986 96.3137C277.087 96.3137 276.102 96.5063 275.032 96.8916C274.005 97.2341 273.084 97.812 272.271 98.6254C271.5 99.4388 271.029 100.531 270.858 101.9ZM310.846 122.771C308.791 122.771 306.865 122.471 305.067 121.872C303.269 121.229 301.685 120.33 300.315 119.175C298.945 117.976 297.874 116.52 297.104 114.808L304.36 111.469C305.002 112.496 305.88 113.395 306.993 114.166C308.106 114.893 309.391 115.257 310.846 115.257C312.259 115.257 313.351 115.065 314.121 114.679C314.892 114.251 315.277 113.652 315.277 112.881C315.277 112.111 314.956 111.554 314.314 111.212C313.714 110.826 312.88 110.505 311.809 110.249L308.855 109.478C305.773 108.665 303.333 107.38 301.535 105.625C299.78 103.827 298.902 101.772 298.902 99.4602C298.902 96.1638 299.951 93.6166 302.049 91.8186C304.189 90.0205 307.207 89.1215 311.103 89.1215C313.115 89.1215 314.977 89.4212 316.69 90.0205C318.445 90.6199 319.943 91.4547 321.185 92.5249C322.426 93.5952 323.283 94.8367 323.753 96.2495L316.754 99.4602C316.454 98.604 315.726 97.9191 314.571 97.4053C313.415 96.8488 312.259 96.5705 311.103 96.5705C309.947 96.5705 309.048 96.8274 308.406 97.3411C307.807 97.812 307.507 98.4756 307.507 99.3318C307.507 99.8884 307.807 100.359 308.406 100.745C309.005 101.087 309.861 101.387 310.975 101.644L315.149 102.671C317.246 103.185 318.916 104.02 320.157 105.175C321.442 106.289 322.362 107.551 322.919 108.964C323.518 110.334 323.818 111.683 323.818 113.01C323.818 114.936 323.24 116.649 322.084 118.147C320.971 119.603 319.43 120.737 317.46 121.55C315.534 122.364 313.329 122.771 310.846 122.771ZM172.88 189V144.049H188.1C191.182 144.049 193.879 144.52 196.191 145.462C198.503 146.404 200.301 147.838 201.585 149.764C202.869 151.648 203.511 154.002 203.511 156.828C203.511 158.583 203.062 160.21 202.163 161.708C201.307 163.164 200.087 164.427 198.503 165.497C200.6 166.567 202.206 168.001 203.319 169.799C204.475 171.555 205.053 173.674 205.053 176.157C205.053 178.897 204.432 181.23 203.19 183.156C201.949 185.083 200.215 186.538 197.989 187.523C195.763 188.508 193.151 189 190.154 189H172.88ZM181.485 181.23H189.32C191.417 181.23 193.066 180.716 194.264 179.689C195.463 178.618 196.062 177.206 196.062 175.45C196.062 173.61 195.399 172.175 194.072 171.148C192.744 170.078 190.925 169.543 188.613 169.543H181.485V181.23ZM181.485 162.35H188.292C190.219 162.35 191.738 161.858 192.852 160.873C193.965 159.889 194.521 158.497 194.521 156.699C194.521 154.901 193.9 153.51 192.659 152.525C191.417 151.541 189.726 151.048 187.586 151.048H181.485V162.35ZM221.383 189.771C217.53 189.771 214.533 188.914 212.393 187.202C210.295 185.49 209.246 183.071 209.246 179.946C209.246 176.521 210.381 173.952 212.65 172.24C214.961 170.484 218.194 169.607 222.346 169.607H229.924C229.624 167.638 229.003 166.139 228.061 165.112C227.12 164.041 225.771 163.506 224.016 163.506C222.646 163.506 221.404 163.806 220.291 164.405C219.178 165.005 218.236 165.925 217.466 167.167L210.017 164.598C210.616 163.228 211.494 161.901 212.65 160.617C213.805 159.289 215.304 158.219 217.145 157.406C219.028 156.55 221.319 156.121 224.016 156.121C227.269 156.121 229.966 156.742 232.107 157.984C234.29 159.225 235.896 160.98 236.923 163.249C237.993 165.476 238.507 168.13 238.464 171.212L238.272 189H230.373L230.245 185.275C229.431 186.731 228.275 187.844 226.777 188.615C225.321 189.385 223.523 189.771 221.383 189.771ZM222.796 182.707C224.166 182.707 225.407 182.386 226.52 181.744C227.633 181.101 228.511 180.267 229.153 179.239C229.795 178.212 230.116 177.141 230.116 176.028V175.9H225.3C222.517 175.9 220.591 176.242 219.521 176.927C218.45 177.57 217.915 178.49 217.915 179.689C217.915 180.631 218.343 181.38 219.2 181.936C220.056 182.45 221.254 182.707 222.796 182.707ZM245.22 189V156.892H253.183L253.568 161.259C254.596 159.589 255.901 158.326 257.485 157.47C259.112 156.571 260.953 156.121 263.008 156.121C265.534 156.121 267.696 156.635 269.494 157.663C271.292 158.69 272.662 160.296 273.603 162.479C274.545 164.619 274.995 167.402 274.952 170.827V189H266.475V172.561C266.475 170.377 266.219 168.686 265.705 167.488C265.234 166.289 264.549 165.433 263.65 164.919C262.751 164.363 261.702 164.084 260.503 164.084C258.32 164.041 256.629 164.705 255.43 166.075C254.274 167.445 253.697 169.478 253.697 172.175V189H245.22ZM294.497 189.771C291.543 189.771 288.974 189.086 286.791 187.716C284.65 186.346 282.981 184.398 281.782 181.872C280.583 179.346 279.984 176.371 279.984 172.946C279.984 169.478 280.583 166.503 281.782 164.02C282.981 161.494 284.65 159.546 286.791 158.176C288.974 156.806 291.543 156.121 294.497 156.121C296.594 156.121 298.457 156.571 300.083 157.47C301.753 158.326 303.102 159.568 304.129 161.195V144.049H312.606V189H304.579L304.322 184.505C303.251 186.175 301.881 187.48 300.212 188.422C298.542 189.321 296.637 189.771 294.497 189.771ZM296.68 182C298.093 182 299.334 181.658 300.404 180.973C301.518 180.245 302.395 179.239 303.037 177.955C303.68 176.671 304.043 175.215 304.129 173.588V172.304C304.043 170.677 303.68 169.243 303.037 168.001C302.395 166.717 301.518 165.732 300.404 165.047C299.291 164.32 298.029 163.956 296.616 163.956C295.075 163.956 293.705 164.341 292.506 165.112C291.35 165.839 290.43 166.888 289.745 168.258C289.103 169.628 288.781 171.191 288.781 172.946C288.781 174.701 289.124 176.264 289.809 177.634C290.494 179.004 291.414 180.074 292.57 180.845C293.769 181.615 295.139 182 296.68 182ZM331.917 189.771C329.862 189.771 327.936 189.471 326.137 188.872C324.339 188.229 322.755 187.33 321.386 186.175C320.016 184.976 318.945 183.52 318.175 181.808L325.431 178.469C326.073 179.496 326.951 180.395 328.064 181.166C329.177 181.893 330.461 182.257 331.917 182.257C333.33 182.257 334.421 182.065 335.192 181.679C335.963 181.251 336.348 180.652 336.348 179.881C336.348 179.111 336.027 178.554 335.385 178.212C334.785 177.826 333.95 177.505 332.88 177.249L329.926 176.478C326.844 175.665 324.404 174.38 322.606 172.625C320.85 170.827 319.973 168.772 319.973 166.46C319.973 163.164 321.022 160.617 323.119 158.819C325.26 157.021 328.278 156.121 332.174 156.121C334.186 156.121 336.048 156.421 337.761 157.021C339.516 157.62 341.014 158.455 342.256 159.525C343.497 160.595 344.353 161.837 344.824 163.249L337.825 166.46C337.525 165.604 336.797 164.919 335.641 164.405C334.486 163.849 333.33 163.571 332.174 163.571C331.018 163.571 330.119 163.827 329.477 164.341C328.877 164.812 328.578 165.476 328.578 166.332C328.578 166.888 328.877 167.359 329.477 167.745C330.076 168.087 330.932 168.387 332.045 168.644L336.219 169.671C338.317 170.185 339.987 171.02 341.228 172.175C342.513 173.289 343.433 174.551 343.989 175.964C344.589 177.334 344.889 178.683 344.889 180.01C344.889 181.936 344.311 183.649 343.155 185.147C342.042 186.603 340.5 187.737 338.531 188.55C336.605 189.364 334.4 189.771 331.917 189.771Z" fill="black"/>
</g>
<defs>
<clipPath id="clip0_161_95">
<rect width="429" height="200" fill="white"/>
</clipPath>
<clipPath id="clip1_161_95">
<rect width="168" height="168" fill="white" transform="translate(0 16)"/>
</clipPath>
</defs>
</svg>
