<svg width="1196" height="172" viewBox="0 0 1196 172" fill="none" xmlns="http://www.w3.org/2000/svg">
<g clip-path="url(#clip0_161_100)">
<path d="M63.648 146.32L52.704 103.552L10.08 115.36L41.616 84.4L10.08 53.44L52.704 65.248L63.648 22.48L74.736 65.248L117.36 53.44L85.824 84.4L117.36 115.36L74.736 103.552L63.648 146.32Z" fill="#E4002B"/>
<path d="M204.11 126.875C196.319 126.875 189.407 125.118 183.373 121.605C177.339 118.015 172.603 113.126 169.166 106.939C165.729 100.676 164.01 93.4962 164.01 85.3998C164.01 77.3033 165.729 70.1617 169.166 63.9748C172.603 57.7115 177.3 52.8231 183.258 49.3095C189.292 45.7196 196.205 43.9247 203.996 43.9247C209.495 43.9247 214.613 44.9176 219.348 46.9035C224.084 48.8131 228.209 51.5246 231.722 55.0381C235.312 58.4753 238.062 62.4471 239.971 66.9536L225.421 72.3385C224.122 69.5124 222.404 67.0682 220.265 65.0059C218.126 62.8672 215.682 61.225 212.932 60.0793C210.183 58.8572 207.204 58.2462 203.996 58.2462C199.336 58.2462 195.174 59.4301 191.507 61.7979C187.917 64.0893 185.091 67.2592 183.029 71.3074C181.043 75.3556 180.05 80.0531 180.05 85.3998C180.05 90.7465 181.081 95.4821 183.144 99.6067C185.206 103.655 188.07 106.863 191.736 109.231C195.403 111.522 199.604 112.668 204.339 112.668C207.624 112.668 210.603 112.057 213.276 110.835C216.026 109.536 218.432 107.78 220.494 105.564C222.633 103.349 224.351 100.791 225.65 97.8881L240.2 103.158C238.291 107.818 235.541 111.942 231.951 115.532C228.438 119.122 224.313 121.91 219.578 123.896C214.842 125.882 209.686 126.875 204.11 126.875ZM249.665 125.5V45.2995H264.789V75.5466C266.698 72.7204 269.066 70.5818 271.892 69.1305C274.718 67.6029 277.888 66.8391 281.402 66.8391C285.985 66.8391 289.842 67.7557 292.973 69.5888C296.181 71.422 298.626 74.2863 300.306 78.1817C301.986 82.0008 302.827 86.9656 302.827 93.0761V125.5H287.703V96.1695C287.703 92.2741 287.245 89.257 286.328 87.1183C285.412 84.9797 284.151 83.452 282.547 82.5355C280.943 81.5425 279.072 81.046 276.933 81.046C273.038 80.9696 270.021 82.1535 267.882 84.5978C265.82 87.042 264.789 90.6701 264.789 95.4821V125.5H249.665ZM315.809 125.5V68.2139H330.933V125.5H315.809ZM323.371 58.9336C321.079 58.9336 319.055 58.0934 317.299 56.413C315.542 54.6562 314.663 52.5939 314.663 50.2261C314.663 47.8583 315.542 45.8342 317.299 44.1538C319.055 42.397 321.079 41.5186 323.371 41.5186C325.739 41.5186 327.763 42.397 329.443 44.1538C331.2 45.8342 332.078 47.8583 332.078 50.2261C332.078 52.5939 331.2 54.6562 329.443 56.413C327.763 58.0934 325.739 58.9336 323.371 58.9336ZM372.49 126.875C366.532 126.875 361.224 125.615 356.565 123.094C351.905 120.497 348.277 116.945 345.68 112.439C343.083 107.856 341.785 102.662 341.785 96.857C341.785 90.9756 343.083 85.7817 345.68 81.2752C348.277 76.7687 351.867 73.2551 356.45 70.7345C361.033 68.1376 366.303 66.8391 372.261 66.8391C377.99 66.8391 383.222 68.2521 387.957 71.0782C392.693 73.9044 396.13 77.9908 398.269 83.3375L384.062 88.3786C382.993 86.1636 381.312 84.4068 379.021 83.1083C376.806 81.7335 374.323 81.046 371.574 81.046C368.747 81.046 366.265 81.7335 364.126 83.1083C361.988 84.4068 360.307 86.24 359.085 88.6078C357.863 90.9756 357.252 93.7253 357.252 96.857C357.252 99.9886 357.863 102.738 359.085 105.106C360.307 107.398 362.026 109.231 364.241 110.606C366.456 111.98 368.977 112.668 371.803 112.668C374.552 112.668 377.035 111.942 379.25 110.491C381.541 109.04 383.222 107.13 384.291 104.762L398.613 109.804C396.397 115.227 392.922 119.428 388.186 122.407C383.527 125.385 378.295 126.875 372.49 126.875ZM425.984 126.875C419.109 126.875 413.763 125.347 409.944 122.292C406.201 119.237 404.33 114.921 404.33 109.345C404.33 103.235 406.354 98.6519 410.402 95.5967C414.526 92.465 420.293 90.8992 427.702 90.8992H441.222C440.687 87.3857 439.58 84.7123 437.899 82.8792C436.219 80.9696 433.813 80.0149 430.681 80.0149C428.237 80.0149 426.022 80.5495 424.036 81.6189C422.05 82.6882 420.37 84.3304 418.995 86.5455L405.704 81.9626C406.774 79.5184 408.34 77.1506 410.402 74.8591C412.464 72.4913 415.137 70.5818 418.422 69.1305C421.783 67.6029 425.869 66.8391 430.681 66.8391C436.486 66.8391 441.298 67.9466 445.117 70.1617C449.013 72.3767 451.877 75.5084 453.71 79.5566C455.62 83.5284 456.536 88.2641 456.46 93.7635L456.116 125.5H442.024L441.795 118.855C440.343 121.452 438.281 123.438 435.608 124.813C433.011 126.187 429.803 126.875 425.984 126.875ZM428.504 114.272C430.948 114.272 433.163 113.699 435.149 112.553C437.135 111.408 438.701 109.918 439.847 108.085C440.993 106.252 441.565 104.342 441.565 102.356V102.127H432.973C428.008 102.127 424.571 102.738 422.661 103.96C420.752 105.106 419.797 106.748 419.797 108.887C419.797 110.567 420.561 111.904 422.088 112.897C423.616 113.814 425.754 114.272 428.504 114.272ZM494.292 149.904C489.938 149.904 486.081 149.598 482.72 148.987C479.359 148.376 476.533 147.574 474.242 146.581C471.95 145.588 470.079 144.595 468.628 143.602L474.585 131.458C475.655 132.069 477.068 132.756 478.825 133.52C480.581 134.36 482.682 135.048 485.126 135.582C487.57 136.193 490.396 136.499 493.604 136.499C496.66 136.499 499.333 135.888 501.624 134.666C503.992 133.52 505.825 131.687 507.124 129.166C508.499 126.722 509.186 123.59 509.186 119.771V114.272C507.277 117.251 504.794 119.619 501.739 121.375C498.684 123.056 495.208 123.896 491.313 123.896C486.043 123.896 481.46 122.75 477.564 120.459C473.745 118.167 470.766 114.959 468.628 110.835C466.489 106.71 465.42 101.822 465.42 96.1695C465.42 90.2118 466.489 85.056 468.628 80.7023C470.766 76.2722 473.745 72.8732 477.564 70.5054C481.46 68.0612 486.043 66.8391 491.313 66.8391C495.208 66.8391 498.684 67.7557 501.739 69.5888C504.794 71.3456 507.277 73.8662 509.186 77.1506V68.2139H524.31V119.313C524.31 125.729 523.088 131.229 520.643 135.811C518.199 140.471 514.724 143.984 510.217 146.352C505.787 148.72 500.479 149.904 494.292 149.904ZM495.667 111.178C498.264 111.178 500.517 110.529 502.427 109.231C504.412 107.856 505.94 106.023 507.009 103.731C508.079 101.363 508.613 98.6901 508.613 95.7112C508.613 92.656 508.041 89.9826 506.895 87.6912C505.825 85.3998 504.298 83.6048 502.312 82.3063C500.402 81.0078 498.149 80.3586 495.552 80.3586C492.879 80.3586 490.511 81.0078 488.449 82.3063C486.386 83.6048 484.782 85.3998 483.637 87.6912C482.491 89.9826 481.88 92.656 481.804 95.7112C481.88 98.6901 482.491 101.363 483.637 103.731C484.782 106.023 486.386 107.856 488.449 109.231C490.587 110.529 492.993 111.178 495.667 111.178ZM564.248 126.875C558.443 126.875 553.249 125.615 548.666 123.094C544.16 120.497 540.608 116.945 538.011 112.439C535.49 107.932 534.23 102.738 534.23 96.857C534.23 90.9756 535.49 85.7817 538.011 81.2752C540.532 76.7687 544.045 73.2551 548.552 70.7345C553.058 68.1376 558.214 66.8391 564.019 66.8391C569.9 66.8391 575.094 68.1376 579.601 70.7345C584.107 73.2551 587.621 76.7687 590.141 81.2752C592.662 85.7817 593.922 90.9756 593.922 96.857C593.922 102.738 592.662 107.932 590.141 112.439C587.621 116.945 584.107 120.497 579.601 123.094C575.171 125.615 570.053 126.875 564.248 126.875ZM564.248 112.897C567.074 112.897 569.557 112.21 571.695 110.835C573.834 109.46 575.476 107.589 576.622 105.221C577.844 102.777 578.455 99.9886 578.455 96.857C578.455 93.7253 577.844 90.9756 576.622 88.6078C575.4 86.1636 573.681 84.254 571.466 82.8792C569.327 81.5043 566.845 80.8169 564.019 80.8169C561.269 80.8169 558.787 81.5043 556.572 82.8792C554.433 84.254 552.753 86.1636 551.531 88.6078C550.308 90.9756 549.697 93.7253 549.697 96.857C549.697 99.9886 550.308 102.777 551.531 105.221C552.753 107.589 554.471 109.46 556.686 110.835C558.901 112.21 561.422 112.897 564.248 112.897ZM606.073 125.5V45.2995H633.227C638.726 45.2995 643.538 46.1397 647.663 47.8201C651.787 49.5005 654.995 52.0593 657.287 55.4964C659.578 58.8572 660.724 63.0582 660.724 68.0994C660.724 71.231 659.922 74.1335 658.318 76.8069C656.79 79.4038 654.613 81.6571 651.787 83.5666C655.53 85.4761 658.394 88.0349 660.38 91.2429C662.443 94.3746 663.474 98.1555 663.474 102.586C663.474 107.474 662.366 111.637 660.151 115.074C657.936 118.511 654.843 121.108 650.871 122.865C646.899 124.622 642.24 125.5 636.893 125.5H606.073ZM621.426 111.637H635.404C639.146 111.637 642.087 110.72 644.226 108.887C646.364 106.978 647.434 104.457 647.434 101.325C647.434 98.0409 646.25 95.4821 643.882 93.6489C641.514 91.7394 638.268 90.7846 634.143 90.7846H621.426V111.637ZM621.426 77.9526H633.57C637.008 77.9526 639.719 77.0742 641.705 75.3174C643.691 73.5606 644.684 71.0782 644.684 67.8702C644.684 64.6622 643.576 62.1798 641.361 60.423C639.146 58.6663 636.129 57.7879 632.31 57.7879H621.426V77.9526ZM674.049 125.5V45.2995H689.173V125.5H674.049ZM722.639 126.875C718.056 126.875 714.16 125.958 710.952 124.125C707.821 122.292 705.415 119.466 703.734 115.647C702.054 111.751 701.214 106.748 701.214 100.638V68.2139H716.337V97.5444C716.337 101.363 716.757 104.381 717.597 106.596C718.514 108.734 719.774 110.3 721.378 111.293C723.059 112.21 724.93 112.668 726.992 112.668C730.964 112.744 733.981 111.56 736.044 109.116C738.106 106.596 739.137 102.967 739.137 98.2318V68.2139H754.261V125.5H740.054L739.481 117.709C737.571 120.612 735.165 122.865 732.263 124.469C729.437 126.073 726.229 126.875 722.639 126.875ZM793.256 126.875C787.604 126.875 782.601 125.615 778.247 123.094C773.893 120.497 770.456 116.945 767.936 112.439C765.492 107.932 764.269 102.738 764.269 96.857C764.269 90.9756 765.53 85.7817 768.05 81.2752C770.647 76.7687 774.161 73.2551 778.591 70.7345C783.097 68.1376 788.253 66.8391 794.058 66.8391C799.099 66.8391 803.72 68.1757 807.921 70.8491C812.199 73.4461 815.598 77.3033 818.118 82.4209C820.715 87.4621 822.014 93.6108 822.014 100.867H780.08C780.462 104.686 782.104 107.741 785.007 110.033C787.909 112.248 791.194 113.355 794.86 113.355C797.992 113.355 800.551 112.706 802.537 111.408C804.522 110.033 806.05 108.276 807.119 106.137L820.639 111.408C819.035 114.616 816.934 117.404 814.337 119.771C811.817 122.063 808.8 123.82 805.286 125.042C801.773 126.264 797.763 126.875 793.256 126.875ZM780.882 89.6389H805.63C805.401 87.2711 804.637 85.3616 803.339 83.9103C802.04 82.4591 800.512 81.3897 798.756 80.7023C796.999 80.0149 795.28 79.6712 793.6 79.6712C791.996 79.6712 790.239 80.0149 788.33 80.7023C786.496 81.3134 784.854 82.3445 783.403 83.7957C782.028 85.247 781.188 87.1947 780.882 89.6389ZM852.228 126.875C848.561 126.875 845.124 126.34 841.916 125.271C838.708 124.125 835.882 122.521 833.438 120.459C830.994 118.32 829.084 115.723 827.709 112.668L840.656 106.71C841.802 108.543 843.367 110.147 845.353 111.522C847.339 112.821 849.631 113.47 852.228 113.47C854.748 113.47 856.696 113.126 858.071 112.439C859.446 111.675 860.133 110.606 860.133 109.231C860.133 107.856 859.56 106.863 858.415 106.252C857.345 105.564 855.856 104.992 853.946 104.533L848.676 103.158C843.176 101.707 838.823 99.4157 835.615 96.2841C832.483 93.0761 830.917 89.4098 830.917 85.2852C830.917 79.4038 832.789 74.8591 836.531 71.6511C840.35 68.4431 845.735 66.8391 852.686 66.8391C856.276 66.8391 859.598 67.3737 862.654 68.4431C865.785 69.5124 868.459 71.0019 870.674 72.9114C872.889 74.8209 874.416 77.036 875.257 79.5566L862.768 85.2852C862.234 83.7576 860.935 82.5355 858.873 81.6189C856.811 80.6259 854.748 80.1294 852.686 80.1294C850.624 80.1294 849.02 80.5877 847.874 81.5043C846.805 82.3445 846.27 83.5284 846.27 85.056C846.27 86.049 846.805 86.8892 847.874 87.5766C848.943 88.1877 850.471 88.7224 852.457 89.1806L859.904 91.0138C863.647 91.9304 866.626 93.4198 868.841 95.4821C871.132 97.468 872.774 99.7213 873.767 102.242C874.837 104.686 875.371 107.092 875.371 109.46C875.371 112.897 874.34 115.952 872.278 118.626C870.292 121.223 867.542 123.247 864.029 124.698C860.591 126.149 856.658 126.875 852.228 126.875ZM886.35 125.5V45.2995H913.503C919.003 45.2995 923.815 46.1397 927.939 47.8201C932.064 49.5005 935.272 52.0593 937.563 55.4964C939.855 58.8572 941.001 63.0582 941.001 68.0994C941.001 71.231 940.199 74.1335 938.595 76.8069C937.067 79.4038 934.89 81.6571 932.064 83.5666C935.807 85.4761 938.671 88.0349 940.657 91.2429C942.719 94.3746 943.75 98.1555 943.75 102.586C943.75 107.474 942.643 111.637 940.428 115.074C938.213 118.511 935.119 121.108 931.147 122.865C927.175 124.622 922.516 125.5 917.17 125.5H886.35ZM901.702 111.637H915.68C919.423 111.637 922.363 110.72 924.502 108.887C926.641 106.978 927.71 104.457 927.71 101.325C927.71 98.0409 926.526 95.4821 924.158 93.6489C921.791 91.7394 918.544 90.7846 914.42 90.7846H901.702V111.637ZM901.702 77.9526H913.847C917.284 77.9526 919.996 77.0742 921.982 75.3174C923.967 73.5606 924.96 71.0782 924.96 67.8702C924.96 64.6622 923.853 62.1798 921.638 60.423C919.423 58.6663 916.406 57.7879 912.587 57.7879H901.702V77.9526ZM972.886 126.875C966.012 126.875 960.665 125.347 956.846 122.292C953.104 119.237 951.232 114.921 951.232 109.345C951.232 103.235 953.256 98.6519 957.305 95.5967C961.429 92.465 967.196 90.8992 974.605 90.8992H988.125C987.59 87.3857 986.482 84.7123 984.802 82.8792C983.122 80.9696 980.716 80.0149 977.584 80.0149C975.14 80.0149 972.925 80.5495 970.939 81.6189C968.953 82.6882 967.272 84.3304 965.898 86.5455L952.607 81.9626C953.677 79.5184 955.242 77.1506 957.305 74.8591C959.367 72.4913 962.04 70.5818 965.325 69.1305C968.685 67.6029 972.772 66.8391 977.584 66.8391C983.389 66.8391 988.201 67.9466 992.02 70.1617C995.915 72.3767 998.78 75.5084 1000.61 79.5566C1002.52 83.5284 1003.44 88.2641 1003.36 93.7635L1003.02 125.5H988.927L988.697 118.855C987.246 121.452 985.184 123.438 982.511 124.813C979.914 126.187 976.706 126.875 972.886 126.875ZM975.407 114.272C977.851 114.272 980.066 113.699 982.052 112.553C984.038 111.408 985.604 109.918 986.75 108.085C987.895 106.252 988.468 104.342 988.468 102.356V102.127H979.875C974.911 102.127 971.473 102.738 969.564 103.96C967.654 105.106 966.7 106.748 966.7 108.887C966.7 110.567 967.463 111.904 968.991 112.897C970.519 113.814 972.657 114.272 975.407 114.272ZM1015.42 125.5V68.2139H1029.62L1030.31 76.0048C1032.14 73.026 1034.47 70.7727 1037.3 69.2451C1040.2 67.6411 1043.49 66.8391 1047.15 66.8391C1051.66 66.8391 1055.52 67.7557 1058.72 69.5888C1061.93 71.422 1064.38 74.2863 1066.06 78.1817C1067.74 82.0008 1068.54 86.9656 1068.46 93.0761V125.5H1053.34V96.1695C1053.34 92.2741 1052.88 89.257 1051.96 87.1183C1051.12 84.9797 1049.9 83.452 1048.3 82.5355C1046.69 81.5425 1044.82 81.046 1042.68 81.046C1038.79 80.9696 1035.77 82.1535 1033.63 84.5978C1031.57 87.042 1030.54 90.6701 1030.54 95.4821V125.5H1015.42ZM1103.33 126.875C1098.06 126.875 1093.48 125.653 1089.59 123.209C1085.77 120.764 1082.79 117.289 1080.65 112.782C1078.51 108.276 1077.44 102.967 1077.44 96.857C1077.44 90.6701 1078.51 85.3616 1080.65 80.9314C1082.79 76.4249 1085.77 72.9496 1089.59 70.5054C1093.48 68.0612 1098.06 66.8391 1103.33 66.8391C1107.08 66.8391 1110.4 67.6411 1113.3 69.2451C1116.28 70.7727 1118.69 72.9878 1120.52 75.8903V45.2995H1135.64V125.5H1121.32L1120.86 117.48C1118.95 120.459 1116.51 122.788 1113.53 124.469C1110.55 126.073 1107.15 126.875 1103.33 126.875ZM1107.23 113.012C1109.75 113.012 1111.97 112.401 1113.87 111.178C1115.86 109.88 1117.43 108.085 1118.57 105.794C1119.72 103.502 1120.37 100.905 1120.52 98.0027V95.7112C1120.37 92.8088 1119.72 90.25 1118.57 88.0349C1117.43 85.7435 1115.86 83.9867 1113.87 82.7646C1111.89 81.4661 1109.64 80.8169 1107.11 80.8169C1104.37 80.8169 1101.92 81.5043 1099.78 82.8792C1097.72 84.1777 1096.08 86.049 1094.86 88.4932C1093.71 90.9374 1093.14 93.7253 1093.14 96.857C1093.14 99.9886 1093.75 102.777 1094.97 105.221C1096.19 107.665 1097.83 109.574 1099.9 110.949C1102.04 112.324 1104.48 113.012 1107.23 113.012ZM1170.1 126.875C1166.43 126.875 1162.99 126.34 1159.79 125.271C1156.58 124.125 1153.75 122.521 1151.31 120.459C1148.86 118.32 1146.95 115.723 1145.58 112.668L1158.53 106.71C1159.67 108.543 1161.24 110.147 1163.22 111.522C1165.21 112.821 1167.5 113.47 1170.1 113.47C1172.62 113.47 1174.57 113.126 1175.94 112.439C1177.32 111.675 1178 110.606 1178 109.231C1178 107.856 1177.43 106.863 1176.29 106.252C1175.22 105.564 1173.73 104.992 1171.82 104.533L1166.55 103.158C1161.05 101.707 1156.69 99.4157 1153.49 96.2841C1150.35 93.0761 1148.79 89.4098 1148.79 85.2852C1148.79 79.4038 1150.66 74.8591 1154.4 71.6511C1158.22 68.4431 1163.61 66.8391 1170.56 66.8391C1174.15 66.8391 1177.47 67.3737 1180.52 68.4431C1183.66 69.5124 1186.33 71.0019 1188.54 72.9114C1190.76 74.8209 1192.29 77.036 1193.13 79.5566L1180.64 85.2852C1180.1 83.7576 1178.81 82.5355 1176.74 81.6189C1174.68 80.6259 1172.62 80.1294 1170.56 80.1294C1168.49 80.1294 1166.89 80.5877 1165.74 81.5043C1164.68 82.3445 1164.14 83.5284 1164.14 85.056C1164.14 86.049 1164.68 86.8892 1165.74 87.5766C1166.81 88.1877 1168.34 88.7224 1170.33 89.1806L1177.77 91.0138C1181.52 91.9304 1184.5 93.4198 1186.71 95.4821C1189 97.468 1190.64 99.7213 1191.64 102.242C1192.71 104.686 1193.24 107.092 1193.24 109.46C1193.24 112.897 1192.21 115.952 1190.15 118.626C1188.16 121.223 1185.41 123.247 1181.9 124.698C1178.46 126.149 1174.53 126.875 1170.1 126.875Z" fill="black"/>
</g>
<defs>
<clipPath id="clip0_161_100">
<rect width="1196" height="172" fill="white"/>
</clipPath>
</defs>
</svg>
