<svg width="421" height="200" viewBox="0 0 421 200" fill="none" xmlns="http://www.w3.org/2000/svg">
<g clip-path="url(#clip0_161_95)">
<path d="M63.648 160.32L52.704 117.552L10.08 129.36L41.616 98.4L10.08 67.44L52.704 79.248L63.648 36.48L74.736 79.248L117.36 67.44L85.824 98.4L117.36 129.36L74.736 117.552L63.648 160.32Z" fill="#E4002B"/>
<path d="M184.723 56.7706C180.356 56.7706 176.482 55.7859 173.1 53.8167C169.718 51.8046 167.064 49.0647 165.137 45.597C163.211 42.0866 162.248 38.0624 162.248 33.5245C162.248 28.9865 163.211 24.9838 165.137 21.5161C167.064 18.0056 169.697 15.2658 173.036 13.2965C176.418 11.2844 180.292 10.2783 184.659 10.2783C187.741 10.2783 190.61 10.8349 193.264 11.9479C195.918 13.0182 198.23 14.538 200.199 16.5073C202.211 18.4337 203.752 20.6599 204.823 23.1857L196.667 26.2039C195.939 24.6199 194.976 23.2499 193.778 22.094C192.579 20.8953 191.209 19.9749 189.668 19.3328C188.127 18.6478 186.457 18.3053 184.659 18.3053C182.047 18.3053 179.714 18.9689 177.659 20.296C175.647 21.5803 174.063 23.357 172.907 25.6259C171.794 27.8949 171.238 30.5277 171.238 33.5245C171.238 36.5212 171.816 39.1755 172.972 41.4872C174.127 43.7562 175.733 45.5542 177.788 46.8814C179.843 48.1657 182.197 48.8078 184.852 48.8078C186.692 48.8078 188.362 48.4653 189.86 47.7804C191.402 47.0526 192.75 46.068 193.906 44.8264C195.105 43.5849 196.068 42.1508 196.796 40.524L204.951 43.4779C203.881 46.0894 202.34 48.4011 200.328 50.4132C198.358 52.4253 196.046 53.9879 193.392 55.101C190.738 56.2141 187.848 56.7706 184.723 56.7706ZM210.256 56V11.0489H218.732V28.0019C219.803 26.4179 221.13 25.2192 222.714 24.4058C224.298 23.5496 226.074 23.1215 228.044 23.1215C230.612 23.1215 232.774 23.6352 234.529 24.6627C236.328 25.6901 237.697 27.2955 238.639 29.4789C239.581 31.6194 240.052 34.4021 240.052 37.8269V56H231.576V39.5607C231.576 37.3774 231.319 35.6864 230.805 34.4877C230.291 33.289 229.585 32.4328 228.686 31.9191C227.787 31.3625 226.738 31.0843 225.539 31.0843C223.356 31.0414 221.665 31.705 220.466 33.075C219.31 34.4449 218.732 36.4784 218.732 39.1755V56H210.256ZM247.329 56V23.8921H255.805V56H247.329ZM251.567 18.6906C250.282 18.6906 249.148 18.2197 248.163 17.2779C247.179 16.2932 246.686 15.1373 246.686 13.8102C246.686 12.4831 247.179 11.3486 248.163 10.4068C249.148 9.42212 250.282 8.9298 251.567 8.9298C252.894 8.9298 254.028 9.42212 254.97 10.4068C255.955 11.3486 256.447 12.4831 256.447 13.8102C256.447 15.1373 255.955 16.2932 254.97 17.2779C254.028 18.2197 252.894 18.6906 251.567 18.6906ZM279.097 56.7706C275.758 56.7706 272.783 56.0642 270.171 54.6515C267.56 53.1959 265.526 51.2052 264.071 48.6794C262.615 46.1108 261.887 43.1996 261.887 39.946C261.887 36.6496 262.615 33.7385 264.071 31.2127C265.526 28.6869 267.538 26.7176 270.107 25.3048C272.676 23.8493 275.63 23.1215 278.969 23.1215C282.18 23.1215 285.112 23.9135 287.766 25.4975C290.421 27.0815 292.347 29.3718 293.546 32.3686L285.583 35.1941C284.984 33.9526 284.042 32.9679 282.758 32.2401C281.516 31.4696 280.125 31.0843 278.584 31.0843C277 31.0843 275.608 31.4696 274.41 32.2401C273.211 32.9679 272.269 33.9954 271.584 35.3225C270.899 36.6496 270.557 38.1908 270.557 39.946C270.557 41.7013 270.899 43.2425 271.584 44.5696C272.269 45.8539 273.232 46.8814 274.474 47.6519C275.715 48.4225 277.128 48.8078 278.712 48.8078C280.253 48.8078 281.644 48.4011 282.886 47.5877C284.17 46.7743 285.112 45.7041 285.711 44.3769L293.738 47.2024C292.497 50.242 290.549 52.5966 287.895 54.2662C285.283 55.9358 282.351 56.7706 279.097 56.7706ZM309.08 56.7706C305.227 56.7706 302.23 55.9144 300.089 54.202C297.992 52.4895 296.943 50.0707 296.943 46.9456C296.943 43.5207 298.077 40.9521 300.346 39.2397C302.658 37.4844 305.89 36.6068 310.043 36.6068H317.62C317.321 34.6375 316.7 33.1392 315.758 32.1117C314.816 31.0415 313.468 30.5063 311.712 30.5063C310.342 30.5063 309.101 30.806 307.988 31.4053C306.875 32.0047 305.933 32.9251 305.162 34.1666L297.713 31.598C298.313 30.228 299.19 28.9009 300.346 27.6166C301.502 26.2895 303 25.2192 304.841 24.4058C306.725 23.5496 309.015 23.1215 311.712 23.1215C314.966 23.1215 317.663 23.7423 319.804 24.9838C321.987 26.2253 323.592 27.9805 324.62 30.2495C325.69 32.4756 326.204 35.1299 326.161 38.2122L325.968 56H318.07L317.941 52.2755C317.128 53.731 315.972 54.8441 314.474 55.6147C313.018 56.3853 311.22 56.7706 309.08 56.7706ZM310.492 49.7068C311.862 49.7068 313.104 49.3858 314.217 48.7436C315.33 48.1015 316.207 47.2666 316.85 46.2392C317.492 45.2117 317.813 44.1415 317.813 43.0284V42.9H312.997C310.214 42.9 308.288 43.2425 307.217 43.9274C306.147 44.5696 305.612 45.49 305.612 46.6887C305.612 47.6305 306.04 48.3797 306.896 48.9363C307.752 49.45 308.951 49.7068 310.492 49.7068ZM347.365 69.678C344.925 69.678 342.763 69.5067 340.879 69.1642C338.996 68.8218 337.412 68.3722 336.127 67.8157C334.843 67.2592 333.794 66.7026 332.981 66.1461L336.32 59.3392C336.919 59.6817 337.711 60.067 338.696 60.4951C339.681 60.966 340.858 61.3513 342.228 61.651C343.598 61.9935 345.182 62.1647 346.98 62.1647C348.692 62.1647 350.191 61.8222 351.475 61.1373C352.802 60.4951 353.83 59.4677 354.557 58.0549C355.328 56.685 355.713 54.9297 355.713 52.7892V49.7068C354.643 51.3765 353.252 52.7036 351.539 53.6882C349.827 54.6301 347.879 55.101 345.696 55.101C342.742 55.101 340.173 54.4588 337.99 53.1745C335.849 51.8902 334.18 50.0921 332.981 47.7804C331.782 45.4686 331.183 42.7287 331.183 39.5607C331.183 36.2215 331.782 33.3318 332.981 30.8916C334.18 28.4086 335.849 26.5035 337.99 25.1764C340.173 23.8065 342.742 23.1215 345.696 23.1215C347.879 23.1215 349.827 23.6352 351.539 24.6627C353.252 25.6473 354.643 27.0601 355.713 28.9009V23.8921H364.19V52.5323C364.19 56.1284 363.505 59.2108 362.135 61.7794C360.765 64.3909 358.817 66.3602 356.291 67.6873C353.808 69.0144 350.833 69.678 347.365 69.678ZM348.136 47.973C349.591 47.973 350.854 47.6091 351.925 46.8814C353.038 46.1108 353.894 45.0833 354.493 43.799C355.093 42.4719 355.392 40.9735 355.392 39.3039C355.392 37.5915 355.071 36.0931 354.429 34.8088C353.83 33.5245 352.973 32.5184 351.86 31.7906C350.79 31.0629 349.527 30.699 348.072 30.699C346.573 30.699 345.246 31.0629 344.09 31.7906C342.934 32.5184 342.035 33.5245 341.393 34.8088C340.751 36.0931 340.408 37.5915 340.366 39.3039C340.408 40.9735 340.751 42.4719 341.393 43.799C342.035 45.0833 342.934 46.1108 344.09 46.8814C345.289 47.6091 346.637 47.973 348.136 47.973ZM386.574 56.7706C383.321 56.7706 380.41 56.0642 377.841 54.6515C375.315 53.1959 373.325 51.2052 371.869 48.6794C370.456 46.1536 369.75 43.2425 369.75 39.946C369.75 36.6496 370.456 33.7385 371.869 31.2127C373.282 28.6869 375.251 26.7176 377.777 25.3048C380.303 23.8493 383.192 23.1215 386.446 23.1215C389.742 23.1215 392.654 23.8493 395.179 25.3048C397.705 26.7176 399.675 28.6869 401.087 31.2127C402.5 33.7385 403.206 36.6496 403.206 39.946C403.206 43.2425 402.5 46.1536 401.087 48.6794C399.675 51.2052 397.705 53.1959 395.179 54.6515C392.696 56.0642 389.828 56.7706 386.574 56.7706ZM386.574 48.9363C388.158 48.9363 389.55 48.551 390.749 47.7804C391.947 47.0098 392.868 45.9609 393.51 44.6338C394.195 43.2639 394.537 41.7013 394.537 39.946C394.537 38.1908 394.195 36.6496 393.51 35.3225C392.825 33.9526 391.862 32.8823 390.62 32.1117C389.421 31.3411 388.03 30.9558 386.446 30.9558C384.905 30.9558 383.514 31.3411 382.272 32.1117C381.073 32.8823 380.132 33.9526 379.447 35.3225C378.762 36.6496 378.419 38.1908 378.419 39.946C378.419 41.7013 378.762 43.2639 379.447 44.6338C380.132 45.9609 381.095 47.0098 382.336 47.7804C383.578 48.551 384.991 48.9363 386.574 48.9363ZM164.88 122V77.0489H180.1C183.182 77.0489 185.879 77.5198 188.191 78.4617C190.503 79.4035 192.301 80.8377 193.585 82.7641C194.869 84.6478 195.511 87.0024 195.511 89.8279C195.511 91.5831 195.062 93.2099 194.163 94.7083C193.307 96.1638 192.087 97.4267 190.503 98.497C192.6 99.5673 194.206 101.001 195.319 102.799C196.475 104.555 197.053 106.674 197.053 109.157C197.053 111.897 196.432 114.23 195.19 116.156C193.949 118.083 192.215 119.538 189.989 120.523C187.763 121.508 185.151 122 182.154 122H164.88ZM173.485 114.23H181.32C183.417 114.23 185.066 113.716 186.264 112.689C187.463 111.618 188.062 110.206 188.062 108.45C188.062 106.61 187.399 105.175 186.072 104.148C184.744 103.078 182.925 102.543 180.613 102.543H173.485V114.23ZM173.485 95.3504H180.292C182.219 95.3504 183.738 94.8581 184.852 93.8735C185.965 92.8888 186.521 91.4975 186.521 89.6994C186.521 87.9014 185.9 86.5101 184.659 85.5254C183.417 84.5408 181.726 84.0484 179.586 84.0484H173.485V95.3504ZM202.98 122V77.0489H211.456V122H202.98ZM230.213 122.771C227.645 122.771 225.462 122.257 223.663 121.229C221.908 120.202 220.56 118.618 219.618 116.477C218.676 114.294 218.205 111.49 218.205 108.065V89.8921H226.682V106.331C226.682 108.472 226.917 110.163 227.388 111.404C227.902 112.603 228.608 113.481 229.507 114.037C230.449 114.551 231.498 114.808 232.654 114.808C234.88 114.851 236.571 114.187 237.727 112.817C238.883 111.404 239.461 109.371 239.461 106.717V89.8921H247.937V122H239.974L239.653 117.633C238.583 119.26 237.234 120.523 235.608 121.422C234.024 122.321 232.226 122.771 230.213 122.771ZM269.794 122.771C266.626 122.771 263.821 122.064 261.381 120.651C258.941 119.196 257.015 117.205 255.602 114.679C254.232 112.154 253.547 109.242 253.547 105.946C253.547 102.65 254.253 99.7385 255.666 97.2127C257.122 94.6869 259.091 92.7176 261.574 91.3048C264.1 89.8493 266.989 89.1215 270.243 89.1215C273.069 89.1215 275.659 89.8707 278.013 91.3691C280.411 92.8246 282.316 94.9865 283.728 97.8549C285.184 100.68 285.912 104.127 285.912 108.194H262.409C262.623 110.334 263.543 112.047 265.17 113.331C266.797 114.572 268.638 115.193 270.693 115.193C272.448 115.193 273.882 114.829 274.995 114.101C276.108 113.331 276.964 112.346 277.564 111.148L285.141 114.101C284.242 115.899 283.065 117.462 281.609 118.789C280.196 120.074 278.505 121.058 276.536 121.743C274.567 122.428 272.319 122.771 269.794 122.771ZM262.858 101.9H276.729C276.6 100.573 276.172 99.5031 275.444 98.6897C274.717 97.8763 273.861 97.2769 272.876 96.8916C271.891 96.5063 270.928 96.3137 269.986 96.3137C269.087 96.3137 268.102 96.5063 267.032 96.8916C266.005 97.2341 265.084 97.812 264.271 98.6254C263.5 99.4388 263.029 100.531 262.858 101.9ZM302.846 122.771C300.791 122.771 298.865 122.471 297.067 121.872C295.269 121.229 293.685 120.33 292.315 119.175C290.945 117.976 289.874 116.52 289.104 114.808L296.36 111.469C297.002 112.496 297.88 113.395 298.993 114.166C300.106 114.893 301.391 115.257 302.846 115.257C304.259 115.257 305.351 115.065 306.121 114.679C306.892 114.251 307.277 113.652 307.277 112.881C307.277 112.111 306.956 111.554 306.314 111.212C305.714 110.826 304.88 110.505 303.809 110.249L300.855 109.478C297.773 108.665 295.333 107.38 293.535 105.625C291.78 103.827 290.902 101.772 290.902 99.4602C290.902 96.1638 291.951 93.6166 294.049 91.8186C296.189 90.0205 299.207 89.1215 303.103 89.1215C305.115 89.1215 306.977 89.4212 308.69 90.0205C310.445 90.6199 311.943 91.4547 313.185 92.5249C314.426 93.5952 315.283 94.8367 315.753 96.2495L308.754 99.4602C308.454 98.604 307.726 97.9191 306.571 97.4053C305.415 96.8488 304.259 96.5705 303.103 96.5705C301.947 96.5705 301.048 96.8274 300.406 97.3411C299.807 97.812 299.507 98.4756 299.507 99.3318C299.507 99.8884 299.807 100.359 300.406 100.745C301.005 101.087 301.861 101.387 302.975 101.644L307.149 102.671C309.246 103.185 310.916 104.02 312.157 105.175C313.442 106.289 314.362 107.551 314.919 108.964C315.518 110.334 315.818 111.683 315.818 113.01C315.818 114.936 315.24 116.649 314.084 118.147C312.971 119.603 311.43 120.737 309.46 121.55C307.534 122.364 305.329 122.771 302.846 122.771ZM164.88 189V144.049H180.1C183.182 144.049 185.879 144.52 188.191 145.462C190.503 146.404 192.301 147.838 193.585 149.764C194.869 151.648 195.511 154.002 195.511 156.828C195.511 158.583 195.062 160.21 194.163 161.708C193.307 163.164 192.087 164.427 190.503 165.497C192.6 166.567 194.206 168.001 195.319 169.799C196.475 171.555 197.053 173.674 197.053 176.157C197.053 178.897 196.432 181.23 195.19 183.156C193.949 185.083 192.215 186.538 189.989 187.523C187.763 188.508 185.151 189 182.154 189H164.88ZM173.485 181.23H181.32C183.417 181.23 185.066 180.716 186.264 179.689C187.463 178.618 188.062 177.206 188.062 175.45C188.062 173.61 187.399 172.175 186.072 171.148C184.744 170.078 182.925 169.543 180.613 169.543H173.485V181.23ZM173.485 162.35H180.292C182.219 162.35 183.738 161.858 184.852 160.873C185.965 159.889 186.521 158.497 186.521 156.699C186.521 154.901 185.9 153.51 184.659 152.525C183.417 151.541 181.726 151.048 179.586 151.048H173.485V162.35ZM213.383 189.771C209.53 189.771 206.533 188.914 204.393 187.202C202.295 185.49 201.246 183.071 201.246 179.946C201.246 176.521 202.381 173.952 204.65 172.24C206.961 170.484 210.194 169.607 214.346 169.607H221.924C221.624 167.638 221.003 166.139 220.061 165.112C219.12 164.041 217.771 163.506 216.016 163.506C214.646 163.506 213.404 163.806 212.291 164.405C211.178 165.005 210.236 165.925 209.466 167.167L202.017 164.598C202.616 163.228 203.494 161.901 204.65 160.617C205.805 159.289 207.304 158.219 209.145 157.406C211.028 156.55 213.319 156.121 216.016 156.121C219.269 156.121 221.966 156.742 224.107 157.984C226.29 159.225 227.896 160.98 228.923 163.249C229.993 165.476 230.507 168.13 230.464 171.212L230.272 189H222.373L222.245 185.275C221.431 186.731 220.275 187.844 218.777 188.615C217.321 189.385 215.523 189.771 213.383 189.771ZM214.796 182.707C216.166 182.707 217.407 182.386 218.52 181.744C219.633 181.101 220.511 180.267 221.153 179.239C221.795 178.212 222.116 177.141 222.116 176.028V175.9H217.3C214.517 175.9 212.591 176.242 211.521 176.927C210.45 177.57 209.915 178.49 209.915 179.689C209.915 180.631 210.343 181.38 211.2 181.936C212.056 182.45 213.254 182.707 214.796 182.707ZM237.22 189V156.892H245.183L245.568 161.259C246.596 159.589 247.901 158.326 249.485 157.47C251.112 156.571 252.953 156.121 255.008 156.121C257.534 156.121 259.696 156.635 261.494 157.663C263.292 158.69 264.662 160.296 265.603 162.479C266.545 164.619 266.995 167.402 266.952 170.827V189H258.475V172.561C258.475 170.377 258.219 168.686 257.705 167.488C257.234 166.289 256.549 165.433 255.65 164.919C254.751 164.363 253.702 164.084 252.503 164.084C250.32 164.041 248.629 164.705 247.43 166.075C246.274 167.445 245.697 169.478 245.697 172.175V189H237.22ZM286.497 189.771C283.543 189.771 280.974 189.086 278.791 187.716C276.65 186.346 274.981 184.398 273.782 181.872C272.583 179.346 271.984 176.371 271.984 172.946C271.984 169.478 272.583 166.503 273.782 164.02C274.981 161.494 276.65 159.546 278.791 158.176C280.974 156.806 283.543 156.121 286.497 156.121C288.594 156.121 290.457 156.571 292.083 157.47C293.753 158.326 295.102 159.568 296.129 161.195V144.049H304.606V189H296.579L296.322 184.505C295.251 186.175 293.881 187.48 292.212 188.422C290.542 189.321 288.637 189.771 286.497 189.771ZM288.68 182C290.093 182 291.334 181.658 292.404 180.973C293.518 180.245 294.395 179.239 295.037 177.955C295.68 176.671 296.043 175.215 296.129 173.588V172.304C296.043 170.677 295.68 169.243 295.037 168.001C294.395 166.717 293.518 165.732 292.404 165.047C291.291 164.32 290.029 163.956 288.616 163.956C287.075 163.956 285.705 164.341 284.506 165.112C283.35 165.839 282.43 166.888 281.745 168.258C281.103 169.628 280.781 171.191 280.781 172.946C280.781 174.701 281.124 176.264 281.809 177.634C282.494 179.004 283.414 180.074 284.57 180.845C285.769 181.615 287.139 182 288.68 182ZM323.917 189.771C321.862 189.771 319.936 189.471 318.137 188.872C316.339 188.229 314.755 187.33 313.386 186.175C312.016 184.976 310.945 183.52 310.175 181.808L317.431 178.469C318.073 179.496 318.951 180.395 320.064 181.166C321.177 181.893 322.461 182.257 323.917 182.257C325.33 182.257 326.421 182.065 327.192 181.679C327.963 181.251 328.348 180.652 328.348 179.881C328.348 179.111 328.027 178.554 327.385 178.212C326.785 177.826 325.95 177.505 324.88 177.249L321.926 176.478C318.844 175.665 316.404 174.38 314.606 172.625C312.85 170.827 311.973 168.772 311.973 166.46C311.973 163.164 313.022 160.617 315.119 158.819C317.26 157.021 320.278 156.121 324.174 156.121C326.186 156.121 328.048 156.421 329.761 157.021C331.516 157.62 333.014 158.455 334.256 159.525C335.497 160.595 336.353 161.837 336.824 163.249L329.825 166.46C329.525 165.604 328.797 164.919 327.641 164.405C326.486 163.849 325.33 163.571 324.174 163.571C323.018 163.571 322.119 163.827 321.477 164.341C320.877 164.812 320.578 165.476 320.578 166.332C320.578 166.888 320.877 167.359 321.477 167.745C322.076 168.087 322.932 168.387 324.045 168.644L328.219 169.671C330.317 170.185 331.987 171.02 333.228 172.175C334.513 173.289 335.433 174.551 335.989 175.964C336.589 177.334 336.889 178.683 336.889 180.01C336.889 181.936 336.311 183.649 335.155 185.147C334.042 186.603 332.5 187.737 330.531 188.55C328.605 189.364 326.4 189.771 323.917 189.771Z" fill="black"/>
</g>
<defs>
<clipPath id="clip0_161_95">
<rect width="421" height="200" fill="white"/>
</clipPath>
</defs>
</svg>
