<svg width="1504" height="203" viewBox="0 0 1504 203" fill="none" xmlns="http://www.w3.org/2000/svg">
<path d="M199.768 12.18H159.24C157.584 12.18 156.24 10.8369 156.24 9.18V3C156.24 1.34315 154.897 0 153.24 0H152.368C150.711 0 149.368 1.34315 149.368 3V9.18C149.368 10.8369 148.025 12.18 146.368 12.18H119.149C117.493 12.18 116.149 10.8369 116.149 9.18V1.06842C116.149 0.478349 115.671 0 115.081 0H110.345C109.755 0 109.277 0.478349 109.277 1.06842V9.77453C109.277 11.103 108.2 12.18 106.871 12.18C105.543 12.18 104.466 11.103 104.466 9.77454V3C104.466 1.34315 103.123 0 101.466 0H100.593C98.9361 0 97.593 1.34315 97.593 3V9.18C97.593 10.8369 96.2498 12.18 94.593 12.18H3C1.34315 12.18 0 13.5231 0 15.18V15.5905C0 17.2474 1.34315 18.5905 3 18.5905H94.593C96.2498 18.5905 97.593 19.9337 97.593 21.5905V52.9853C97.593 54.6421 96.2498 55.9853 94.593 55.9853H32.6047C31.823 55.9853 31.0721 55.6801 30.512 55.1348L5.09275 30.3867C3.19158 28.5357 0 29.8828 0 32.5362V33.3488C0 34.1595 0.328048 34.9356 0.909442 35.5005L27.491 61.3274C28.1783 61.9684 29.0946 62.3958 30.011 62.3958H94.593C96.2499 62.3958 97.593 63.7389 97.593 65.3958V127.142C97.593 128.852 99.1966 130.347 101.029 130.347H129.415C131.072 130.347 132.415 131.691 132.415 133.347V137.177C132.415 138.834 131.072 140.177 129.415 140.177H3C1.34314 140.177 0 141.52 0 143.177V143.587C0 145.244 1.34315 146.587 3 146.587H135.622C137.455 146.587 139.059 145.092 139.059 143.382V133.347C139.059 131.691 140.402 130.347 142.059 130.347H146.139C147.795 130.347 149.139 131.691 149.139 133.347V200C149.139 201.657 150.482 203 152.139 203H153.011C154.668 203 156.011 201.657 156.011 200V133.211C156.011 131.629 157.293 130.347 158.875 130.347C160.457 130.347 161.739 131.629 161.739 133.211V200C161.739 201.657 163.082 203 164.739 203H165.611C167.268 203 168.611 201.657 168.611 200V133.347C168.611 131.691 169.955 130.347 171.611 130.347H187.855C189.688 130.347 191.291 128.852 191.291 127.142V25.8558C191.291 24.1463 189.688 22.6505 187.855 22.6505H157.812C156.691 22.6505 155.782 21.7417 155.782 20.6205C155.782 19.4994 156.691 18.5905 157.812 18.5905H193.102C194.759 18.5905 196.102 19.9337 196.102 21.5905V200C196.102 201.657 197.446 203 199.102 203H199.975C201.632 203 202.975 201.657 202.975 200V15.3853C203.204 13.6758 201.83 12.18 199.768 12.18ZM104.466 20.6205C104.466 19.4994 105.375 18.5905 106.496 18.5905H107.247C108.368 18.5905 109.277 19.4994 109.277 20.6205C109.277 21.7417 108.368 22.6505 107.247 22.6505H106.496C105.375 22.6505 104.466 21.7417 104.466 20.6205ZM104.466 31.4665C104.466 30.138 105.543 29.0611 106.871 29.0611C108.2 29.0611 109.277 30.138 109.277 31.4665V53.5798C109.277 54.9083 108.2 55.9853 106.871 55.9853C105.543 55.9853 104.466 54.9083 104.466 53.5798V31.4665ZM132.186 123.937H107.466C105.809 123.937 104.466 122.594 104.466 120.937V64.8013C104.466 63.4728 105.543 62.3958 106.871 62.3958C108.2 62.3958 109.277 63.4728 109.277 64.8013V115.817C109.277 117.526 110.88 119.022 112.713 119.022H129.958C131.315 119.022 132.415 120.122 132.415 121.479V123.708C132.415 123.834 132.312 123.937 132.186 123.937ZM132.186 110.047C132.186 111.464 131.038 112.612 129.622 112.612H118.92C117.263 112.612 115.92 111.268 115.92 109.612V64.8013C115.92 63.4728 116.997 62.3958 118.326 62.3958C119.654 62.3958 120.731 63.4728 120.731 64.8013V104.278C120.731 105.987 122.335 107.483 124.168 107.483H129.622C131.038 107.483 132.186 108.631 132.186 110.047ZM132.186 98.7817C132.186 100.047 131.16 101.073 129.895 101.073C128.63 101.073 127.604 100.047 127.604 98.7817V64.6867C127.604 63.4215 128.63 62.3958 129.895 62.3958C131.16 62.3958 132.186 63.4215 132.186 64.6867V98.7817ZM149.368 121.479C149.368 122.837 148.267 123.937 146.91 123.937H141.745C140.388 123.937 139.288 122.837 139.288 121.479C139.288 120.122 140.388 119.022 141.745 119.022H146.91C148.267 119.022 149.368 120.122 149.368 121.479ZM149.368 110.047C149.368 111.464 148.22 112.612 146.803 112.612H141.852C140.436 112.612 139.288 111.464 139.288 110.047C139.288 108.631 140.436 107.483 141.852 107.483H146.803C148.22 107.483 149.368 108.631 149.368 110.047ZM149.368 98.0726C149.368 99.7295 148.025 101.073 146.368 101.073H142.288C140.631 101.073 139.288 99.7295 139.288 98.0726V59.1905C139.288 57.4811 137.684 55.9853 135.851 55.9853H130.29C128.933 55.9853 127.833 54.8851 127.833 53.5279C127.833 52.1707 128.933 51.0705 130.29 51.0705H146.368C148.025 51.0705 149.368 52.4137 149.368 54.0705V98.0726ZM149.368 44.66H124.168C122.335 44.66 120.731 46.1558 120.731 47.8653V53.5798C120.731 54.9083 119.654 55.9853 118.326 55.9853C116.997 55.9853 115.92 54.9083 115.92 53.5798V42.9589C115.92 41.3021 117.263 39.9589 118.92 39.9589H146.788C148.086 39.9589 149.139 41.0113 149.139 42.3095V44.4309C149.139 44.5574 149.241 44.66 149.368 44.66ZM149.368 31.3047C149.368 32.5439 148.363 33.5484 147.124 33.5484H118.393C117.154 33.5484 116.149 32.5439 116.149 31.3047C116.149 30.0656 117.154 29.0611 118.393 29.0611H147.124C148.363 29.0611 149.368 30.0656 149.368 31.3047ZM149.368 20.6205C149.368 21.7417 148.459 22.6505 147.338 22.6505H118.179C117.058 22.6505 116.149 21.7417 116.149 20.6205C116.149 19.4994 117.058 18.5905 118.179 18.5905H147.338C148.459 18.5905 149.368 19.4994 149.368 20.6205ZM161.968 121.479C161.968 122.837 160.868 123.937 159.51 123.937H158.698C157.341 123.937 156.24 122.837 156.24 121.479C156.24 120.122 157.341 119.022 158.698 119.022H159.51C160.868 119.022 161.968 120.122 161.968 121.479ZM161.968 110.047C161.968 111.464 160.82 112.612 159.404 112.612H158.805C157.388 112.612 156.24 111.464 156.24 110.047C156.24 108.631 157.388 107.483 158.805 107.483H159.404C160.82 107.483 161.968 108.631 161.968 110.047ZM161.968 98.209C161.968 99.7905 160.686 101.073 159.104 101.073C157.523 101.073 156.24 99.7905 156.24 98.209V53.9342C156.24 52.3526 157.523 51.0705 159.104 51.0705C160.686 51.0705 161.968 52.3526 161.968 53.9342V98.209ZM165.404 44.66H158.591C157.293 44.66 156.24 43.6076 156.24 42.3095C156.24 41.0113 157.293 39.9589 158.591 39.9589H170.422C172.079 39.9589 173.422 41.3021 173.422 42.9589V110.321C173.422 111.586 172.397 112.612 171.131 112.612C169.866 112.612 168.84 111.586 168.84 110.321V47.8653C168.84 45.9421 167.237 44.66 165.404 44.66ZM181.648 29.0611C183.305 29.0611 184.648 30.4042 184.648 32.0611V120.937C184.648 122.594 183.305 123.937 181.648 123.937H171.298C169.941 123.937 168.84 122.837 168.84 121.479C168.84 120.122 169.941 119.022 171.298 119.022H176.859C178.691 119.022 180.295 117.526 180.295 115.817V36.7537C180.295 35.0442 178.691 33.5484 176.859 33.5484H158.484C157.245 33.5484 156.24 32.5439 156.24 31.3047C156.24 30.0656 157.245 29.0611 158.484 29.0611H181.648Z" fill="#FFB900"/>
<path d="M279.11 142.375C271.319 142.375 264.407 140.618 258.373 137.105C252.339 133.515 247.603 128.626 244.166 122.439C240.729 116.176 239.01 108.996 239.01 100.9C239.01 92.8033 240.729 85.6617 244.166 79.4748C247.603 73.2115 252.3 68.3231 258.258 64.8095C264.292 61.2196 271.205 59.4247 278.996 59.4247C284.495 59.4247 289.613 60.4176 294.348 62.4035C299.084 64.3131 303.209 67.0246 306.722 70.5381C310.312 73.9753 313.062 77.9471 314.971 82.4536L300.421 87.8385C299.122 85.0124 297.404 82.5682 295.265 80.5059C293.126 78.3672 290.682 76.725 287.932 75.5793C285.183 74.3572 282.204 73.7462 278.996 73.7462C274.336 73.7462 270.174 74.9301 266.507 77.2979C262.917 79.5893 260.091 82.7592 258.029 86.8074C256.043 90.8556 255.05 95.5531 255.05 100.9C255.05 106.246 256.081 110.982 258.144 115.107C260.206 119.155 263.07 122.363 266.736 124.731C270.403 127.022 274.604 128.168 279.339 128.168C282.624 128.168 285.603 127.557 288.276 126.335C291.026 125.036 293.432 123.28 295.494 121.064C297.633 118.849 299.351 116.291 300.65 113.388L315.2 118.658C313.291 123.318 310.541 127.442 306.951 131.032C303.438 134.622 299.313 137.41 294.578 139.396C289.842 141.382 284.686 142.375 279.11 142.375ZM324.665 141V60.7995H339.789V141H324.665ZM362.703 141V111.67H377.827V141H362.703ZM362.703 111.67C362.703 107.774 362.245 104.757 361.328 102.618C360.412 100.48 359.151 98.952 357.547 98.0355C355.943 97.0425 354.072 96.546 351.933 96.546C348.038 96.4696 345.021 97.6535 342.882 100.098C340.82 102.542 339.789 106.17 339.789 110.982H334.748C334.748 104.872 335.626 99.7158 337.383 95.5149C339.216 91.2375 341.736 87.9913 344.944 85.7762C348.229 83.4848 352.048 82.3391 356.402 82.3391C360.985 82.3391 364.842 83.2557 367.973 85.0888C371.181 86.922 373.626 89.7863 375.306 93.6817C376.986 97.5008 377.827 102.466 377.827 108.576V111.67H362.703ZM390.809 141V83.7139H405.933V141H390.809ZM398.371 74.4336C396.079 74.4336 394.055 73.5934 392.299 71.913C390.542 70.1562 389.663 68.0939 389.663 65.7261C389.663 63.3583 390.542 61.3342 392.299 59.6538C394.055 57.897 396.079 57.0186 398.371 57.0186C400.739 57.0186 402.763 57.897 404.443 59.6538C406.2 61.3342 407.078 63.3583 407.078 65.7261C407.078 68.0939 406.2 70.1562 404.443 71.913C402.763 73.5934 400.739 74.4336 398.371 74.4336ZM447.49 142.375C441.532 142.375 436.224 141.115 431.565 138.594C426.905 135.997 423.277 132.445 420.68 127.939C418.083 123.356 416.785 118.162 416.785 112.357C416.785 106.476 418.083 101.282 420.68 96.7752C423.277 92.2687 426.867 88.7551 431.45 86.2345C436.033 83.6376 441.303 82.3391 447.261 82.3391C452.99 82.3391 458.222 83.7521 462.957 86.5782C467.693 89.4044 471.13 93.4908 473.269 98.8375L459.062 103.879C457.993 101.664 456.312 99.9068 454.021 98.6083C451.806 97.2335 449.323 96.546 446.574 96.546C443.747 96.546 441.265 97.2335 439.126 98.6083C436.988 99.9068 435.307 101.74 434.085 104.108C432.863 106.476 432.252 109.225 432.252 112.357C432.252 115.489 432.863 118.238 434.085 120.606C435.307 122.898 437.026 124.731 439.241 126.106C441.456 127.48 443.977 128.168 446.803 128.168C449.552 128.168 452.035 127.442 454.25 125.991C456.541 124.54 458.222 122.63 459.291 120.262L473.613 125.304C471.397 130.727 467.922 134.928 463.186 137.907C458.527 140.885 453.295 142.375 447.49 142.375ZM517.024 141L516.565 129.428V112.013C516.565 108.576 516.184 105.635 515.42 103.191C514.732 100.747 513.587 98.8757 511.983 97.5772C510.455 96.2023 508.354 95.5149 505.681 95.5149C503.237 95.5149 501.022 96.0495 499.036 97.1189C497.05 98.1882 495.37 99.8304 493.995 102.045L480.704 97.4626C481.774 95.0184 483.34 92.6506 485.402 90.3591C487.464 87.9913 490.137 86.0818 493.422 84.6305C496.783 83.1029 500.869 82.3391 505.681 82.3391C511.486 82.3391 516.298 83.4466 520.117 85.6617C524.013 87.8767 526.877 91.0084 528.71 95.0566C530.62 99.0284 531.536 103.764 531.46 109.264L531.116 141H517.024ZM500.984 142.375C494.109 142.375 488.763 140.847 484.944 137.792C481.201 134.737 479.33 130.421 479.33 124.845C479.33 118.735 481.354 114.152 485.402 111.097C489.526 107.965 495.293 106.399 502.702 106.399H517.253V117.627H507.973C503.008 117.627 499.571 118.238 497.661 119.46C495.752 120.606 494.797 122.248 494.797 124.387C494.797 126.067 495.561 127.404 497.088 128.397C498.616 129.314 500.754 129.772 503.504 129.772C506.025 129.772 508.24 129.199 510.149 128.053C512.135 126.831 513.701 125.304 514.847 123.47C515.993 121.561 516.565 119.613 516.565 117.627H520.232C520.232 125.418 518.742 131.491 515.763 135.844C512.861 140.198 507.934 142.375 500.984 142.375ZM569.292 165.404C564.938 165.404 561.081 165.098 557.72 164.487C554.359 163.876 551.533 163.074 549.242 162.081C546.95 161.088 545.079 160.095 543.628 159.102L549.585 146.958C550.655 147.569 552.068 148.256 553.825 149.02C555.581 149.86 557.682 150.548 560.126 151.082C562.57 151.693 565.396 151.999 568.604 151.999C571.66 151.999 574.333 151.388 576.624 150.166C578.992 149.02 580.825 147.187 582.124 144.666C583.499 142.222 584.186 139.09 584.186 135.271V83.7139H599.31V134.813C599.31 141.229 598.088 146.729 595.643 151.311C593.199 155.971 589.724 159.484 585.217 161.852C580.787 164.22 575.479 165.404 569.292 165.404ZM566.313 139.396C561.043 139.396 556.46 138.25 552.564 135.959C548.745 133.667 545.766 130.459 543.628 126.335C541.489 122.21 540.42 117.322 540.42 111.67C540.42 105.712 541.489 100.556 543.628 96.2023C545.766 91.7722 548.745 88.3732 552.564 86.0054C556.46 83.5612 561.043 82.3391 566.313 82.3391C570.896 82.3391 574.868 83.5612 578.229 86.0054C581.589 88.3732 584.186 91.7722 586.019 96.2023C587.853 100.632 588.769 105.903 588.769 112.013C588.769 117.513 587.853 122.325 586.019 126.449C584.186 130.574 581.589 133.782 578.229 136.073C574.868 138.288 570.896 139.396 566.313 139.396ZM570.667 126.678C573.264 126.678 575.517 126.029 577.427 124.731C579.412 123.356 580.94 121.523 582.009 119.231C583.079 116.863 583.613 114.19 583.613 111.211C583.613 108.156 583.041 105.483 581.895 103.191C580.825 100.9 579.298 99.1048 577.312 97.8063C575.402 96.5078 573.149 95.8586 570.552 95.8586C567.879 95.8586 565.511 96.5078 563.449 97.8063C561.386 99.1048 559.782 100.9 558.637 103.191C557.491 105.483 556.88 108.156 556.804 111.211C556.88 114.19 557.491 116.863 558.637 119.231C559.782 121.523 561.386 123.356 563.449 124.731C565.587 126.029 567.993 126.678 570.667 126.678ZM639.248 142.375C633.443 142.375 628.249 141.115 623.666 138.594C619.16 135.997 615.608 132.445 613.011 127.939C610.49 123.432 609.23 118.238 609.23 112.357C609.23 106.476 610.49 101.282 613.011 96.7752C615.532 92.2687 619.045 88.7551 623.552 86.2345C628.058 83.6376 633.214 82.3391 639.019 82.3391C644.9 82.3391 650.094 83.6376 654.601 86.2345C659.107 88.7551 662.621 92.2687 665.141 96.7752C667.662 101.282 668.922 106.476 668.922 112.357C668.922 118.238 667.662 123.432 665.141 127.939C662.621 132.445 659.107 135.997 654.601 138.594C650.171 141.115 645.053 142.375 639.248 142.375ZM639.248 128.397C642.074 128.397 644.557 127.71 646.695 126.335C648.834 124.96 650.476 123.089 651.622 120.721C652.844 118.277 653.455 115.489 653.455 112.357C653.455 109.225 652.844 106.476 651.622 104.108C650.4 101.664 648.681 99.754 646.466 98.3792C644.327 97.0043 641.845 96.3169 639.019 96.3169C636.269 96.3169 633.787 97.0043 631.572 98.3792C629.433 99.754 627.753 101.664 626.531 104.108C625.308 106.476 624.697 109.225 624.697 112.357C624.697 115.489 625.308 118.277 626.531 120.721C627.753 123.089 629.471 124.96 631.686 126.335C633.901 127.71 636.422 128.397 639.248 128.397ZM726.132 142.604C722.237 142.604 718.761 141.993 715.706 140.771C712.727 139.472 710.168 137.83 708.03 135.844C705.967 133.858 704.325 131.72 703.103 129.428C701.881 127.137 701.041 124.922 700.583 122.783L713.873 117.742C715.095 121.103 716.699 123.7 718.685 125.533C720.747 127.366 723.306 128.282 726.361 128.282C728.653 128.282 730.83 127.748 732.892 126.678C734.954 125.609 736.596 123.891 737.819 121.523C739.117 119.155 739.766 116.1 739.766 112.357V60.7995H755.348V116.94C755.348 120.912 754.622 124.502 753.171 127.71C751.72 130.841 749.658 133.515 746.984 135.73C744.387 137.945 741.294 139.663 737.704 140.885C734.19 142.031 730.333 142.604 726.132 142.604ZM804.013 141L803.555 129.428V112.013C803.555 108.576 803.173 105.635 802.409 103.191C801.722 100.747 800.576 98.8757 798.972 97.5772C797.445 96.2023 795.344 95.5149 792.671 95.5149C790.227 95.5149 788.012 96.0495 786.026 97.1189C784.04 98.1882 782.359 99.8304 780.984 102.045L767.694 97.4626C768.763 95.0184 770.329 92.6506 772.392 90.3591C774.454 87.9913 777.127 86.0818 780.412 84.6305C783.772 83.1029 787.859 82.3391 792.671 82.3391C798.476 82.3391 803.288 83.4466 807.107 85.6617C811.002 87.8767 813.867 91.0084 815.7 95.0566C817.609 99.0284 818.526 103.764 818.45 109.264L818.106 141H804.013ZM787.973 142.375C781.099 142.375 775.752 140.847 771.933 137.792C768.191 134.737 766.319 130.421 766.319 124.845C766.319 118.735 768.343 114.152 772.392 111.097C776.516 107.965 782.283 106.399 789.692 106.399H804.243V117.627H794.962C789.997 117.627 786.56 118.238 784.651 119.46C782.741 120.606 781.786 122.248 781.786 124.387C781.786 126.067 782.55 127.404 784.078 128.397C785.606 129.314 787.744 129.772 790.494 129.772C793.015 129.772 795.23 129.199 797.139 128.053C799.125 126.831 800.691 125.304 801.837 123.47C802.982 121.561 803.555 119.613 803.555 117.627H807.221C807.221 125.418 805.732 131.491 802.753 135.844C799.851 140.198 794.924 142.375 787.973 142.375ZM827.639 141V130.001L855.938 96.2023H827.639V83.7139H874.842V94.5983L846.543 128.626H874.957V141H827.639ZM882.239 141V130.001L910.539 96.2023H882.239V83.7139H929.443V94.5983L901.144 128.626H929.558V141H882.239ZM1024.75 141L994.044 60.7995H1009.74L1041.36 141H1024.75ZM961.391 141L993.013 60.7995H1008.71L978.004 141H961.391ZM976.285 123.356V109.493H1026.58V123.356H976.285ZM1070.22 142.375C1066.55 142.375 1063.12 141.84 1059.91 140.771C1056.7 139.625 1053.87 138.021 1051.43 135.959C1048.99 133.82 1047.08 131.223 1045.7 128.168L1058.65 122.21C1059.79 124.043 1061.36 125.647 1063.34 127.022C1065.33 128.321 1067.62 128.97 1070.22 128.97C1072.74 128.97 1074.69 128.626 1076.06 127.939C1077.44 127.175 1078.12 126.106 1078.12 124.731C1078.12 123.356 1077.55 122.363 1076.41 121.752C1075.34 121.064 1073.85 120.492 1071.94 120.033L1066.67 118.658C1061.17 117.207 1056.81 114.916 1053.61 111.784C1050.47 108.576 1048.91 104.91 1048.91 100.785C1048.91 94.9038 1050.78 90.3591 1054.52 87.1511C1058.34 83.9431 1063.73 82.3391 1070.68 82.3391C1074.27 82.3391 1077.59 82.8737 1080.65 83.9431C1083.78 85.0124 1086.45 86.5019 1088.67 88.4114C1090.88 90.3209 1092.41 92.536 1093.25 95.0566L1080.76 100.785C1080.23 99.2576 1078.93 98.0355 1076.86 97.1189C1074.8 96.1259 1072.74 95.6294 1070.68 95.6294C1068.62 95.6294 1067.01 96.0877 1065.87 97.0043C1064.8 97.8445 1064.26 99.0284 1064.26 100.556C1064.26 101.549 1064.8 102.389 1065.87 103.077C1066.93 103.688 1068.46 104.222 1070.45 104.681L1077.9 106.514C1081.64 107.43 1084.62 108.92 1086.83 110.982C1089.12 112.968 1090.77 115.221 1091.76 117.742C1092.83 120.186 1093.36 122.592 1093.36 124.96C1093.36 128.397 1092.33 131.452 1090.27 134.126C1088.28 136.723 1085.53 138.747 1082.02 140.198C1078.58 141.649 1074.65 142.375 1070.22 142.375ZM1123.48 142.375C1119.81 142.375 1116.37 141.84 1113.17 140.771C1109.96 139.625 1107.13 138.021 1104.69 135.959C1102.24 133.82 1100.33 131.223 1098.96 128.168L1111.91 122.21C1113.05 124.043 1114.62 125.647 1116.6 127.022C1118.59 128.321 1120.88 128.97 1123.48 128.97C1126 128.97 1127.95 128.626 1129.32 127.939C1130.7 127.175 1131.38 126.106 1131.38 124.731C1131.38 123.356 1130.81 122.363 1129.66 121.752C1128.59 121.064 1127.11 120.492 1125.2 120.033L1119.93 118.658C1114.43 117.207 1110.07 114.916 1106.86 111.784C1103.73 108.576 1102.17 104.91 1102.17 100.785C1102.17 94.9038 1104.04 90.3591 1107.78 87.1511C1111.6 83.9431 1116.98 82.3391 1123.94 82.3391C1127.53 82.3391 1130.85 82.8737 1133.9 83.9431C1137.03 85.0124 1139.71 86.5019 1141.92 88.4114C1144.14 90.3209 1145.67 92.536 1146.51 95.0566L1134.02 100.785C1133.48 99.2576 1132.18 98.0355 1130.12 97.1189C1128.06 96.1259 1126 95.6294 1123.94 95.6294C1121.87 95.6294 1120.27 96.0877 1119.12 97.0043C1118.05 97.8445 1117.52 99.0284 1117.52 100.556C1117.52 101.549 1118.05 102.389 1119.12 103.077C1120.19 103.688 1121.72 104.222 1123.71 104.681L1131.15 106.514C1134.9 107.43 1137.88 108.92 1140.09 110.982C1142.38 112.968 1144.02 115.221 1145.02 117.742C1146.09 120.186 1146.62 122.592 1146.62 124.96C1146.62 128.397 1145.59 131.452 1143.53 134.126C1141.54 136.723 1138.79 138.747 1135.28 140.198C1131.84 141.649 1127.91 142.375 1123.48 142.375ZM1181.32 142.375C1175.66 142.375 1170.66 141.115 1166.31 138.594C1161.95 135.997 1158.52 132.445 1156 127.939C1153.55 123.432 1152.33 118.238 1152.33 112.357C1152.33 106.476 1153.59 101.282 1156.11 96.7752C1158.71 92.2687 1162.22 88.7551 1166.65 86.2345C1171.16 83.6376 1176.31 82.3391 1182.12 82.3391C1187.16 82.3391 1191.78 83.6757 1195.98 86.3491C1200.26 88.9461 1203.66 92.8033 1206.18 97.9209C1208.77 102.962 1210.07 109.111 1210.07 116.367H1166.65L1168.03 114.992C1168.03 117.818 1168.71 120.301 1170.09 122.439C1171.54 124.502 1173.37 126.106 1175.59 127.251C1177.88 128.321 1180.32 128.855 1182.92 128.855C1186.05 128.855 1188.61 128.206 1190.6 126.908C1192.58 125.533 1194.11 123.776 1195.18 121.637L1208.7 126.908C1207.09 130.116 1204.99 132.904 1202.4 135.271C1199.88 137.563 1196.86 139.32 1193.35 140.542C1189.83 141.764 1185.82 142.375 1181.32 142.375ZM1168.83 106.514L1167.45 105.139H1195.06L1193.8 106.514C1193.8 103.764 1193.15 101.587 1191.86 99.9832C1190.56 98.3028 1188.95 97.0807 1187.04 96.3169C1185.21 95.5531 1183.42 95.1712 1181.66 95.1712C1179.9 95.1712 1178.03 95.5531 1176.05 96.3169C1174.06 97.0807 1172.34 98.3028 1170.89 99.9832C1169.51 101.587 1168.83 103.764 1168.83 106.514ZM1218.86 141V83.7139H1233.07L1233.76 91.1611C1235.51 88.2586 1237.77 86.0818 1240.52 84.6305C1243.27 83.1029 1246.32 82.3391 1249.68 82.3391C1254.34 82.3391 1258.24 83.332 1261.37 85.3179C1264.58 87.3039 1266.91 90.3591 1268.36 94.4837C1270.04 90.5883 1272.41 87.6094 1275.46 85.5471C1278.52 83.4084 1282.07 82.3391 1286.12 82.3391C1292.84 82.3391 1297.96 84.4778 1301.47 88.7551C1304.98 92.9561 1306.74 99.4485 1306.74 108.232V141H1291.62V111.67C1291.62 107.774 1291.2 104.757 1290.36 102.618C1289.51 100.48 1288.37 98.952 1286.92 98.0355C1285.47 97.0425 1283.75 96.546 1281.76 96.546C1278.1 96.4696 1275.27 97.6535 1273.28 100.098C1271.3 102.542 1270.3 106.17 1270.3 110.982V141H1255.18V111.67C1255.18 107.774 1254.76 104.757 1253.92 102.618C1253.16 100.48 1252.01 98.952 1250.48 98.0355C1249.03 97.0425 1247.31 96.546 1245.33 96.546C1241.66 96.4696 1238.84 97.6535 1236.85 100.098C1234.94 102.542 1233.99 106.17 1233.99 110.982V141H1218.86ZM1318.78 141V60.7995H1333.9V130.345L1333.1 141H1318.78ZM1351.2 142.375C1346.39 142.375 1342.3 141.153 1338.94 138.709C1335.66 136.264 1333.14 132.789 1331.38 128.282C1329.62 123.776 1328.74 118.467 1328.74 112.357C1328.74 106.17 1329.62 100.862 1331.38 96.4314C1333.14 91.9249 1335.66 88.4496 1338.94 86.0054C1342.3 83.5612 1346.39 82.3391 1351.2 82.3391C1356.47 82.3391 1361.02 83.5612 1364.83 86.0054C1368.73 88.4496 1371.75 91.9249 1373.89 96.4314C1376.02 100.862 1377.09 106.17 1377.09 112.357C1377.09 118.467 1376.02 123.776 1373.89 128.282C1371.75 132.789 1368.73 136.264 1364.83 138.709C1361.02 141.153 1356.47 142.375 1351.2 142.375ZM1347.31 128.512C1350.06 128.512 1352.46 127.824 1354.52 126.449C1356.66 125.074 1358.34 123.165 1359.56 120.721C1360.79 118.277 1361.4 115.489 1361.4 112.357C1361.4 109.225 1360.79 106.437 1359.56 103.993C1358.42 101.549 1356.78 99.6777 1354.64 98.3792C1352.58 97.0043 1350.17 96.3169 1347.42 96.3169C1344.82 96.3169 1342.49 97.0043 1340.43 98.3792C1338.37 99.754 1336.76 101.664 1335.62 104.108C1334.47 106.476 1333.9 109.225 1333.9 112.357C1333.9 115.489 1334.47 118.277 1335.62 120.721C1336.76 123.165 1338.33 125.074 1340.32 126.449C1342.38 127.824 1344.71 128.512 1347.31 128.512ZM1387.03 141V60.7995H1402.15V141H1387.03ZM1426.68 165.289C1424.62 165.289 1422.33 164.869 1419.81 164.029C1417.36 163.265 1415.19 162.349 1413.28 161.279L1418.89 149.02C1420.19 149.707 1421.37 150.242 1422.44 150.624C1423.59 151.082 1424.58 151.311 1425.42 151.311C1427.02 151.311 1428.44 150.853 1429.66 149.937C1430.88 149.096 1431.87 147.836 1432.64 146.156L1439.4 130.23L1457.62 83.7139H1474.23L1448.22 145.927C1446.62 149.746 1444.94 153.106 1443.18 156.009C1441.42 158.988 1439.25 161.279 1436.65 162.883C1434.13 164.487 1430.81 165.289 1426.68 165.289ZM1435.39 141L1409.15 83.7139H1425.76L1444.9 130.23L1449.82 141H1435.39Z" fill="black"/>
</svg>
