<svg width="203" height="203" viewBox="0 0 203 203" fill="none" xmlns="http://www.w3.org/2000/svg">
<g clip-path="url(#clip0_93_179)">
<path d="M199.768 12.18H159.24C157.584 12.18 156.24 10.8369 156.24 9.18V3C156.24 1.34315 154.897 0 153.24 0H152.368C150.711 0 149.368 1.34315 149.368 3V9.18C149.368 10.8369 148.025 12.18 146.368 12.18H119.149C117.493 12.18 116.149 10.8369 116.149 9.18V1.06842C116.149 0.478349 115.671 0 115.081 0H110.345C109.755 0 109.277 0.478349 109.277 1.06842V9.77453C109.277 11.103 108.2 12.18 106.871 12.18C105.543 12.18 104.466 11.103 104.466 9.77453V3C104.466 1.34315 103.123 0 101.466 0H100.593C98.9361 0 97.593 1.34315 97.593 3V9.18C97.593 10.8369 96.2499 12.18 94.593 12.18H3C1.34315 12.18 0 13.5231 0 15.18V15.5905C0 17.2474 1.34315 18.5905 3 18.5905H94.593C96.2499 18.5905 97.593 19.9337 97.593 21.5905V52.9853C97.593 54.6421 96.2499 55.9853 94.593 55.9853H32.6047C31.823 55.9853 31.0721 55.6801 30.512 55.1348L5.09275 30.3867C3.19158 28.5357 0 29.8828 0 32.5362V33.3488C0 34.1595 0.328048 34.9356 0.909442 35.5005L27.491 61.3274C28.1783 61.9684 29.0946 62.3958 30.011 62.3958H94.593C96.2499 62.3958 97.593 63.7389 97.593 65.3958V127.142C97.593 128.852 99.1966 130.347 101.029 130.347H129.415C131.072 130.347 132.415 131.691 132.415 133.347V137.177C132.415 138.834 131.072 140.177 129.415 140.177H3C1.34314 140.177 0 141.52 0 143.177V143.587C0 145.244 1.34315 146.587 3 146.587H135.622C137.455 146.587 139.059 145.092 139.059 143.382V133.347C139.059 131.691 140.402 130.347 142.059 130.347H146.139C147.795 130.347 149.139 131.691 149.139 133.347V200C149.139 201.657 150.482 203 152.139 203H153.011C154.668 203 156.011 201.657 156.011 200V133.211C156.011 131.629 157.293 130.347 158.875 130.347C160.457 130.347 161.739 131.629 161.739 133.211V200C161.739 201.657 163.082 203 164.739 203H165.611C167.268 203 168.611 201.657 168.611 200V133.347C168.611 131.691 169.955 130.347 171.611 130.347H187.855C189.688 130.347 191.291 128.852 191.291 127.142V25.8558C191.291 24.1463 189.688 22.6505 187.855 22.6505H157.812C156.691 22.6505 155.782 21.7417 155.782 20.6205C155.782 19.4994 156.691 18.5905 157.812 18.5905H193.102C194.759 18.5905 196.102 19.9337 196.102 21.5905V200C196.102 201.657 197.446 203 199.102 203H199.975C201.632 203 202.975 201.657 202.975 200V15.3853C203.204 13.6758 201.83 12.18 199.768 12.18ZM104.466 20.6205C104.466 19.4994 105.375 18.5905 106.496 18.5905H107.247C108.368 18.5905 109.277 19.4994 109.277 20.6205C109.277 21.7417 108.368 22.6505 107.247 22.6505H106.496C105.375 22.6505 104.466 21.7417 104.466 20.6205ZM104.466 31.4665C104.466 30.138 105.543 29.0611 106.871 29.0611C108.2 29.0611 109.277 30.138 109.277 31.4665V53.5798C109.277 54.9083 108.2 55.9853 106.871 55.9853C105.543 55.9853 104.466 54.9083 104.466 53.5798V31.4665ZM132.186 123.937H107.466C105.809 123.937 104.466 122.594 104.466 120.937V64.8013C104.466 63.4728 105.543 62.3958 106.871 62.3958C108.2 62.3958 109.277 63.4728 109.277 64.8013V115.817C109.277 117.526 110.88 119.022 112.713 119.022H129.958C131.315 119.022 132.415 120.122 132.415 121.479V123.708C132.415 123.834 132.312 123.937 132.186 123.937ZM132.186 110.047C132.186 111.464 131.038 112.612 129.622 112.612H118.92C117.263 112.612 115.92 111.268 115.92 109.612V64.8013C115.92 63.4728 116.997 62.3958 118.326 62.3958C119.654 62.3958 120.731 63.4728 120.731 64.8013V104.278C120.731 105.987 122.335 107.483 124.168 107.483H129.622C131.038 107.483 132.186 108.631 132.186 110.047ZM132.186 98.7817C132.186 100.047 131.16 101.073 129.895 101.073C128.63 101.073 127.604 100.047 127.604 98.7817V64.6867C127.604 63.4215 128.63 62.3958 129.895 62.3958C131.16 62.3958 132.186 63.4215 132.186 64.6867V98.7817ZM149.368 121.479C149.368 122.837 148.267 123.937 146.91 123.937H141.745C140.388 123.937 139.288 122.837 139.288 121.479C139.288 120.122 140.388 119.022 141.745 119.022H146.91C148.267 119.022 149.368 120.122 149.368 121.479ZM149.368 110.047C149.368 111.464 148.22 112.612 146.803 112.612H141.852C140.436 112.612 139.288 111.464 139.288 110.047C139.288 108.631 140.436 107.483 141.852 107.483H146.803C148.22 107.483 149.368 108.631 149.368 110.047ZM149.368 98.0726C149.368 99.7295 148.025 101.073 146.368 101.073H142.288C140.631 101.073 139.288 99.7295 139.288 98.0726V59.1905C139.288 57.4811 137.684 55.9853 135.851 55.9853H130.29C128.933 55.9853 127.833 54.8851 127.833 53.5279C127.833 52.1707 128.933 51.0705 130.29 51.0705H146.368C148.025 51.0705 149.368 52.4137 149.368 54.0705V98.0726ZM149.368 44.66H124.168C122.335 44.66 120.731 46.1558 120.731 47.8653V53.5798C120.731 54.9083 119.654 55.9853 118.326 55.9853C116.997 55.9853 115.92 54.9083 115.92 53.5798V42.9589C115.92 41.3021 117.263 39.9589 118.92 39.9589H146.788C148.086 39.9589 149.139 41.0113 149.139 42.3095V44.4309C149.139 44.5574 149.241 44.66 149.368 44.66ZM149.368 31.3047C149.368 32.5439 148.363 33.5484 147.124 33.5484H118.393C117.154 33.5484 116.149 32.5439 116.149 31.3047C116.149 30.0656 117.154 29.0611 118.393 29.0611H147.124C148.363 29.0611 149.368 30.0656 149.368 31.3047ZM149.368 20.6205C149.368 21.7417 148.459 22.6505 147.338 22.6505H118.179C117.058 22.6505 116.149 21.7417 116.149 20.6205C116.149 19.4994 117.058 18.5905 118.179 18.5905H147.338C148.459 18.5905 149.368 19.4994 149.368 20.6205ZM161.968 121.479C161.968 122.837 160.868 123.937 159.51 123.937H158.698C157.341 123.937 156.24 122.837 156.24 121.479C156.24 120.122 157.341 119.022 158.698 119.022H159.51C160.868 119.022 161.968 120.122 161.968 121.479ZM161.968 110.047C161.968 111.464 160.82 112.612 159.403 112.612H158.805C157.388 112.612 156.24 111.464 156.24 110.047C156.24 108.631 157.388 107.483 158.805 107.483H159.403C160.82 107.483 161.968 108.631 161.968 110.047ZM161.968 98.209C161.968 99.7905 160.686 101.073 159.104 101.073C157.523 101.073 156.24 99.7905 156.24 98.209V53.9342C156.24 52.3526 157.523 51.0705 159.104 51.0705C160.686 51.0705 161.968 52.3526 161.968 53.9342V98.209ZM165.404 44.66H158.591C157.293 44.66 156.24 43.6076 156.24 42.3095C156.24 41.0113 157.293 39.9589 158.591 39.9589H170.422C172.079 39.9589 173.422 41.3021 173.422 42.9589V110.321C173.422 111.586 172.397 112.612 171.131 112.612C169.866 112.612 168.84 111.586 168.84 110.321V47.8653C168.84 45.9421 167.237 44.66 165.404 44.66ZM181.648 29.0611C183.305 29.0611 184.648 30.4042 184.648 32.0611V120.937C184.648 122.594 183.305 123.937 181.648 123.937H171.298C169.941 123.937 168.84 122.837 168.84 121.479C168.84 120.122 169.941 119.022 171.298 119.022H176.859C178.691 119.022 180.295 117.526 180.295 115.817V36.7537C180.295 35.0442 178.691 33.5484 176.859 33.5484H158.484C157.245 33.5484 156.24 32.5439 156.24 31.3047C156.24 30.0656 157.245 29.0611 158.484 29.0611H181.648Z" fill="#FFB900"/>
</g>
<defs>
<clipPath id="clip0_93_179">
<rect width="203" height="203" fill="white"/>
</clipPath>
</defs>
</svg>
