<svg width="278" height="278" viewBox="0 0 278 278" fill="none" xmlns="http://www.w3.org/2000/svg">
<rect width="278" height="278" rx="139" fill="#F6FAFF"/>
<path d="M54.3169 96.44C49.5169 96.44 45.5702 95.0533 42.4769 92.28C39.4902 89.4 37.9969 85.88 37.9969 81.72C37.9969 77.4533 39.4902 73.9333 42.4769 71.16C45.5702 68.28 49.5169 66.84 54.3169 66.84C59.0102 66.84 62.8502 68.28 65.8369 71.16C68.9302 73.9333 70.4769 77.4533 70.4769 81.72C70.4769 85.88 68.9302 89.4 65.8369 92.28C62.8502 95.0533 59.0102 96.44 54.3169 96.44ZM68.0769 206.52C68.0769 217.507 65.3035 225.4 59.7569 230.2C54.2102 235.107 46.4769 237.56 36.5569 237.56H25.8369V214.36H32.3969C35.3835 214.36 37.5169 213.773 38.7969 212.6C40.0769 211.427 40.7169 209.507 40.7169 206.84V105.72H68.0769V206.52ZM201.668 104.76C212.761 104.76 221.561 108.12 228.068 114.84C234.681 121.56 237.988 130.893 237.988 142.84V195H210.788V146.52C210.788 140.76 209.241 136.333 206.148 133.24C203.161 130.04 199.001 128.44 193.668 128.44C188.335 128.44 184.121 130.04 181.028 133.24C178.041 136.333 176.548 140.76 176.548 146.52V195H149.348V146.52C149.348 140.76 147.801 136.333 144.708 133.24C141.721 130.04 137.561 128.44 132.228 128.44C126.895 128.44 122.681 130.04 119.588 133.24C116.601 136.333 115.108 140.76 115.108 146.52V195H87.7481V105.72H115.108V116.92C117.881 113.187 121.508 110.253 125.988 108.12C130.468 105.88 135.535 104.76 141.188 104.76C147.908 104.76 153.881 106.2 159.108 109.08C164.441 111.96 168.601 116.067 171.588 121.4C174.681 116.493 178.895 112.493 184.228 109.4C189.561 106.307 195.375 104.76 201.668 104.76Z" fill="#2C7FFF"/>
<path d="M74.4062 211H247.268V219H74.4062V211Z" fill="#2C7FFF"/>
</svg>
