<svg width="101" height="100" viewBox="0 0 101 100" fill="none" xmlns="http://www.w3.org/2000/svg">
<rect x="0.5" width="100" height="100" rx="8" fill="#F6FAFF"/>
<path d="M20.291 40.013H30.7082V69.9813C30.7082 72.5227 30.1735 74.5106 29.1041 75.9448C28.0473 77.3791 26.5628 78.3918 24.6504 78.9832C22.7381 79.5745 20.5049 79.8701 17.9509 79.8701C17.5735 79.8701 17.2275 79.8638 16.913 79.8513C16.5859 79.8387 16.2273 79.8198 15.8373 79.7946V72.095C16.0889 72.1201 16.3091 72.139 16.4978 72.1516C16.674 72.1642 16.8564 72.1705 17.0451 72.1705C18.2906 72.1705 19.1399 71.9754 19.5928 71.5854C20.0583 71.208 20.291 70.5978 20.291 69.7549V40.013ZM25.4996 36.9935C24.0906 36.9935 22.8828 36.528 21.8763 35.597C20.8698 34.666 20.3665 33.5463 20.3665 32.2378C20.3665 30.9294 20.8698 29.8097 21.8763 28.8786C22.8828 27.9476 24.0906 27.4821 25.4996 27.4821C26.9213 27.4821 28.1291 27.9476 29.123 28.8786C30.1295 29.8097 30.6328 30.9294 30.6328 32.2378C30.6328 33.5463 30.1295 34.666 29.123 35.597C28.1291 36.528 26.9213 36.9935 25.4996 36.9935ZM36.0159 69V40.013H45.9047V45.5235H46.2067C46.8106 43.7118 47.8422 42.2776 49.3016 41.2208C50.7611 40.164 52.4973 39.6356 54.5102 39.6356C56.5484 39.6356 58.3035 40.1765 59.7755 41.2585C61.2475 42.3279 62.1344 43.7496 62.4364 45.5235H62.7383C63.229 43.7496 64.2732 42.3279 65.871 41.2585C67.4689 40.1765 69.3434 39.6356 71.4948 39.6356C74.2753 39.6356 76.5273 40.5288 78.2509 42.3153C79.9871 44.1019 80.8552 46.4797 80.8552 49.4489V69H70.438V52.0909C70.438 50.8202 70.1172 49.8263 69.4756 49.1092C68.8339 48.3795 67.9721 48.0146 66.8901 48.0146C65.8207 48.0146 64.9715 48.3795 64.3424 49.1092C63.726 49.8263 63.4177 50.8202 63.4177 52.0909V69H53.4534V52.0909C53.4534 50.8202 53.1326 49.8263 52.491 49.1092C51.8493 48.3795 50.9875 48.0146 49.9055 48.0146C49.1884 48.0146 48.5719 48.1782 48.0561 48.5053C47.5403 48.8324 47.1377 49.3042 46.8483 49.9207C46.5715 50.5246 46.4331 51.248 46.4331 52.0909V69H36.0159Z" fill="#2C7FFF"/>
</svg>
